<svg height="250" viewBox="0 0 307 250" fill="none" xmlns="http://www.w3.org/2000/svg">
<path opacity="0.47" d="M240.121 70.5843L297.534 56.2477C300.766 55.4405 303.522 53.4697 305.196 50.7688C306.869 48.0679 307.322 44.8582 306.456 41.8458C305.59 38.8334 303.475 36.265 300.577 34.7057C297.678 33.1464 294.234 32.7239 291.002 33.5311L200.539 56.1184C198.938 56.5181 197.269 56.6201 195.626 56.4185C193.983 56.2169 192.399 55.7158 190.964 54.9436C189.529 54.1715 188.271 53.1435 187.262 51.9183C186.253 50.6932 185.513 49.2949 185.085 47.8032C184.219 44.791 184.672 41.5817 186.345 38.881C188.018 36.1804 190.774 34.2096 194.006 33.4023L235.184 23.1174C236.785 22.7179 238.285 22.0284 239.6 21.0884C240.915 20.1484 242.018 18.9762 242.847 17.6389C243.676 16.3015 244.213 14.8251 244.43 13.294C244.646 11.7629 244.537 10.2071 244.108 8.71542C243.242 5.70301 241.127 3.13465 238.229 1.57535C235.33 0.0160468 231.886 -0.406466 228.653 0.400756L19.4691 52.6319C17.8684 53.0315 16.3679 53.721 15.0533 54.661C13.7386 55.601 12.6354 56.7731 11.8069 58.1105C10.9783 59.4478 10.4405 60.9241 10.2242 62.4551C10.0079 63.9861 10.1173 65.5418 10.5462 67.0334C10.9748 68.5253 11.7146 69.924 12.7233 71.1494C13.7321 72.3749 14.99 73.4032 16.4252 74.1755C17.8605 74.9479 19.4449 75.4492 21.0881 75.6508C22.7313 75.8525 24.401 75.7505 26.0018 75.3506L58.5725 67.2178C61.8052 66.4107 65.2495 66.8334 68.1477 68.3928C71.046 69.9521 73.1608 72.5205 74.0271 75.533C74.456 77.0246 74.5654 78.5803 74.3491 80.1113C74.1328 81.6423 73.595 83.1186 72.7664 84.4559C71.9378 85.7932 70.8347 86.9653 69.52 87.9053C68.2053 88.8454 66.7048 89.5348 65.1042 89.9344L9.35278 103.855C6.12019 104.663 3.36408 106.633 1.69073 109.334C0.0173754 112.035 -0.436162 115.245 0.429883 118.257C0.858736 119.749 1.59867 121.147 2.60743 122.372C3.61619 123.598 4.87403 124.626 6.30913 125.398C7.74422 126.17 9.32846 126.671 10.9714 126.873C12.6143 127.074 14.2838 126.972 15.8844 126.573L50.6775 117.884C53.9101 117.077 57.3544 117.5 60.2527 119.059C63.1509 120.619 65.2658 123.187 66.132 126.2C66.5609 127.691 66.6703 129.247 66.454 130.778C66.2377 132.309 65.6999 133.785 64.8714 135.123C64.0428 136.46 62.9397 137.632 61.625 138.572C60.3103 139.512 58.8098 140.201 57.2091 140.601L54.7404 141.218C53.1392 141.617 51.6382 142.307 50.3231 143.248C49.0081 144.189 47.9049 145.361 47.0765 146.7C46.248 148.038 45.7106 149.515 45.495 151.046C45.2794 152.578 45.3897 154.134 45.8197 155.626C46.2485 157.118 46.9884 158.516 47.9972 159.742C49.0059 160.967 50.2637 161.995 51.6988 162.767C53.1339 163.539 54.7182 164.04 56.3611 164.242C58.0041 164.444 59.6736 164.342 61.2743 163.942L63.6154 163.358C65.216 162.958 66.8854 162.856 68.5283 163.058C70.1712 163.259 71.7554 163.76 73.1904 164.533C74.6255 165.305 75.8833 166.333 76.892 167.558C77.9007 168.783 78.6406 170.181 79.0694 171.673C79.4983 173.164 79.6078 174.72 79.3916 176.251C79.1754 177.782 78.6376 179.259 77.8091 180.596C76.9806 181.933 75.8775 183.106 74.5628 184.046C73.2482 184.986 71.7477 185.675 70.147 186.075L35.4821 194.73C32.2496 195.538 29.4935 197.508 27.8202 200.209C26.147 202.91 25.6936 206.12 26.5598 209.132C27.426 212.145 29.5409 214.713 32.4392 216.272C35.3375 217.832 38.7818 218.254 42.0143 217.447L105.356 201.63C106.957 201.231 108.626 201.129 110.269 201.33C111.912 201.532 113.496 202.033 114.931 202.805C116.366 203.577 117.624 204.605 118.633 205.831C119.642 207.056 120.382 208.454 120.81 209.946C121.239 211.437 121.349 212.993 121.133 214.524C120.916 216.056 120.378 217.532 119.55 218.869C118.721 220.207 117.618 221.379 116.303 222.319C114.988 223.259 113.487 223.949 111.886 224.348L101.735 226.883C98.5025 227.69 95.7465 229.661 94.0733 232.362C92.4001 235.062 91.9466 238.272 92.8127 241.284C93.2415 242.776 93.9815 244.174 94.9902 245.4C95.999 246.625 97.2568 247.653 98.692 248.425C100.127 249.197 101.711 249.698 103.354 249.899C104.997 250.101 106.667 249.999 108.267 249.599L269.552 209.327C272.784 208.519 275.54 206.548 277.214 203.848C278.887 201.147 279.34 197.937 278.474 194.925C278.045 193.433 277.305 192.035 276.296 190.809C275.288 189.584 274.03 188.556 272.595 187.784C271.16 187.012 269.575 186.511 267.932 186.309C266.29 186.108 264.62 186.21 263.019 186.609L258.275 187.794C255.043 188.601 251.599 188.179 248.7 186.62C245.802 185.061 243.687 182.494 242.82 179.482C242.392 177.99 242.282 176.434 242.499 174.903C242.715 173.372 243.253 171.896 244.082 170.558C244.911 169.221 246.014 168.049 247.329 167.109C248.643 166.169 250.144 165.48 251.745 165.08L282.943 157.289C284.544 156.889 286.044 156.199 287.359 155.259C288.674 154.319 289.777 153.147 290.605 151.81C291.434 150.472 291.972 148.996 292.188 147.465C292.404 145.934 292.295 144.378 291.866 142.887C291.437 141.395 290.697 139.997 289.689 138.771C288.68 137.546 287.422 136.518 285.987 135.746C284.552 134.974 282.968 134.473 281.325 134.271C279.682 134.07 278.012 134.172 276.412 134.571L232.174 145.616C230.573 146.016 228.904 146.118 227.261 145.916C225.618 145.715 224.034 145.214 222.599 144.441C221.164 143.669 219.906 142.641 218.897 141.416C217.888 140.191 217.148 138.793 216.719 137.301C215.854 134.289 216.308 131.08 217.982 128.379C219.655 125.679 222.411 123.709 225.643 122.902L256.966 115.08C258.567 114.681 260.067 113.991 261.382 113.051C262.697 112.111 263.8 110.939 264.628 109.602C265.457 108.264 265.994 106.788 266.211 105.257C266.427 103.726 266.317 102.17 265.888 100.679C265.46 99.1864 264.721 97.7876 263.712 96.5618C262.704 95.3361 261.446 94.3076 260.011 93.535C258.576 92.7624 256.991 92.2608 255.348 92.059C253.705 91.8571 252.035 91.959 250.434 92.3586L246.654 93.3025C243.422 94.1097 239.977 93.6872 237.079 92.1279C234.181 90.5686 232.066 88.0002 231.2 84.9878C230.77 83.4961 230.661 81.9403 230.877 80.4091C231.093 78.878 231.631 77.4015 232.459 76.064C233.288 74.7265 234.391 73.5541 235.705 72.6139C237.02 71.6737 238.521 70.984 240.121 70.5843Z" fill="#2BDA80"/>
<path opacity="0.32" d="M190.501 187.578H109.05C107.595 187.578 106.382 186.366 106.382 184.91C106.382 183.455 107.595 182.242 109.05 182.242H190.501C191.957 182.242 193.169 183.455 193.169 184.91C193.169 186.366 191.957 187.578 190.501 187.578Z" fill="#1C1C1C"/>
<path opacity="0.32" d="M237.703 208.934H67.0394C65.584 208.934 64.3712 207.721 64.3712 206.266C64.3712 204.81 65.584 203.598 67.0394 203.598H237.703C239.158 203.598 240.371 204.81 240.371 206.266C240.371 207.77 239.158 208.934 237.703 208.934Z" fill="#1C1C1C"/>
<path d="M235.132 134.938H64.3712V43.5421C64.3712 39.3216 67.767 35.9258 71.9875 35.9258H227.273C231.591 35.9258 235.132 39.4671 235.132 43.7847V134.938Z" fill="#383939"/>
<path d="M67.2819 127.659V43.2489C67.2819 40.8233 69.2224 38.8828 71.648 38.8828H227.855C230.281 38.8828 232.221 40.8233 232.221 43.2489V127.659C232.221 130.085 230.281 132.025 227.855 132.025H71.648C69.2709 132.025 67.2819 130.036 67.2819 127.659Z" fill="#3A3A3A"/>
<path d="M235.132 134.938H64.3712V43.5421C64.3712 39.3216 67.767 35.9258 71.9875 35.9258H227.273C231.591 35.9258 235.132 39.4671 235.132 43.7847V134.938Z" stroke="#383939" stroke-miterlimit="10" stroke-linecap="round" stroke-linejoin="round"/>
<path d="M225.422 125.2L225.422 45.6406L74.0662 45.6406L74.0662 125.2L225.422 125.2Z" fill="#4F4F4F"/>
<path d="M227.225 158.223H72.036C67.8155 158.223 64.3712 154.779 64.3712 150.558V134.938H235.132V150.316C235.132 154.633 231.591 158.223 227.225 158.223Z" fill="#D4E8DC"/>
<path d="M72.036 154.339C69.95 154.339 68.2521 152.641 68.2521 150.555V136.535H231.251V150.312C231.251 152.544 229.456 154.339 227.225 154.339H72.036Z" fill="#EBF2EE"/>
<path d="M227.225 158.223H72.036C67.8155 158.223 64.3712 154.779 64.3712 150.558V134.938H235.132V150.316C235.132 154.633 231.591 158.223 227.225 158.223Z" stroke="#383939" stroke-miterlimit="10" stroke-linecap="round" stroke-linejoin="round"/>
<path d="M175.463 175.687H124.04L131.657 158.223H167.846L175.463 175.687Z" fill="#CAD8D0"/>
<path d="M171.242 165.985L167.846 158.223H131.657L128.261 165.985H171.242Z" fill="#A1ADA6"/>
<path d="M175.463 175.687H124.04L131.657 158.223H167.846L175.463 175.687Z" stroke="#383939" stroke-miterlimit="10" stroke-linecap="round" stroke-linejoin="round"/>
<path d="M185.165 183.453H114.338L115.066 180.882C115.939 177.826 118.801 175.691 122.1 175.691H177.403C180.702 175.691 183.613 177.826 184.437 180.882L185.165 183.453Z" fill="#DAEDE2"/>
<path d="M185.165 183.453H114.338L115.066 180.882C115.939 177.826 118.801 175.691 122.1 175.691H177.403C180.702 175.691 183.613 177.826 184.437 180.882L185.165 183.453Z" stroke="#383939" stroke-miterlimit="10" stroke-linecap="round" stroke-linejoin="round"/>
<path d="M77.0812 202.962H200.155C201.95 202.962 203.405 201.506 203.405 199.711C203.405 197.916 201.95 196.461 200.155 196.461H77.0812C75.2863 196.461 73.831 197.916 73.831 199.711C73.7824 201.506 75.2378 202.962 77.0812 202.962Z" fill="#DAEDE2"/>
<path d="M77.0812 202.962H200.155C201.95 202.962 203.405 201.506 203.405 199.711C203.405 197.916 201.95 196.461 200.155 196.461H77.0812C75.2863 196.461 73.831 197.916 73.831 199.711C73.7824 201.506 75.2378 202.962 77.0812 202.962Z" stroke="#383939" stroke-miterlimit="10" stroke-linecap="round" stroke-linejoin="round"/>
<path d="M114.823 196.414H174.007V194.473C174.007 192.872 172.698 191.562 171.097 191.562H117.734C116.133 191.562 114.823 192.872 114.823 194.473V196.414Z" fill="#383939"/>
<path d="M103.083 196.414H113.368V194.473C113.368 192.872 112.058 191.562 110.457 191.562H105.994C104.393 191.562 103.083 192.872 103.083 194.473V196.414Z" fill="#383939"/>
<path d="M91.101 196.414H101.386V194.473C101.386 192.872 100.076 191.562 98.4748 191.562H94.0117C92.4109 191.562 91.101 192.872 91.101 194.473V196.414Z" fill="#383939"/>
<path d="M187.736 196.414H198.021V194.473C198.021 192.872 196.711 191.562 195.11 191.562H190.647C189.046 191.562 187.736 192.872 187.736 194.473V196.414Z" fill="#383939"/>
<path d="M175.802 196.414H186.087V194.473C186.087 192.872 184.777 191.562 183.176 191.562H178.713C177.112 191.562 175.802 192.872 175.802 194.473V196.414Z" fill="#383939"/>
<path d="M79.1672 196.414H89.4517V194.473C89.4517 192.872 88.1419 191.562 86.541 191.562H82.0779C80.477 191.562 79.1672 192.872 79.1672 194.473V196.414Z" fill="#383939"/>
<path d="M231.241 203.241C231.193 199.554 227.166 195.867 220.035 195.867C212.952 195.867 208.877 199.554 208.829 203.241H231.241Z" fill="#DAEDE2"/>
<path d="M231.241 203.241C231.193 199.554 227.166 195.867 220.035 195.867C212.952 195.867 208.877 199.554 208.829 203.241H231.241Z" stroke="#383939" stroke-miterlimit="10" stroke-linecap="round" stroke-linejoin="round"/>
<path d="M156.64 145.368C154.409 145.368 152.565 143.718 152.274 141.535C152.226 141.535 152.226 141.535 152.177 141.535C149.412 141.535 147.18 143.767 147.18 146.532C147.18 149.297 149.412 151.529 152.177 151.529C154.942 151.529 157.174 149.297 157.174 146.532C157.174 146.095 157.125 145.707 157.028 145.319C156.883 145.368 156.786 145.368 156.64 145.368Z" fill="#383939"/>
<path opacity="0.16" d="M91.2467 125.235H109.778L150.334 45.6758H131.802L91.2467 125.235Z" fill="#C2D3C9"/>
<path opacity="0.16" d="M124.768 125.235L165.324 45.6758H158.387L117.831 125.235H124.768Z" fill="#C2D3C9"/>
<path d="M170.449 57.6268H163.207V84.1836H170.449V57.6268Z" fill="url(#paint0_linear_471_21697)"/>
<path d="M151.135 84.1836H158.378V64.8696H151.135V84.1836Z" fill="url(#paint1_linear_471_21697)"/>
<path d="M139.064 84.1836H146.307V72.1123H139.064V84.1836Z" fill="url(#paint2_linear_471_21697)"/>
<path d="M162.828 105.105L173.071 115.347C174.955 117.233 178.014 117.233 179.899 115.347C181.785 113.462 181.785 110.405 179.899 108.52L169.656 98.2763L162.828 105.105Z" fill="url(#paint3_linear_471_21697)"/>
<path d="M157.965 96.823L162.829 101.687L166.243 98.2726L161.379 93.4089C163.052 91.3628 164.377 89.0552 165.302 86.5806H160.054C159.575 87.5624 159.015 88.5019 158.378 89.3892C152.161 98.0563 140.093 100.041 131.427 93.8233C122.76 87.6046 120.775 75.5374 126.993 66.8712C133.212 58.204 145.278 56.2193 153.945 62.438H161.032C156.296 56.9003 149.596 54.0344 142.841 53.9882H142.515C137.015 54.0244 131.5 55.9296 126.993 59.7834C121.456 64.5193 118.589 71.2189 118.543 77.9758V78.3017C118.579 83.8002 120.485 89.3167 124.339 93.8233C132.87 103.796 147.803 105.128 157.965 96.823" fill="url(#paint4_linear_471_21697)"/>
<defs>
<linearGradient id="paint0_linear_471_21697" x1="166.828" y1="116.776" x2="166.828" y2="54.0053" gradientUnits="userSpaceOnUse">
<stop stop-color="#00A5E9"/>
<stop offset="1" stop-color="#15FFCE"/>
</linearGradient>
<linearGradient id="paint1_linear_471_21697" x1="154.756" y1="116.776" x2="154.756" y2="54.0054" gradientUnits="userSpaceOnUse">
<stop stop-color="#00A5E9"/>
<stop offset="1" stop-color="#15FFCE"/>
</linearGradient>
<linearGradient id="paint2_linear_471_21697" x1="142.685" y1="116.776" x2="142.685" y2="54.0054" gradientUnits="userSpaceOnUse">
<stop stop-color="#00A5E9"/>
<stop offset="1" stop-color="#15FFCE"/>
</linearGradient>
<linearGradient id="paint3_linear_471_21697" x1="172.07" y1="116.762" x2="172.07" y2="53.9919" gradientUnits="userSpaceOnUse">
<stop stop-color="#00A5E9"/>
<stop offset="1" stop-color="#15FFCE"/>
</linearGradient>
<linearGradient id="paint4_linear_471_21697" x1="142.393" y1="116.759" x2="142.393" y2="53.9883" gradientUnits="userSpaceOnUse">
<stop stop-color="#00A5E9"/>
<stop offset="1" stop-color="#15FFCE"/>
</linearGradient>
</defs>
</svg>
