<svg width="21" height="21" viewBox="0 0 21 21" fill="none" xmlns="http://www.w3.org/2000/svg">
<path d="M2.5 0C1.12 0 0 1.12 0 2.5V18.5C0 19.88 1.12 21 2.5 21H18.5C19.88 21 21 19.88 21 18.5V2.5C21 1.12 19.88 0 18.5 0H2.5ZM4 7H7.36523C7.73023 7 9.70508 6.97516 9.70508 8.78516C9.70508 9.74516 9.04988 10.0698 8.75488 10.2148C9.19488 10.3548 10 10.76 10 12C10 13.915 7.80477 14 7.50977 14H4V7ZM12.5 7H16V8H12.5V7ZM5.5 8.21484V9.85547H7.11035C7.33035 9.85547 8.05957 9.735 8.05957 9C8.05957 8.265 7.10984 8.21484 6.96484 8.21484H5.5ZM14.3652 8.5C16.3152 8.5 16.8448 10.0199 16.9248 10.3799C16.9998 10.7449 17 11.065 17 11.5H13.0498C13.0498 11.935 13.2803 12.915 14.4453 12.915C14.7553 12.915 14.9847 12.8403 15.2197 12.6953C15.4497 12.5503 15.5305 12.4096 15.6055 12.2646H16.9199C16.6899 12.8396 16.38 13.2754 15.915 13.5654C15.45 13.8554 14.91 14 14.29 14C13.9 14 13.515 13.9253 13.125 13.7803C12.815 13.6353 12.5054 13.4201 12.2754 13.2051C12.0454 12.9851 11.8904 12.695 11.7354 12.335C11.5804 12.045 11.5 11.61 11.5 11.25C11.5 10.89 11.6452 8.5 14.3652 8.5ZM14.3652 9.51465C13.2352 9.51465 13.0498 10.5999 13.0498 10.6699H15.5303C15.4503 10.3099 15.1252 9.51465 14.3652 9.51465ZM5.5 10.8555V12.7852H7.17578C7.32028 12.7852 8.33984 12.7405 8.33984 11.8555C8.33984 10.9755 7.53878 10.8555 7.17578 10.8555H5.5Z" fill="#2BDA80"/>
</svg>
