<svg width="32" height="32" viewBox="0 0 32 32" fill="none" xmlns="http://www.w3.org/2000/svg">
<path d="M24.5 0H7C3.13425 0 0 3.13425 0 7V24.5C0 28.3658 3.13425 31.5 7 31.5H16.8368V19.3182H12.7365V14.5495H16.8368V11.0408C16.8368 6.97375 19.3235 4.7565 22.953 4.7565C24.1762 4.753 25.3978 4.816 26.614 4.94025V9.19275H24.115C22.1375 9.19275 21.7525 10.1272 21.7525 11.5062V14.5425H26.4775L25.8632 19.3112H21.7245V31.5H24.5C28.3658 31.5 31.5 28.3658 31.5 24.5V7C31.5 3.13425 28.3658 0 24.5 0Z" fill="#2BDA80"/>
</svg>
