<svg width="910" height="910" viewBox="0 0 910 910" fill="none" xmlns="http://www.w3.org/2000/svg">
<circle cx="455" cy="455" r="455" fill="#163145"/>
<circle cx="449.5" cy="454.5" r="355.5" fill="#576A78"/>
<circle cx="449.5" cy="448.5" r="272.5" fill="#738FA5"/>
<path opacity="0.64" d="M455.1 738.608C584.942 738.608 690.2 717.431 690.2 691.308C690.2 665.185 584.942 644.008 455.1 644.008C325.258 644.008 220 665.185 220 691.308C220 717.431 325.258 738.608 455.1 738.608Z" fill="#68CCE9"/>
<path d="M342.4 683.71C345.7 673.01 355.8 667.31 372.2 662.51C382.6 659.51 395.8 658.11 416.5 653.91C426.6 651.91 433.7 647.91 433.7 647.91V659.41C433.7 659.41 365.2 672.91 354.5 690.61C349.3 699.31 350.9 720.61 375.4 722.81C367.9 723.91 355.6 722.01 349 715.31C340.8 707.01 338.6 695.91 342.4 683.71Z" fill="#282323" stroke="black" stroke-width="4" stroke-miterlimit="10" stroke-linecap="round" stroke-linejoin="round"/>
<path d="M433.7 659.41C433.7 659.41 392.7 667.01 370.8 676.41C351.6 684.71 352.2 693.31 351.7 702.11C351.4 707.21 355 719.81 369.6 722.01C387 724.61 407.5 721.81 433.7 705.11C433.7 664.21 433.7 659.41 433.7 659.41Z" fill="#442C2A"/>
<path opacity="0.37" d="M351.7 702.111C352.1 695.011 351.8 688.011 361.8 681.211C361.4 683.711 361.3 686.111 361.2 688.611C360.9 693.711 373.2 687.111 387.8 689.211C403 691.511 412 708.911 433.7 697.211C433.7 699.711 433.7 702.311 433.7 705.011C407.5 721.711 387 724.411 369.6 721.911C355 719.811 351.4 707.111 351.7 702.111Z" fill="#442C2A"/>
<path d="M433.7 659.41C433.7 659.41 392.7 667.01 370.8 676.41C351.6 684.71 352.2 693.31 351.7 702.11C351.4 707.21 355 719.81 369.6 722.01C387 724.61 407.5 721.81 433.7 705.11C433.7 664.21 433.7 659.41 433.7 659.41Z" stroke="black" stroke-width="4" stroke-miterlimit="10" stroke-linecap="round" stroke-linejoin="round"/>
<path d="M395.7 682.91C392.4 684.71 393.2 702.21 401.2 704.61" stroke="black" stroke-width="4" stroke-miterlimit="10" stroke-linecap="round" stroke-linejoin="round"/>
<path d="M408.2 681.609C404.8 686.409 407.2 697.709 413.3 700.509" stroke="black" stroke-width="4" stroke-miterlimit="10" stroke-linecap="round" stroke-linejoin="round"/>
<path d="M419.7 677.609C416.3 682.409 418.7 693.709 424.8 696.509" stroke="black" stroke-width="4" stroke-miterlimit="10" stroke-linecap="round" stroke-linejoin="round"/>
<path d="M537.7 625.807C516.1 640.807 485.4 649.407 453.3 649.407C421.3 649.407 390.5 640.807 368.9 625.807C359 618.907 342.4 604.507 342.4 585.307C342.4 566.107 359 551.707 368.9 544.807C390.5 529.807 421.2 521.207 453.3 521.207C485.3 521.207 516.1 529.807 537.7 544.807C547.6 551.707 564.2 566.107 564.2 585.307C564.2 604.507 547.6 618.907 537.7 625.807Z" fill="#151E28"/>
<path d="M636.6 601.31C636.2 603.31 635.8 605.21 635.2 607.21C619.6 664.11 544.4 707.31 453.9 707.31C363.2 707.31 287.8 663.91 272.5 606.81C272.1 605.21 271.7 603.61 271.4 602.01C271 599.01 271.1 596.01 271.7 593.01C275.4 576.21 295.8 566.51 317.3 571.31C331.4 574.41 342.4 583.11 347.3 593.41C347.8 595.61 348.6 597.81 349.5 599.91C354.7 611.91 365.1 620.91 372.1 625.91C393 640.91 422.9 649.51 453.9 649.51C485 649.51 514.8 640.91 535.7 625.91C542.8 620.81 553.3 611.71 558.4 599.71C559.2 597.81 559.9 595.71 560.4 593.71C565.2 583.31 576.3 574.61 590.5 571.41C612 566.61 632.4 576.41 636.1 593.11C636.8 595.71 636.9 598.51 636.6 601.31Z" fill="#2A3749"/>
<path opacity="0.67" d="M636.1 592.908C636 592.408 635.9 592.008 635.7 591.508C635.4 593.108 635 594.808 634.5 596.408C619.1 653.308 543.8 696.508 453.4 696.508C362.7 696.508 287.3 653.108 272 596.008C271.8 595.408 271.7 594.808 271.5 594.108C271.1 596.708 271 599.308 271.4 601.808C271.7 603.408 272.1 605.008 272.5 606.608C287.8 663.708 363.2 707.108 453.9 707.108C544.4 707.108 619.6 663.908 635.2 607.008C635.7 605.108 636.2 603.108 636.6 601.108C636.9 598.508 636.8 595.708 636.1 592.908Z" fill="#151E28"/>
<path d="M636.6 601.31C636.2 603.31 635.8 605.21 635.2 607.21C619.6 664.11 544.4 707.31 453.9 707.31C363.2 707.31 287.8 663.91 272.5 606.81C272.1 605.21 271.7 603.61 271.4 602.01C271 599.01 271.1 596.01 271.7 593.01C275.4 576.21 295.8 566.51 317.3 571.31C331.4 574.41 342.4 583.11 347.3 593.41C347.8 595.61 348.6 597.81 349.5 599.91C354.7 611.91 365.1 620.91 372.1 625.91C393 640.91 422.9 649.51 453.9 649.51C485 649.51 514.8 640.91 535.7 625.91C542.8 620.81 553.3 611.71 558.4 599.71C559.2 597.81 559.9 595.71 560.4 593.71C565.2 583.31 576.3 574.61 590.5 571.41C612 566.61 632.4 576.41 636.1 593.11C636.8 595.71 636.9 598.51 636.6 601.31Z" stroke="black" stroke-width="4" stroke-miterlimit="10" stroke-linecap="round" stroke-linejoin="round"/>
<path d="M455.1 618.907C504.861 618.907 545.2 605.207 545.2 588.307C545.2 571.407 504.861 557.707 455.1 557.707C405.339 557.707 365 571.407 365 588.307C365 605.207 405.339 618.907 455.1 618.907Z" fill="#219359"/>
<path d="M455.1 618.907C504.861 618.907 545.2 605.207 545.2 588.307C545.2 571.407 504.861 557.707 455.1 557.707C405.339 557.707 365 571.407 365 588.307C365 605.207 405.339 618.907 455.1 618.907Z" stroke="black" stroke-width="4" stroke-miterlimit="10" stroke-linecap="round" stroke-linejoin="round"/>
<path d="M557.7 521.509H350.1C334.2 521.509 321.9 507.609 323.9 491.809L333.1 418.309C335.7 397.309 353.5 381.609 374.7 381.609H533.3C554.4 381.609 572.2 397.309 574.9 418.309L584.1 491.809C585.9 507.609 573.6 521.509 557.7 521.509Z" fill="#F1534D"/>
<path d="M557.7 521.509H350.1C334.2 521.509 321.9 507.609 323.9 491.809L333.1 418.309C335.7 397.309 353.5 381.609 374.7 381.609H533.3C554.4 381.609 572.2 397.309 574.9 418.309L584.1 491.809C585.9 507.609 573.6 521.509 557.7 521.509Z" stroke="black" stroke-width="4" stroke-miterlimit="10" stroke-linecap="round" stroke-linejoin="round"/>
<path d="M372.6 443.711L370.6 468.811" stroke="black" stroke-width="4" stroke-miterlimit="10" stroke-linecap="round" stroke-linejoin="round"/>
<path d="M536.7 443.711L538.7 468.811" stroke="black" stroke-width="4" stroke-miterlimit="10" stroke-linecap="round" stroke-linejoin="round"/>
<path d="M557.7 521.509H350.1C334.2 521.509 321.9 507.609 323.9 491.809L333.1 418.309C335.7 397.309 353.5 381.609 374.7 381.609H533.3C554.4 381.609 572.2 397.309 574.9 418.309L584.1 491.809C585.9 507.609 573.6 521.509 557.7 521.509Z" fill="#2BDA80"/>
<g opacity="0.24">
<path d="M333 426.109C335.6 405.109 353.4 389.409 374.6 389.409H533.2C554.3 389.409 572.1 405.109 574.8 426.109L583.9 499.009C584.2 496.709 584.3 494.309 584 491.809L574.8 418.309C572.2 397.309 554.4 381.609 533.2 381.609H374.6C353.5 381.609 335.7 397.309 333 418.309L323.8 491.809C323.5 494.209 323.5 496.609 323.9 499.009L333 426.109Z" fill="#9B2121"/>
<path d="M383.8 389.409C383.8 389.409 396.1 391.609 397.1 398.409C397.9 403.909 397.8 407.509 399.9 409.709C402 411.909 406.9 416.409 416.8 416.409C411.3 410.909 411.2 391.609 409.7 391.609C408.3 391.609 404.7 382.009 404.7 382.009L399.9 379.809C400 379.809 382.3 382.009 383.8 389.409Z" fill="#9B2121"/>
<path d="M515.2 389.409C515.2 389.409 502.9 391.609 501.9 398.409C501.1 403.909 501.2 407.509 499.1 409.709C497 411.809 492.1 416.409 482.2 416.409C487.7 410.909 487.8 391.609 489.3 391.609C490.7 391.609 494.3 382.009 494.3 382.009L499.1 379.809C499 379.809 516.7 382.009 515.2 389.409Z" fill="#9B2121"/>
</g>
<path d="M557.7 521.509H350.1C334.2 521.509 321.9 507.609 323.9 491.809L333.1 418.309C335.7 397.309 353.5 381.609 374.7 381.609H533.3C554.4 381.609 572.2 397.309 574.9 418.309L584.1 491.809C585.9 507.609 573.6 521.509 557.7 521.509Z" stroke="black" stroke-width="4" stroke-miterlimit="10" stroke-linecap="round" stroke-linejoin="round"/>
<path d="M372.6 443.707L370.6 468.807" stroke="black" stroke-width="4" stroke-miterlimit="10" stroke-linecap="round" stroke-linejoin="round"/>
<path d="M536.7 443.707L538.7 468.807" stroke="black" stroke-width="4" stroke-miterlimit="10" stroke-linecap="round" stroke-linejoin="round"/>
<path d="M427.2 339.809L394.3 338.109L378.9 339.809C378.9 339.809 368.6 347.509 368.6 349.609C368.6 351.709 369.6 368.809 369.6 368.809C369.6 368.809 393.9 372.109 396.5 374.609C399.1 377.109 414.5 391.509 414.5 391.509L429.4 385.709L437.2 364.909L427.2 339.809Z" fill="#219359"/>
<path d="M421.4 327.109H383.4C368.1 327.109 355.6 339.509 355.6 354.909C355.6 370.209 368 382.709 383.4 382.709H388.4C396.5 382.709 403 389.209 403 397.309V398.809C403 408.509 410.9 416.409 420.6 416.409V398.409C420.8 398.409 421 398.609 421 398.809V397.309C421 379.309 406.4 364.709 388.4 364.709H383.4C378 364.709 373.6 360.309 373.6 354.909C373.6 349.509 378 345.109 383.4 345.109H421.4V327.109Z" fill="#2BDA80"/>
<path d="M419.1 386.008C414.5 373.608 402.5 364.608 388.5 364.608H383.5C378.1 364.608 373.7 360.208 373.7 354.808C373.7 349.408 378.1 345.008 383.5 345.008H421.5V327.008H383.5C368.2 327.008 355.7 339.408 355.7 354.808C355.7 370.108 368.1 382.608 383.5 382.608H388.5C396.6 382.608 403.1 389.108 403.1 397.208V398.708C403.1 408.408 411 416.308 420.7 416.308" stroke="black" stroke-width="4" stroke-miterlimit="10" stroke-linecap="round" stroke-linejoin="round"/>
<path d="M470.7 339.809L503.6 338.109L519 339.809C519 339.809 529.3 347.509 529.3 349.609C529.3 351.709 528.3 368.809 528.3 368.809C528.3 368.809 504 372.109 501.4 374.609C498.8 377.209 483.4 391.509 483.4 391.509L468.5 385.709L460.7 364.909L470.7 339.809Z" fill="#219359"/>
<path d="M476.5 327.109H514.5C529.8 327.109 542.3 339.509 542.3 354.909C542.3 370.209 529.9 382.709 514.5 382.709H509.5C501.4 382.709 494.9 389.209 494.9 397.309V398.809C494.9 408.509 487 416.409 477.3 416.409V398.409C477.1 398.409 476.9 398.609 476.9 398.809V397.309C476.9 379.309 491.5 364.709 509.5 364.709H514.5C519.9 364.709 524.3 360.309 524.3 354.909C524.3 349.509 519.9 345.109 514.5 345.109H476.5V327.109Z" fill="#2BDA80"/>
<path d="M478.9 386.008C483.5 373.608 495.5 364.608 509.5 364.608H514.5C519.9 364.608 524.3 360.208 524.3 354.808C524.3 349.408 519.9 345.008 514.5 345.008H476.5V327.008H514.5C529.8 327.008 542.3 339.408 542.3 354.808C542.3 370.108 529.9 382.608 514.5 382.608H509.5C501.4 382.608 494.9 389.108 494.9 397.208V398.708C494.9 408.408 487 416.308 477.3 416.308" stroke="black" stroke-width="4" stroke-miterlimit="10" stroke-linecap="round" stroke-linejoin="round"/>
<path d="M450.8 402.207C472.339 402.207 489.8 384.746 489.8 363.207C489.8 341.668 472.339 324.207 450.8 324.207C429.261 324.207 411.8 341.668 411.8 363.207C411.8 384.746 429.261 402.207 450.8 402.207Z" fill="#26C473"/>
<path d="M413.5 351.709C424.3 358.609 437.1 362.709 450.8 362.709C464.5 362.709 477.3 358.709 488.1 351.709C483.2 335.709 468.4 324.109 450.8 324.109C433.3 324.209 418.4 335.809 413.5 351.709Z" fill="#21965A"/>
<path d="M450.8 402.207C472.339 402.207 489.8 384.746 489.8 363.207C489.8 341.668 472.339 324.207 450.8 324.207C429.261 324.207 411.8 341.668 411.8 363.207C411.8 384.746 429.261 402.207 450.8 402.207Z" stroke="black" stroke-width="4" stroke-miterlimit="10" stroke-linecap="round" stroke-linejoin="round"/>
<path d="M450.8 385.809C438.1 385.809 427.8 375.509 427.8 362.809V345.609C427.8 342.409 430.4 339.809 433.6 339.809H468.1C471.3 339.809 473.9 342.409 473.9 345.609V362.809C473.8 375.509 463.5 385.809 450.8 385.809Z" fill="#FFC897"/>
<path d="M468.1 339.809H433.6C430.4 339.809 427.8 342.609 427.8 346.009V360.109C435 362.809 442.7 364.309 450.8 364.309C458.9 364.309 466.6 362.809 473.8 360.109V346.009C473.8 342.609 471.2 339.809 468.1 339.809Z" fill="#E5A973"/>
<path d="M450.8 385.809C438.1 385.809 427.8 375.509 427.8 362.809V345.609C427.8 342.409 430.4 339.809 433.6 339.809H468.1C471.3 339.809 473.9 342.409 473.9 345.609V362.809C473.8 375.509 463.5 385.809 450.8 385.809Z" stroke="black" stroke-width="4" stroke-miterlimit="10" stroke-linecap="round" stroke-linejoin="round"/>
<path d="M475.7 644.91H454.3V713.21H475.7V644.91Z" fill="#607691"/>
<path d="M475.7 644.91H454.3V713.21H475.7V644.91Z" stroke="black" stroke-width="4" stroke-miterlimit="10" stroke-linecap="round" stroke-linejoin="round"/>
<path d="M349.4 599.707C348.5 597.607 347.8 595.507 347.2 593.207C348.3 595.407 349 597.507 349.4 599.707Z" stroke="black" stroke-width="4" stroke-miterlimit="10" stroke-linecap="round" stroke-linejoin="round"/>
<path d="M558.5 599.508C558.9 597.408 559.6 595.408 560.5 593.508C560 595.608 559.3 597.608 558.5 599.508Z" stroke="black" stroke-width="4" stroke-miterlimit="10" stroke-linecap="round" stroke-linejoin="round"/>
<path d="M558.2 594.709H349.7C342.3 594.709 336 589.209 335 581.809L322 480.009C320.9 471.209 327.8 463.309 336.7 463.309H571.2C580.1 463.309 587 471.109 585.9 480.009L572.9 581.809C571.9 589.109 565.6 594.709 558.2 594.709Z" fill="#B5B5B5"/>
<path opacity="0.21" d="M572.8 575.405C571.9 582.805 565.6 588.305 558.1 588.305H349.7C342.3 588.305 336 582.805 335 575.405L322.2 475.105C321.9 476.705 321.8 478.305 322 480.005L335 581.805C335.9 589.205 342.2 594.705 349.7 594.705H558.2C565.6 594.705 571.9 589.205 572.9 581.805L585.9 480.005C586.1 478.305 586 476.705 585.7 475.105L572.8 575.405Z" fill="#7E7E7E"/>
<path opacity="0.21" d="M322.1 480.907C323.3 474.107 329.3 468.707 336.6 468.707H571.1C578.5 468.707 584.4 474.007 585.6 480.907L585.7 479.907C586.8 471.107 579.9 463.207 571 463.207H336.7C327.8 463.207 320.9 471.007 322 479.907L322.1 480.907Z" fill="#7E7E7E"/>
<path d="M558.2 594.709H349.7C342.3 594.709 336 589.209 335 581.809L322 480.009C320.9 471.209 327.8 463.309 336.7 463.309H571.2C580.1 463.309 587 471.109 585.9 480.009L572.9 581.809C571.9 589.109 565.6 594.709 558.2 594.709Z" stroke="black" stroke-width="4" stroke-miterlimit="10" stroke-linecap="round" stroke-linejoin="round"/>
<path opacity="0.66" d="M463.8 522.805C459.3 522.805 455.7 519.206 455.7 514.706C455.7 514.406 455.7 514.105 455.8 513.805C455 513.705 454.2 513.605 453.4 513.605C446.1 513.605 440.1 519.606 440.1 526.906C440.1 534.206 446.1 540.206 453.4 540.206C460.7 540.206 466.7 534.206 466.7 526.906C466.7 525.406 466.4 523.905 466 522.505C465.3 522.605 464.6 522.805 463.8 522.805Z" fill="#B5B5B5"/>
<path d="M567 683.71C563.7 673.01 553.6 667.31 537.2 662.51C526.8 659.51 513.6 658.11 492.9 653.91C482.8 651.91 475.7 647.91 475.7 647.91V659.41C475.7 659.41 544.2 672.91 554.9 690.61C560.1 699.31 558.5 720.61 534 722.81C541.5 723.91 553.8 722.01 560.4 715.31C568.6 707.01 570.8 695.91 567 683.71Z" fill="#282323" stroke="black" stroke-width="4" stroke-miterlimit="10" stroke-linecap="round" stroke-linejoin="round"/>
<path d="M475.7 659.41C475.7 659.41 516.7 667.01 538.6 676.41C557.8 684.71 557.2 693.31 557.7 702.11C558 707.21 554.4 719.81 539.8 722.01C522.4 724.61 501.9 721.81 475.7 705.11C475.7 664.21 475.7 659.41 475.7 659.41Z" fill="#442C2A"/>
<path opacity="0.37" d="M557.7 702.111C557.3 695.011 557.6 688.011 547.6 681.211C548 683.711 548.1 686.111 548.2 688.611C548.5 693.711 544.9 706.311 530.3 708.511C515.1 710.811 497.4 708.911 475.7 697.211C475.7 699.711 475.7 702.311 475.7 705.011C501.9 721.711 522.4 724.411 539.8 721.911C554.5 719.811 558 707.111 557.7 702.111Z" fill="#442C2A"/>
<path d="M475.7 659.41C475.7 659.41 516.7 667.01 538.6 676.41C557.8 684.71 557.2 693.31 557.7 702.11C558 707.21 554.4 719.81 539.8 722.01C522.4 724.61 501.9 721.81 475.7 705.11C475.7 664.21 475.7 659.41 475.7 659.41Z" stroke="black" stroke-width="4" stroke-miterlimit="10" stroke-linecap="round" stroke-linejoin="round"/>
<path d="M513.7 682.91C517 684.71 516.2 702.21 508.2 704.61" stroke="black" stroke-width="4" stroke-miterlimit="10" stroke-linecap="round" stroke-linejoin="round"/>
<path d="M501.2 681.609C504.6 686.409 502.2 697.709 496.1 700.509" stroke="black" stroke-width="4" stroke-miterlimit="10" stroke-linecap="round" stroke-linejoin="round"/>
<path d="M489.7 677.609C493.1 682.409 490.7 693.709 484.6 696.509" stroke="black" stroke-width="4" stroke-miterlimit="10" stroke-linecap="round" stroke-linejoin="round"/>
<path d="M415.7 406.207V459.407" stroke="black" stroke-width="6" stroke-miterlimit="10" stroke-linecap="round" stroke-linejoin="round"/>
<path d="M483.2 406.207V443.707" stroke="black" stroke-width="6" stroke-miterlimit="10" stroke-linecap="round" stroke-linejoin="round"/>
<path d="M483.2 455.01C487.784 455.01 491.5 451.294 491.5 446.71C491.5 442.126 487.784 438.41 483.2 438.41C478.616 438.41 474.9 442.126 474.9 446.71C474.9 451.294 478.616 455.01 483.2 455.01Z" fill="black"/>
<path d="M483.2 449.109C485.078 449.109 486.6 447.586 486.6 445.709C486.6 443.831 485.078 442.309 483.2 442.309C481.322 442.309 479.8 443.831 479.8 445.709C479.8 447.586 481.322 449.109 483.2 449.109Z" fill="#7E7E7E"/>
<path d="M450.8 356.71C416 356.71 387.7 328.51 387.7 293.61V220.41H513.9V293.61C513.9 328.41 485.7 356.71 450.8 356.71Z" fill="#FFC897"/>
<path d="M450.8 348.01C416 348.01 387.7 319.81 387.7 284.91V293.61C387.7 328.41 415.9 356.71 450.8 356.71C485.6 356.71 513.9 328.51 513.9 293.61V284.91C513.9 319.71 485.7 348.01 450.8 348.01Z" fill="#E5A973"/>
<path d="M450.8 356.71C416 356.71 387.7 328.51 387.7 293.61V220.41H513.9V293.61C513.9 328.41 485.7 356.71 450.8 356.71Z" stroke="black" stroke-width="4" stroke-miterlimit="10" stroke-linecap="round" stroke-linejoin="round"/>
<path d="M514.4 227.71C514.2 224.31 514 220.81 513.9 217.41C471.9 219.41 429.7 219.11 387.8 215.41C387.5 219.31 387.3 223.21 387 227.11C388.9 228.81 390.9 230.61 392.8 232.31C394.4 233.11 396.5 234.21 398.4 235.21C406.8 239.61 418.5 245.21 429.7 247.41C433.8 248.21 438.1 248.61 442.5 248.51C461.4 248.31 477.3 240.81 484 237.71C485 237.21 485.8 236.81 486.3 236.71C486.7 236.51 487.1 236.41 487.7 236.41C488.9 236.41 490.3 236.71 492 237.01C494.2 237.51 496.8 238.01 499.7 237.81C503 237.61 506 236.61 508.9 234.71C510.6 232.31 512.5 230.01 514.4 227.71Z" fill="#E5A973"/>
<path d="M484 189.709C484 189.709 433.5 156.409 391.7 193.609C383.9 200.509 380.8 210.409 380.8 219.509V267.709H387.8V232.709C387.8 230.109 389.6 228.109 391.8 228.109C395.4 228.109 414.9 238.509 431.4 241.409C456.3 245.709 479 234.209 483.9 232.509C492.3 229.509 499.1 239.909 509.7 228.209H510.1C512.3 228.209 514.1 230.309 514.1 232.809V267.809H521.1V219.809C520.9 208.009 507.3 178.409 484 189.709Z" fill="#231A17"/>
<g opacity="0.34">
<path d="M387.7 261.109H380.7V267.709H387.7V261.109Z" fill="#231A17"/>
<path d="M520.9 261.109H513.9V267.709H520.9V261.109Z" fill="#231A17"/>
</g>
<path d="M484 189.709C484 189.709 433.5 156.409 391.7 193.609C383.9 200.509 380.8 210.409 380.8 219.509V267.709H387.8V232.709C387.8 230.109 389.6 228.109 391.8 228.109C395.4 228.109 414.9 238.509 431.4 241.409C456.3 245.709 479 234.209 483.9 232.509C492.3 229.509 499.1 239.909 509.7 228.209H510.1C512.3 228.209 514.1 230.309 514.1 232.809V267.809H521.1V219.809C520.9 208.009 507.3 178.409 484 189.709Z" stroke="black" stroke-width="4" stroke-miterlimit="10" stroke-linecap="round" stroke-linejoin="round"/>
<path d="M441.3 222.21C441.3 222.21 387.1 225.71 375.6 196.91" stroke="black" stroke-width="4" stroke-miterlimit="10" stroke-linecap="round" stroke-linejoin="round"/>
<path d="M449 215.307C449 215.307 396.8 212.007 383.2 183.207" stroke="black" stroke-width="4" stroke-miterlimit="10" stroke-linecap="round" stroke-linejoin="round"/>
<path d="M513.9 259.91V292.71C520.9 292.71 526.5 285.41 526.5 276.31C526.5 267.21 520.9 259.91 513.9 259.91Z" fill="#FFC897"/>
<path d="M513.9 261.707V290.807C518 288.107 520.8 282.607 520.8 276.207C520.8 269.907 518 264.407 513.9 261.707Z" fill="#E5A973"/>
<path d="M513.9 259.91V292.71C520.9 292.71 526.5 285.41 526.5 276.31C526.5 267.21 520.9 259.91 513.9 259.91Z" stroke="black" stroke-width="4" stroke-miterlimit="10" stroke-linecap="round" stroke-linejoin="round"/>
<path d="M387.8 259.91V292.71C380.8 292.71 375.2 285.41 375.2 276.31C375.1 267.21 380.8 259.91 387.8 259.91Z" fill="#FFC897"/>
<path d="M387.8 262.309C384.2 265.209 381.7 270.409 381.7 276.309C381.7 282.209 384.1 287.409 387.8 290.309V262.309Z" fill="#E5A973"/>
<path d="M387.8 259.91V292.71C380.8 292.71 375.2 285.41 375.2 276.31C375.1 267.21 380.8 259.91 387.8 259.91Z" stroke="black" stroke-width="4" stroke-miterlimit="10" stroke-linecap="round" stroke-linejoin="round"/>
<path d="M448.2 286.609L444 300.309C444 301.809 448.9 300.609 453.9 301.809" stroke="black" stroke-width="4" stroke-miterlimit="10" stroke-linecap="round" stroke-linejoin="round"/>
<path d="M471.8 312.207C473.3 322.607 459.9 331.807 449.4 329.907" stroke="black" stroke-width="3" stroke-miterlimit="10" stroke-linecap="round" stroke-linejoin="round"/>
<path d="M428.1 275.008C430.42 275.008 432.3 272.993 432.3 270.508C432.3 268.023 430.42 266.008 428.1 266.008C425.781 266.008 423.9 268.023 423.9 270.508C423.9 272.993 425.781 275.008 428.1 275.008Z" stroke="black" stroke-width="2" stroke-miterlimit="10" stroke-linecap="round" stroke-linejoin="round"/>
<path d="M428.1 275.008C430.42 275.008 432.3 272.993 432.3 270.508C432.3 268.023 430.42 266.008 428.1 266.008C425.781 266.008 423.9 268.023 423.9 270.508C423.9 272.993 425.781 275.008 428.1 275.008Z" fill="black"/>
<path d="M413.6 261.009C415.7 258.509 420.6 256.809 426.4 256.809C431 256.809 435 257.909 437.5 259.609" stroke="black" stroke-width="3" stroke-miterlimit="10" stroke-linecap="round" stroke-linejoin="round"/>
<path d="M474.1 275.008C476.42 275.008 478.3 272.993 478.3 270.508C478.3 268.023 476.42 266.008 474.1 266.008C471.78 266.008 469.9 268.023 469.9 270.508C469.9 272.993 471.78 275.008 474.1 275.008Z" stroke="black" stroke-width="2" stroke-miterlimit="10" stroke-linecap="round" stroke-linejoin="round"/>
<path d="M474.1 275.008C476.42 275.008 478.3 272.993 478.3 270.508C478.3 268.023 476.42 266.008 474.1 266.008C471.78 266.008 469.9 268.023 469.9 270.508C469.9 272.993 471.78 275.008 474.1 275.008Z" fill="black"/>
<path d="M488.6 261.009C486.5 258.509 481.6 256.809 475.8 256.809C471.2 256.809 467.2 257.909 464.7 259.609" stroke="black" stroke-width="3" stroke-miterlimit="10" stroke-linecap="round" stroke-linejoin="round"/>
</svg>
