<svg height="56" viewBox="0 0 457 56" fill="none" xmlns="http://www.w3.org/2000/svg">
<path d="M219.017 23.7224C219.263 17.4531 222.195 11.2757 226.856 6.79973C233.448 11.0677 237.763 18.5731 238.343 26.3891C238.805 32.6237 236.591 38.813 232.751 43.8557C232.028 44.8037 231.192 45.6664 230.327 46.5037C223.1 41.1104 218.661 32.9117 219.017 23.7224ZM276.833 41.1104C274.939 43.657 272.779 45.9224 270.279 47.9651C269.62 48.5024 266.176 50.4677 266.685 50.3357C265.148 50.9824 263.552 51.5024 261.941 51.9597C255.587 53.7664 248.752 53.6624 242.361 52.1157C238.212 51.1104 234.432 49.3784 231.165 47.1037C238.177 41.8264 243.043 34.4877 243.321 25.4917C243.599 16.5597 238.759 8.52771 231.495 4.14504C232.228 3.94904 232.972 3.78373 233.715 3.6344C237.097 2.9544 240.613 3.18773 243.955 3.93573C258.379 7.16373 264.999 25.0584 252.547 34.2797C254.015 33.1917 256.007 32.7064 257.487 31.613C264.14 26.6864 265.675 18.1624 262.285 11.0944C258.892 4.01573 250.268 0.502379 242.363 0.581046C238.251 0.621046 234.419 1.96906 230.824 3.76239C225.331 0.68106 218.553 -0.356276 211.579 1.79306C206.121 3.47439 199.881 7.11704 196.512 11.4437C191.625 17.7157 192.471 26.597 197.673 32.4077C198.311 33.121 199.096 33.7037 199.873 34.2797C200.455 34.709 204.297 31.2304 204.815 31.613C199.247 27.4877 197.235 20.7931 198.739 14.4237C199.431 11.4891 201.156 8.8704 203.288 6.66773C203.743 6.2224 204.221 5.79973 204.725 5.4024C204.952 5.21307 205.103 5.07707 205.209 4.9704C205.344 4.9264 205.505 4.86771 205.736 4.77838C207.493 4.07838 209.373 3.69439 211.253 3.42372C216.853 2.61972 221.937 3.83572 226.152 6.35572C225.833 6.54505 225.512 6.73439 225.197 6.92506C218.559 10.9651 214.931 18.3264 214.141 25.5024C213.028 35.6437 218.295 44.2411 226.367 49.6984C226.107 49.8584 225.843 50.0144 225.601 50.1557C222.627 51.4677 219.44 52.3411 216.211 52.8704C202.393 55.1371 188.421 49.0584 180.528 38.4437C180.412 38.2877 175.652 41.1984 175.587 41.1104C185.017 53.793 202.136 59.0344 217.757 53.9651C220.917 52.9384 223.963 51.593 226.793 49.9744C231.519 53.069 237.156 55.109 243.028 55.7744C256.476 57.301 271.503 50.3237 279.988 40.709C280.628 39.985 281.201 39.2117 281.772 38.4437C280.804 39.749 277.824 39.7744 276.833 41.1104" fill="#2BDA80"/>
<path d="M248.12 46.0258C261.603 39.1245 275.719 34.9578 291.191 35.0152C310.343 35.0845 328.703 41.2125 347.348 44.5592C367.527 48.1792 388.08 49.9312 408.627 49.3632C419.839 49.0539 431.016 47.9312 442.061 46.1218C444.816 45.6712 447.557 45.1472 450.291 44.6005C452.701 44.1192 451.339 44.7832 450.496 45.7938C449.903 46.5072 449.209 47.1418 448.523 47.7725C447.847 48.3952 447.083 48.9312 446.324 49.4632C448.251 48.1085 446.071 49.3605 445.467 49.5645C443.425 50.2499 441.256 50.5205 439.103 50.6192C425.267 51.2498 414.616 38.3765 420.891 26.3685C421.608 24.9952 422.635 23.8072 423.763 22.7165C424.775 21.9552 424.703 21.9178 423.547 22.6032C424.401 22.2738 425.316 22.1085 426.217 21.9432C429.681 21.3152 433.199 22.2832 436.125 23.9925C442.303 27.6005 442.429 36.1658 437.032 40.3538C438.468 39.2392 440.527 38.8085 441.972 37.6872C449.207 32.0752 445.653 22.4778 437.596 19.7405C431.397 17.6352 425.339 21.0485 420.361 24.1912C413.852 28.3018 412.679 36.9005 415.565 43.2339C418.769 50.2619 427.352 53.5952 435.087 53.2445C440.972 52.9752 446.517 49.8352 451.265 46.7965C452.848 45.7805 454.199 44.4858 455.437 43.1272C456.328 42.1525 457.604 41.4472 455.232 41.9339C453.861 42.2179 452.485 42.4752 451.109 42.7339C445.265 43.8299 439.368 44.6578 433.451 45.3218C412.293 47.6925 390.841 47.1165 369.739 44.5325C358.675 43.1819 347.705 41.1898 336.844 38.8112C325.351 36.2912 314.073 33.4365 302.249 32.5845C284.328 31.2938 267.972 35.7179 252.369 43.6992C251.229 44.2832 250.108 44.9005 248.985 45.5152C248.855 45.5845 247.195 46.4965 248.12 46.0258" fill="#2BDA80"/>
<path d="M209.448 43.5296C197.655 37.4963 185.311 33.2749 171.805 32.4749C154.383 31.4443 137.785 36.2069 120.996 39.7416C83.0546 47.7283 43.6973 49.5123 5.55462 41.6523C4.95329 41.5296 0.786615 44.5483 0.613281 44.3189C6.88261 52.5976 18.2679 55.5349 28.1413 51.2563C36.0399 47.8349 42.9173 42.695 43.232 33.9363C43.5813 24.239 32.6906 15.4976 22.7039 20.4536C19.3799 22.1043 15.7079 23.7309 13.3493 26.5469C9.82128 30.7523 11.0226 37.0749 15.2506 40.3563C15.7893 40.7749 19.7159 37.3189 20.1919 37.6896C17.0186 35.2283 15.8293 31.6816 16.4333 27.9203C16.7199 26.1429 17.7213 24.5576 18.8853 23.1683C19.7293 22.1643 21.8293 21.4283 18.7333 22.7136C19.8853 22.2349 21.1386 22.0256 22.3746 21.8589C31.2693 20.6656 37.6813 28.1443 38.2719 35.7443C38.5413 39.1989 37.3159 42.6083 35.3666 45.4936C34.3493 47.0016 32.9506 48.2389 31.4799 49.3456C33.0519 48.1629 30.9573 49.4309 30.4279 49.6083C29.2466 50.0043 28.0066 50.2229 26.7719 50.4189C18.5146 51.7176 10.2826 47.8949 5.55462 41.6523C3.90662 42.5429 2.25861 43.4309 0.613281 44.3189C38.8253 52.1949 78.0439 50.2989 116.053 42.4083C132.944 38.9029 149.36 34.2963 166.864 35.1416C180.323 35.7963 192.795 40.2043 204.509 46.1963C205.405 46.6576 208.616 43.103 209.448 43.5296" fill="#2BDA80"/>
</svg>
