<svg width="429" height="220" viewBox="0 0 429 220" fill="none" xmlns="http://www.w3.org/2000/svg">
<g clip-path="url(#clip0_514_2)">
<path d="M311.573 135.999C311.304 136.012 311.036 135.941 310.808 135.796C310.58 135.652 310.401 135.441 310.297 135.192C310.193 134.943 310.168 134.668 310.225 134.404C310.283 134.14 310.42 133.901 310.618 133.717L310.709 133.359C310.697 133.33 310.685 133.301 310.673 133.273C310.401 132.631 309.945 132.084 309.363 131.7C308.781 131.317 308.098 131.113 307.401 131.116C306.703 131.118 306.022 131.327 305.443 131.715C304.863 132.103 304.412 132.653 304.145 133.297C303.077 135.866 301.718 138.439 301.383 141.155C301.236 142.355 301.298 143.572 301.567 144.752C299.059 139.287 297.757 133.348 297.749 127.337C297.748 125.828 297.832 124.321 298 122.822C298.139 121.593 298.331 120.373 298.577 119.161C299.922 112.588 302.807 106.427 306.998 101.185C309.026 100.079 310.666 98.3792 311.698 96.3139C312.071 95.5714 312.335 94.7789 312.481 93.9609C312.253 93.9909 311.619 90.5101 311.791 90.2966C311.473 89.8133 310.902 89.573 310.554 89.1014C308.822 86.7558 306.436 87.1654 305.19 90.3528C302.529 91.6944 302.503 93.9192 304.136 96.0591C305.175 97.4204 305.318 99.2625 306.229 100.72C306.135 100.84 306.038 100.956 305.944 101.076C304.23 103.278 302.736 105.642 301.483 108.135C301.788 105.342 301.424 102.517 300.423 99.892C299.408 97.4456 297.505 95.3852 295.829 93.2702C293.816 90.7299 289.689 91.8385 289.334 95.0589C289.331 95.09 289.328 95.1212 289.324 95.1524C289.573 95.2926 289.817 95.4415 290.055 95.599C290.355 95.7989 290.587 96.0844 290.721 96.4183C290.855 96.7521 290.885 97.1187 290.807 97.47C290.73 97.8212 290.547 98.1408 290.284 98.3868C290.022 98.6328 289.69 98.7937 289.335 98.8485L289.298 98.8541C289.387 99.7502 289.543 100.638 289.767 101.511C287.617 109.815 292.258 112.84 298.885 112.976C299.031 113.051 299.174 113.125 299.32 113.197C298.062 116.759 297.273 120.469 296.972 124.235C296.802 126.456 296.812 128.688 297.002 130.908L296.991 130.829C296.511 128.36 295.193 126.133 293.259 124.523C290.387 122.166 286.329 121.299 283.231 119.404C282.902 119.193 282.519 119.08 282.127 119.079C281.736 119.078 281.353 119.189 281.022 119.399C280.692 119.608 280.429 119.908 280.263 120.262C280.098 120.616 280.037 121.011 280.089 121.398C280.093 121.426 280.097 121.453 280.101 121.481C280.563 121.669 281.013 121.885 281.448 122.129C281.697 122.269 281.94 122.418 282.179 122.576C282.478 122.775 282.71 123.061 282.844 123.395C282.979 123.729 283.009 124.095 282.931 124.447C282.853 124.798 282.671 125.117 282.408 125.363C282.145 125.609 281.814 125.77 281.458 125.825L281.421 125.831C281.395 125.834 281.373 125.838 281.346 125.842C282.136 127.724 283.243 129.457 284.621 130.964C285.965 138.213 291.738 138.901 297.914 136.79H297.917C298.595 139.731 299.577 142.594 300.847 145.332H311.311C311.349 145.216 311.383 145.096 311.416 144.98C310.448 145.041 309.475 144.983 308.521 144.808C309.297 143.856 310.074 142.897 310.85 141.945C310.867 141.928 310.884 141.909 310.899 141.889C311.293 141.402 311.69 140.919 312.084 140.432L312.084 140.431C312.105 138.938 311.934 137.449 311.574 135.999L311.573 135.999Z" fill="#F2F2F2"/>
<path d="M342.913 163.086H261.354C255.798 163.086 250.469 165.291 246.541 169.215C242.612 173.139 240.405 178.462 240.405 184.012V218.887H246.977V199.643C246.977 194.093 249.184 188.77 253.113 184.846C257.041 180.922 262.37 178.717 267.925 178.717H336.342C341.897 178.717 347.226 180.922 351.154 184.846C355.083 188.77 357.29 194.093 357.29 199.643V218.887H363.862V184.012C363.862 178.462 361.655 173.139 357.726 169.215C353.797 165.291 348.469 163.086 342.913 163.086Z" fill="#F2F2F2"/>
<path d="M302.603 171.994C314.399 171.994 323.961 170.63 323.961 168.946C323.961 167.263 314.399 165.898 302.603 165.898C290.807 165.898 281.245 167.263 281.245 168.946C281.245 170.63 290.807 171.994 302.603 171.994Z" fill="#E6E6E6"/>
<path d="M318.749 169.711H290.301C283.278 162.988 278.257 156.509 282.277 151.13C282.277 149.584 282.891 148.101 283.986 147.008C285.08 145.915 286.565 145.301 288.112 145.301H320.938C322.485 145.301 323.97 145.915 325.064 147.008C326.158 148.101 326.773 149.584 326.773 151.13C328.304 157.259 325.569 163.453 318.749 169.711Z" fill="#F2F2F2"/>
<path d="M224.425 69.2726C190.483 50.0377 203.47 0.506708 166.184 16.2855C117.768 4.76782 145.288 52.8764 102.31 69.2726C100.342 69.2726 98.3931 69.6599 96.5747 70.4123C94.7563 71.1647 93.104 72.2675 91.7123 73.6577C90.3205 75.048 89.2165 76.6985 88.4633 78.5149C87.7101 80.3314 87.3224 82.2782 87.3224 84.2443V84.2444C87.3224 86.2548 87.7278 88.2446 88.5143 90.0952C89.3008 91.9457 90.4523 93.6191 91.9002 95.0155C93.3481 96.4118 95.0627 97.5026 96.9417 98.2227C98.8207 98.9428 100.826 99.2776 102.837 99.2069L108.446 99.0098V146.174H218.289V99.0098L223.898 99.2069C225.91 99.2776 227.915 98.9429 229.794 98.2227C231.673 97.5026 233.387 96.4119 234.835 95.0155C236.283 93.6191 237.435 91.9457 238.221 90.0952C239.008 88.2446 239.413 86.2548 239.413 84.2444V84.2444C239.413 82.2782 239.025 80.3314 238.272 78.5149C237.519 76.6985 236.415 75.048 235.023 73.6577C233.631 72.2675 231.979 71.1647 230.161 70.4123C228.342 69.6599 226.393 69.2726 224.425 69.2726V69.2726Z" fill="#E6E6E6"/>
<path d="M213.946 168.215H111.381C110.229 168.215 109.124 168.672 108.31 169.486C107.495 170.299 107.038 171.403 107.038 172.553V178.882C107.038 180.032 107.495 181.136 108.31 181.949C109.124 182.763 110.229 183.22 111.381 183.22H119.243V219.795H124.876V183.22H198.104V219.795H203.737V183.22H213.946C215.098 183.22 216.203 182.763 217.017 181.949C217.832 181.136 218.289 180.032 218.289 178.882V172.553C218.289 171.403 217.832 170.299 217.017 169.486C216.203 168.672 215.098 168.215 213.946 168.215V168.215Z" fill="#E6E6E6"/>
<path d="M235.07 157.897H231.926C232.835 156.33 233.313 154.551 233.311 152.739V92.7184C233.311 89.9824 232.222 87.3585 230.286 85.4238C228.349 83.4892 225.722 82.4023 222.983 82.4023C220.244 82.4023 217.618 83.4892 215.681 85.4238C213.744 87.3585 212.656 89.9824 212.656 92.7184V142.327C135.346 131.48 185.728 131.589 115.957 142.672V92.7184C115.957 89.9824 114.869 87.3585 112.932 85.4238C110.995 83.4892 108.369 82.4023 105.63 82.4023C102.891 82.4023 100.264 83.4892 98.3273 85.4238C96.3905 87.3585 95.3025 89.9824 95.3025 92.7184V152.739C95.3005 154.551 95.7783 156.33 96.6875 157.897H90.2572C89.1054 157.897 88.0007 158.354 87.1862 159.168C86.3717 159.982 85.9142 161.085 85.9142 162.236V168.564C85.9142 169.715 86.3717 170.818 87.1862 171.632C88.0007 172.445 89.1054 172.903 90.2572 172.903H235.07C236.222 172.903 237.326 172.445 238.141 171.632C238.955 170.818 239.413 169.715 239.413 168.564V162.236C239.413 161.085 238.955 159.982 238.141 159.168C237.326 158.354 236.222 157.897 235.07 157.897Z" fill="#F2F2F2"/>
<path d="M89.2228 96.5983C91.0471 96.7645 92.8643 96.2131 94.2878 95.0613C95.7113 93.9096 96.6287 92.2484 96.8448 90.4313C96.8829 90.0613 96.8903 89.6887 96.8669 89.3174L139.87 68.064L129.423 55.5938L89.0733 83.0785C87.5397 83.2947 86.1209 84.012 85.0383 85.1184C83.9557 86.2249 83.2703 87.6582 83.0889 89.1947C82.8974 90.9624 83.4168 92.7337 84.5327 94.1189C85.6486 95.5041 87.2697 96.3897 89.0393 96.581C89.1004 96.5876 89.1615 96.5934 89.2228 96.5983Z" fill="#FFB6B6"/>
<path d="M183.719 58.0272C183.719 58.0272 187.895 49.7499 174.855 46.7463C161.815 43.7428 137.741 53.8567 136.516 55.012C135.291 56.1672 136.882 54.5981 133.008 53.9964C131.148 53.7075 127.435 50.5636 126.672 53.2091C125.91 55.8546 126.121 59.0317 123.889 56.4599C121.658 53.8881 130.45 78.4488 130.45 78.4488C130.45 78.4488 131.585 78.2667 135.607 76.1366C137.866 74.9401 137.89 69.9725 139.401 71.3621C140.913 72.7518 154.35 72.5157 155.105 72.3326C155.86 72.1494 159.246 65.9222 159.246 65.9222L183.719 58.0272Z" fill="#2F2E41"/>
<path d="M113.838 212.062L106.679 210.571L109.028 182.277L119.594 184.477L113.838 212.062Z" fill="#FFB6B6"/>
<path d="M112.534 219.575L90.5182 214.991L90.5763 214.713C91.05 212.443 92.407 210.454 94.3489 209.183C96.2908 207.912 98.6584 207.464 100.931 207.937L100.932 207.937L105.589 205.727L112.456 210.337L114.378 210.737L112.534 219.575Z" fill="#2F2E41"/>
<path d="M237.104 179.268L244.23 177.624L241.272 149.387L230.756 151.813L237.104 179.268Z" fill="#FFB6B6"/>
<path d="M238.57 186.752L260.482 181.697L260.418 181.42C259.895 179.16 258.496 177.201 256.527 175.972C254.558 174.743 252.181 174.346 249.919 174.868L249.919 174.868L245.215 172.758L238.449 177.514L236.536 177.955L238.57 186.752Z" fill="#2F2E41"/>
<path d="M153.041 114.287L151.812 128.175C151.812 128.175 111.903 115.372 111.417 145.488C111.263 155.082 107.038 192.127 107.038 192.127L119.243 194.002C119.243 194.002 125.815 184.155 125.815 180.873C125.815 177.59 132.386 153.676 132.386 153.676L166.638 150.311C202.799 148.049 214.065 147.111 222.045 121.321C222.045 121.321 226.91 155.826 229.641 158.502C232.372 161.178 234.393 158.518 231.035 161.958C227.678 165.399 225.33 163.992 227.678 165.399C230.025 166.805 244.107 164.461 244.107 164.461C247.252 164.813 243.219 114.534 232.679 99.6954C223.274 86.4546 190.824 128.063 190.824 128.063L153.041 114.287Z" fill="#2F2E41"/>
<path d="M195.328 55.2132C195.328 55.2132 207.526 53.8301 210.125 59.67C212.723 65.5099 219.271 77.67 219.271 77.67C219.271 77.67 215.913 79.0989 219.342 75.3865C220.879 73.7229 218.043 74.7377 219.992 74.0888C221.941 73.4399 222.59 74.0888 222.59 74.0888L229.086 85.1197C229.086 85.1197 228.563 87.6335 225.188 87.7152C221.813 87.797 227.137 84.4708 222.59 89.013C220.242 91.3583 211.717 94.5934 211.717 94.5934L189.926 74.5887L195.328 55.2132Z" fill="#2F2E41"/>
<path d="M156.859 49.2887L169.189 46.0972L174.944 38.168L188.612 39.8464L191.521 50.662L201.252 56.3041C201.252 56.3041 195.874 113.127 197.153 116.248C198.432 119.368 195.328 121.978 191.411 126C187.493 130.022 194.665 125.534 195.574 129.913C196.483 134.292 203.11 138.926 195.574 138.88C188.039 138.834 146.59 140.924 147.889 135.733C149.188 130.542 145.147 129.121 147.106 125.867C149.065 122.612 150.383 124.431 149.724 119.628C149.065 114.825 149.714 111.581 149.714 108.986C149.714 106.39 151.891 82.8042 151.891 82.8042L156.859 49.2887Z" fill="#2BDA80"/>
<path d="M201.154 138.976C203.506 143.168 190.261 144.401 175.912 143.836C175.634 142.775 175.175 141.769 174.554 140.864C172.969 138.567 174.885 123.026 172.573 121.456C173.619 123.987 169.39 140.806 168.507 143.395C155.528 142.357 143.699 140.001 143.842 137.198C143.881 136.38 146.59 120.807 147.902 119.626C149.208 118.445 147.889 96.1499 147.902 91.3677C147.909 86.579 155.034 51.3773 155.034 50.0795C155.034 48.7818 171.923 42.293 171.923 42.293L179.069 83.1723L189.929 44.7328C190.991 46.1751 192.219 47.4883 193.587 48.6455C195.763 50.4558 204.402 57.8661 204.402 57.8661L197.003 112.554C197.003 112.554 200.505 120.807 200.323 124.084C200.252 126.684 199.74 129.253 198.809 131.682C197.757 134.765 197.867 133.11 201.154 138.976Z" fill="#2F2E41"/>
<path d="M212.776 25.9786C214.129 27.2116 214.948 28.9236 215.057 30.7502C215.166 32.5769 214.557 34.374 213.361 35.7592C213.113 36.037 212.842 36.2938 212.552 36.527L225.859 82.5746L209.596 83.284L202.684 34.9892C201.81 33.7125 201.382 32.1824 201.47 30.6377C201.557 29.093 202.154 27.6206 203.167 26.4503C203.749 25.7899 204.457 25.2507 205.248 24.8633C206.04 24.476 206.9 24.2482 207.779 24.1929C208.659 24.1376 209.541 24.256 210.375 24.5411C211.209 24.8263 211.978 25.2727 212.639 25.8549C212.685 25.8955 212.731 25.9367 212.776 25.9786Z" fill="#FFB6B6"/>
<path d="M207.035 79.3534C207.554 78.9402 223.738 73.6914 223.738 73.6914C223.738 73.6914 230.612 83.9067 226.458 87.2123C222.304 90.5179 213.231 91.3797 213.231 91.3797C213.231 91.3797 209.418 89.237 209.508 86.7117C209.597 84.1864 207.035 79.3534 207.035 79.3534Z" fill="#2F2E41"/>
<path d="M197.02 32.0199L198.78 19.0778C199.024 17.2832 200.251 16.1048 201.515 16.451L204.66 17.312C205.925 17.6583 206.755 19.4001 206.511 21.1946L204.752 34.1368C204.508 35.9314 203.281 37.1098 202.016 36.7636L198.871 35.9025C197.607 35.5563 196.776 33.8145 197.02 32.0199Z" fill="#3F3D56"/>
<path d="M197.892 31.268L199.685 19.4292C199.934 17.7876 200.828 16.7457 201.679 17.1066L203.796 18.0044C204.647 18.3653 205.137 19.9946 204.889 21.6362L203.096 33.4751C202.847 35.1167 201.952 36.1586 201.101 35.7977L198.985 34.8999C198.134 34.539 197.643 32.9096 197.892 31.268Z" fill="#2BDA80"/>
<path d="M164.44 18.9734C165.663 28.8285 172.499 36.9542 182.44 36.9542C184.804 36.9542 187.145 36.4891 189.329 35.5855C191.513 34.6819 193.497 33.3574 195.168 31.6878C196.84 30.0181 198.166 28.0359 199.07 25.8544C199.975 23.6728 200.44 21.3347 200.44 18.9734C200.44 9.0429 192.339 1.91075 182.44 0.99263C171.937 0.0184452 162.87 6.32069 164.44 18.9734Z" fill="#2F2E41"/>
<path d="M184.43 38.022C193.246 38.022 200.392 30.8834 200.392 22.0774C200.392 13.2715 193.246 6.13281 184.43 6.13281C175.615 6.13281 168.468 13.2715 168.468 22.0774C168.468 30.8834 175.615 38.022 184.43 38.022Z" fill="#FFB6B6"/>
<path d="M167.902 23.8141C168.407 27.2788 171.363 32.1129 170.671 32.1129C169.979 32.1129 165.057 17.8297 169.979 16.8984C173.549 16.2228 174.347 16.8154 177.684 15.37L177.214 15.8126C179.422 17.417 182.496 16.4281 185.016 15.3838C187.543 14.3465 190.61 13.3575 192.825 14.9551C194.217 15.9578 194.805 17.7006 195.67 19.1805C196.536 20.6674 198.135 22.0713 199.783 21.6149C201.105 21.2483 201.867 19.7683 201.86 18.3991C201.853 17.0298 200.068 15.7271 200.669 14.4986C202.45 10.8579 200.848 8.37631 196.965 6.66315C195.553 6.44877 194.14 6.22977 192.728 6.00616C193.468 4.98219 194.365 4.08129 195.387 3.33671C194.86 2.26475 194.258 1.1859 193.24 0.591156C192.112 -0.0796428 190.714 -0.0312652 189.405 0.0379136C186.484 0.190038 183.564 0.342174 180.647 0.494327C178.487 0.60499 176.251 0.7364 174.32 1.72534C171.91 2.96323 170.332 5.3768 169.183 7.83191C166.607 13.3506 167.016 17.7905 167.902 23.8141Z" fill="#2F2E41"/>
<path d="M2.47253e-06 219.441C-0.000216311 219.514 0.0140863 219.587 0.0420834 219.655C0.0700804 219.722 0.111222 219.784 0.16314 219.836C0.215059 219.888 0.276725 219.929 0.3446 219.957C0.412476 219.985 0.485222 219.999 0.558643 219.999H427.862C428.011 219.999 428.153 219.94 428.257 219.835C428.362 219.731 428.421 219.589 428.421 219.441C428.421 219.293 428.362 219.151 428.257 219.046C428.153 218.942 428.011 218.883 427.862 218.883H0.558643C0.485223 218.883 0.412482 218.897 0.344607 218.925C0.276733 218.953 0.215058 218.994 0.16314 219.046C0.111222 219.098 0.0700811 219.159 0.0420834 219.227C0.0140857 219.295 -0.000214441 219.367 2.47253e-06 219.441V219.441Z" fill="#CCCCCC"/>
</g>
<defs>
<clipPath id="clip0_514_2">
<rect width="428.421" height="220" fill="white"/>
</clipPath>
</defs>
</svg>
