<svg width="27" height="27" viewBox="0 0 27 27" fill="none" xmlns="http://www.w3.org/2000/svg">
<path d="M13.2639 0.839844C6.09592 0.839844 0.263916 6.67184 0.263916 13.8398C0.263916 21.0078 6.09592 26.8398 13.2639 26.8398C20.4319 26.8398 26.2639 21.0078 26.2639 13.8398C26.2639 6.67184 20.4319 0.839844 13.2639 0.839844ZM13.2639 2.83984C19.3499 2.83984 24.2639 7.75384 24.2639 13.8398C24.2639 19.9258 19.3499 24.8398 13.2639 24.8398C7.17792 24.8398 2.26392 19.9258 2.26392 13.8398C2.26392 7.75384 7.17792 2.83984 13.2639 2.83984ZM13.1699 7.83984C9.84592 7.83984 7.16992 10.5158 7.16992 13.8398C7.16992 17.1638 9.84592 19.8398 13.1699 19.8398C15.5689 19.8398 17.6199 18.4018 18.5759 16.3708L16.7639 15.5278C16.1189 16.8978 14.7719 17.8398 13.1699 17.8398C10.8929 17.8398 9.16992 16.1168 9.16992 13.8398C9.16992 11.5628 10.8929 9.83984 13.1699 9.83984C14.7719 9.83984 16.1199 10.7808 16.7639 12.1528L18.5769 11.3088C17.6189 9.27784 15.5689 7.83984 13.1689 7.83984H13.1699Z" fill="#F8F8F8"/>
</svg>
