<svg height="82" viewBox="0 0 361 82" fill="none" xmlns="http://www.w3.org/2000/svg">
<path d="M84.7371 13.6016C84.6037 14.0016 84.0371 14.2016 83.0371 14.2016C82.3037 14.2016 81.3037 14.1016 80.0371 13.9016C76.5037 14.5682 72.0704 17.4682 66.7371 22.6016C67.8704 21.9349 68.9037 21.4016 69.8371 21.0016C70.7704 20.6016 71.6037 20.3016 72.3371 20.1016C75.2037 19.2349 77.7037 19.1349 79.8371 19.8016C81.5037 20.2682 82.3371 21.2016 82.3371 22.6016C82.3371 23.0682 82.1704 23.7016 81.8371 24.5016C80.0371 28.5016 74.6371 31.3016 65.6371 32.9016C72.5704 33.6349 76.0371 36.0682 76.0371 40.2016C76.0371 45.2682 72.5371 49.8349 65.5371 53.9016C60.3371 56.8349 54.6037 58.9682 48.3371 60.3016C44.0704 61.1682 40.1371 61.4682 36.5371 61.2016C34.2704 61.0016 31.9371 60.4349 29.5371 59.5016C27.2037 60.8349 25.0371 61.5016 23.0371 61.5016C22.4371 61.5016 21.9704 61.4682 21.6371 61.4016H21.7371C20.8037 61.3349 19.8704 61.2016 18.9371 61.0016C18.0704 60.7349 17.1704 60.4349 16.2371 60.1016C16.5704 60.1682 17.0371 60.2016 17.6371 60.2016C20.0371 60.2016 22.6704 59.2682 25.5371 57.4016C25.4704 57.4016 25.4371 57.3682 25.4371 57.3016C24.5037 57.6349 23.5704 57.9349 22.6371 58.2016C21.7037 58.4016 20.7704 58.5682 19.8371 58.7016C17.9037 59.0349 15.4704 58.9349 12.5371 58.4016C10.6704 58.1349 8.73706 57.3349 6.73706 56.0016C6.80373 56.0016 6.87039 56.0349 6.93706 56.1016C2.93706 53.1682 1.00373 49.0349 1.13706 43.7016C1.20373 40.8349 1.90373 37.9016 3.23706 34.9016C6.10373 28.5016 10.6371 23.3349 16.8371 19.4016C21.1704 16.6016 25.4037 15.0349 29.5371 14.7016C33.1371 14.3682 35.8704 15.1016 37.7371 16.9016L37.3371 17.2016C36.1371 16.2016 34.4037 15.7016 32.1371 15.7016C30.2704 15.7016 27.7371 16.2682 24.5371 17.4016C21.3371 18.5349 19.1037 19.7349 17.8371 21.0016C14.1037 23.0016 10.5037 26.3349 7.03706 31.0016C3.57039 35.6682 1.83706 40.2682 1.83706 44.8016C1.83706 47.5349 2.63706 50.1016 4.23706 52.5016C5.77039 54.9016 7.83706 56.4682 10.4371 57.2016C12.0371 57.6682 13.6704 57.9016 15.3371 57.9016C18.0037 57.9016 20.8037 57.3016 23.7371 56.1016C19.2704 52.5682 17.1037 48.3016 17.2371 43.3016C17.4371 38.3016 20.4704 34.0682 26.3371 30.6016L25.1371 31.7016C23.8704 32.7682 23.0704 33.5016 22.7371 33.9016C20.5371 36.3016 19.4371 38.8349 19.4371 41.5016C19.4371 46.5682 22.2371 50.7349 27.8371 54.0016C30.8371 52.2682 32.3704 51.2016 32.4371 50.8016C33.5704 49.6682 34.5037 48.7016 35.2371 47.9016C36.0371 47.0349 36.6704 46.2682 37.1371 45.6016C38.3371 44.0016 39.2704 41.8682 39.9371 39.2016V39.4016C40.0704 39.8016 40.1371 40.0682 40.1371 40.2016C40.2037 40.8016 40.1704 41.4682 40.0371 42.2016C39.9037 42.8682 39.7037 43.6016 39.4371 44.4016C40.5037 43.1349 41.6037 41.8349 42.7371 40.5016C43.9371 39.1016 45.2037 37.6682 46.5371 36.2016C58.2037 22.9349 67.9704 15.1682 75.8371 12.9016C72.6371 12.0349 69.9037 11.6016 67.6371 11.6016C61.5037 11.7349 55.7037 13.6349 50.2371 17.3016C44.2371 21.4349 41.2371 25.3349 41.2371 29.0016C41.2371 30.4682 41.8371 31.8016 43.0371 33.0016C43.5037 33.4682 43.7037 33.7349 43.6371 33.8016C41.2371 32.4016 40.0371 30.6016 40.0371 28.4016C40.0371 24.3349 42.7037 20.2349 48.0371 16.1016C53.9037 11.5016 60.3704 9.46823 67.4371 10.0016C68.3037 10.0682 69.5704 10.3349 71.2371 10.8016C72.9704 11.2016 75.1371 11.7682 77.7371 12.5016C78.8704 12.2349 80.0704 12.2016 81.3371 12.4016C82.6037 12.6016 83.6371 12.9349 84.4371 13.4016H84.7371V13.6016ZM77.3371 23.7016C77.3371 22.2349 76.5037 21.5016 74.8371 21.5016C72.9704 21.5016 69.7037 22.4016 65.0371 24.2016C62.3704 26.8016 60.2704 28.8682 58.7371 30.4016C57.2037 31.8682 56.2704 32.8016 55.9371 33.2016L65.6371 31.9016C66.5704 31.7682 67.6371 31.4682 68.8371 31.0016C70.0371 30.5349 71.3037 29.8682 72.6371 29.0016C75.7704 27.0682 77.3371 25.3016 77.3371 23.7016ZM70.7371 41.1016C70.7371 37.4349 68.0371 35.1016 62.6371 34.1016C60.8371 33.7682 58.5037 33.5682 55.6371 33.5016L51.9371 37.5016L43.3371 47.4016C41.6704 49.2682 40.0704 50.9682 38.5371 52.5016C37.0037 54.0349 35.4704 55.3682 33.9371 56.5016C36.4037 57.3016 39.1371 57.8016 42.1371 58.0016C44.4037 58.2016 46.9037 58.1016 49.6371 57.7016C55.4371 56.9016 59.8037 55.3682 62.7371 53.1016C68.0704 49.1016 70.7371 45.1016 70.7371 41.1016ZM97.1332 24.2016C97.1332 25.2016 96.1332 27.2349 94.1332 30.3016C92.9332 32.1682 91.7332 34.0349 90.5332 35.9016C89.3332 37.7016 88.0998 39.5016 86.8332 41.3016C86.7665 41.3682 86.6665 41.6016 86.5332 42.0016C89.2665 39.7349 91.6998 38.7682 93.8332 39.1016C95.2998 39.3682 96.0332 40.3682 96.0332 42.1016C96.0332 46.9016 92.1665 52.8682 84.4332 60.0016C82.5665 61.7349 81.0998 63.1349 80.0332 64.2016C78.9665 65.2016 78.2665 65.8682 77.9332 66.2016C75.3998 69.0682 73.9332 71.5682 73.5332 73.7016C73.7332 69.3682 76.1665 64.4682 80.8332 59.0016C80.9665 58.8682 81.0665 58.7016 81.1332 58.5016C81.2665 58.3016 81.3998 58.1349 81.5332 58.0016C83.3998 55.8016 85.8998 52.7016 89.0332 48.7016C89.6998 47.6349 90.0665 46.8349 90.1332 46.3016C90.2665 47.5016 89.9332 48.8349 89.1332 50.3016L89.2332 50.2016C90.6998 48.3349 91.7998 46.4016 92.5332 44.4016C92.8665 43.4016 93.0332 42.6016 93.0332 42.0016C93.0332 40.8016 92.2998 40.3016 90.8332 40.5016C89.5665 40.7016 87.8332 42.0349 85.6332 44.5016V44.7016C80.8998 50.7016 77.7665 56.1016 76.2332 60.9016C76.1665 60.5682 76.1332 60.3349 76.1332 60.2016C76.1332 60.0016 76.1332 59.8349 76.1332 59.7016C76.1998 58.3682 76.7665 56.4016 77.8332 53.8016L76.8332 55.0016C74.2998 57.9349 72.7332 59.4016 72.1332 59.4016C71.2665 59.4016 70.4332 58.9016 69.6332 57.9016C71.0998 57.2349 73.3665 54.8016 76.4332 50.6016C79.4332 46.5349 82.2332 42.5349 84.8332 38.6016C87.4998 34.6016 89.9998 30.6349 92.3332 26.7016C93.0665 25.4349 93.6665 24.3349 94.1332 23.4016C94.5998 22.4682 94.9665 21.6349 95.2332 20.9016C96.4998 21.7016 97.1332 22.8016 97.1332 24.2016ZM120.975 50.8016C120.442 52.8016 118.909 54.7682 116.375 56.7016C113.775 58.7016 111.542 59.5682 109.675 59.3016C107.809 59.0349 106.775 57.8349 106.575 55.7016C106.575 55.2349 106.609 54.9016 106.675 54.7016V54.3016C104.142 57.0349 101.709 58.6349 99.3753 59.1016C98.042 59.4349 96.9753 59.3682 96.1753 58.9016C95.3753 58.3682 94.9753 57.4349 94.9753 56.1016C95.1087 52.3682 97.142 48.3682 101.075 44.1016C104.275 40.6349 107.375 39.0349 110.375 39.3016C112.575 39.5016 113.675 40.4682 113.675 42.2016C113.675 42.7349 113.575 43.2349 113.375 43.7016L114.575 42.4016C115.842 41.0016 116.442 39.7682 116.375 38.7016C117.509 39.4349 118.075 40.3682 118.075 41.5016C118.075 42.4349 117.109 44.0682 115.175 46.4016C111.309 50.8682 109.375 54.3016 109.375 56.7016C109.375 57.9682 109.909 58.6016 110.975 58.6016C111.709 58.6016 112.375 58.4682 112.975 58.2016C114.175 57.8016 116.009 56.0682 118.475 53.0016C118.609 52.8016 118.875 52.5349 119.275 52.2016C119.742 51.8016 120.309 51.3349 120.975 50.8016ZM112.175 43.4016C112.775 41.6016 112.375 40.7016 110.975 40.7016C108.309 40.7016 105.009 43.5682 101.075 49.3016C98.942 52.5016 98.0087 55.0016 98.2753 56.8016C98.4087 57.5349 98.9087 57.9016 99.7753 57.9016C101.175 57.9016 103.242 56.4016 105.975 53.4016C106.309 53.0682 106.575 52.7682 106.775 52.5016C107.042 52.1682 107.242 51.8349 107.375 51.5016C109.175 48.4349 110.075 45.4349 110.075 42.5016L110.175 42.6016C110.442 43.3349 110.642 44.1349 110.775 45.0016C110.775 45.2016 110.775 45.4682 110.775 45.8016C110.775 46.0682 110.742 46.4016 110.675 46.8016C111.409 45.6016 111.909 44.4682 112.175 43.4016ZM134.16 46.3016C134.226 47.1016 133.826 48.1016 132.96 49.3016C132.026 50.3682 130.86 51.7016 129.46 53.3016C128.126 54.9016 126.593 56.8016 124.86 59.0016C124.793 59.2682 124.826 59.4682 124.96 59.6016C125.026 59.6682 125.093 59.7016 125.16 59.7016C124.96 59.6349 125.226 59.6016 125.96 59.6016C125.093 60.2682 124.393 60.6016 123.86 60.6016C122.193 60.5349 121.36 60.1016 121.36 59.3016C121.426 57.7682 123.026 55.3349 126.16 52.0016L128.66 49.2016C129.793 47.7349 130.46 46.6349 130.66 45.9016C130.86 44.4349 130.26 43.1349 128.86 42.0016C124.526 48.4682 120.526 52.6349 116.86 54.5016C115.793 55.1016 114.793 55.3349 113.86 55.2016L112.86 54.9016C114.526 54.8349 117.193 53.0016 120.86 49.4016C124.26 46.0016 126.426 43.3682 127.36 41.5016C127.493 41.3682 127.426 41.2349 127.16 41.1016C126.893 40.9016 126.76 40.7682 126.76 40.7016C126.76 40.1016 128.126 38.6016 130.86 36.2016C130.926 36.1349 131.06 36.1016 131.26 36.1016C131.66 36.1016 131.86 36.2682 131.86 36.6016C131.86 37.2682 131.126 38.7349 129.66 41.0016C132.393 42.1349 133.893 43.9016 134.16 46.3016ZM159.94 50.8016C159.407 52.8016 157.874 54.7682 155.34 56.7016C152.74 58.7016 150.507 59.5682 148.64 59.3016C146.774 59.0349 145.74 57.8349 145.54 55.7016C145.54 55.2349 145.574 54.9016 145.64 54.7016V54.3016C143.107 57.0349 140.674 58.6349 138.34 59.1016C137.007 59.4349 135.94 59.3682 135.14 58.9016C134.34 58.3682 133.94 57.4349 133.94 56.1016C134.074 52.3682 136.107 48.3682 140.04 44.1016C143.24 40.6349 146.34 39.0349 149.34 39.3016C151.54 39.5016 152.64 40.4682 152.64 42.2016C152.64 42.7349 152.54 43.2349 152.34 43.7016L153.54 42.4016C154.807 41.0016 155.407 39.7682 155.34 38.7016C156.474 39.4349 157.04 40.3682 157.04 41.5016C157.04 42.4349 156.074 44.0682 154.14 46.4016C150.274 50.8682 148.34 54.3016 148.34 56.7016C148.34 57.9682 148.874 58.6016 149.94 58.6016C150.674 58.6016 151.34 58.4682 151.94 58.2016C153.14 57.8016 154.974 56.0682 157.44 53.0016C157.574 52.8016 157.84 52.5349 158.24 52.2016C158.707 51.8016 159.274 51.3349 159.94 50.8016ZM151.14 43.4016C151.74 41.6016 151.34 40.7016 149.94 40.7016C147.274 40.7016 143.974 43.5682 140.04 49.3016C137.907 52.5016 136.974 55.0016 137.24 56.8016C137.374 57.5349 137.874 57.9016 138.74 57.9016C140.14 57.9016 142.207 56.4016 144.94 53.4016C145.274 53.0682 145.54 52.7682 145.74 52.5016C146.007 52.1682 146.207 51.8349 146.34 51.5016C148.14 48.4349 149.04 45.4349 149.04 42.5016L149.14 42.6016C149.407 43.3349 149.607 44.1349 149.74 45.0016C149.74 45.2016 149.74 45.4682 149.74 45.8016C149.74 46.0682 149.707 46.4016 149.64 46.8016C150.374 45.6016 150.874 44.4682 151.14 43.4016ZM184.871 34.6016C184.537 34.8016 183.404 34.9682 181.471 35.1016C179.804 35.1682 177.137 35.0682 173.471 34.8016C173.137 35.0016 172.704 35.3682 172.171 35.9016C171.704 36.4349 171.104 37.1349 170.371 38.0016L162.271 47.7016C161.404 48.7682 160.704 49.6349 160.171 50.3016C159.637 50.9016 159.304 51.3349 159.171 51.6016C157.571 53.7349 156.771 55.6682 156.771 57.4016C156.771 58.6682 157.337 59.3016 158.471 59.3016C160.337 59.3016 162.837 57.4016 165.971 53.6016C166.437 53.0682 167.271 52.3682 168.471 51.5016C168.004 53.3682 166.471 55.3349 163.871 57.4016C161.337 59.4682 159.104 60.3349 157.171 60.0016C155.304 59.7349 154.271 58.5349 154.071 56.4016C153.937 54.8682 154.604 52.9349 156.071 50.6016C156.404 49.9349 158.604 47.2682 162.671 42.6016L169.471 34.5016L159.271 33.3016C157.337 33.0349 155.537 32.8682 153.871 32.8016C152.137 32.7349 150.504 32.7349 148.971 32.8016C143.171 33.0016 138.437 33.9682 134.771 35.7016L134.471 35.9016C136.071 33.9682 138.804 32.5682 142.671 31.7016C145.937 30.9682 149.071 30.6016 152.071 30.6016C152.271 30.6016 157.971 31.4016 169.171 33.0016L170.571 33.2016C173.304 30.0016 175.204 27.2349 176.271 24.9016C177.204 25.6349 177.671 26.5682 177.671 27.7016C177.671 28.8349 177.304 29.8682 176.571 30.8016L174.271 33.8016C175.937 34.0016 177.404 34.1682 178.671 34.3016C180.004 34.3682 181.137 34.4349 182.071 34.5016C182.404 34.5016 182.771 34.5016 183.171 34.5016C183.637 34.5016 184.204 34.5349 184.871 34.6016ZM189.418 24.2016C189.418 25.2016 188.418 27.2349 186.418 30.3016C185.218 32.1682 184.018 34.0349 182.818 35.9016C181.618 37.7016 180.385 39.5016 179.118 41.3016C179.052 41.3682 178.952 41.6016 178.818 42.0016C181.552 39.7349 183.985 38.7682 186.118 39.1016C187.585 39.3682 188.318 40.3682 188.318 42.1016C188.318 46.9016 184.452 52.8682 176.718 60.0016C174.852 61.7349 173.385 63.1349 172.318 64.2016C171.252 65.2016 170.552 65.8682 170.218 66.2016C167.685 69.0682 166.218 71.5682 165.818 73.7016C166.018 69.3682 168.452 64.4682 173.118 59.0016C173.252 58.8682 173.352 58.7016 173.418 58.5016C173.552 58.3016 173.685 58.1349 173.818 58.0016C175.685 55.8016 178.185 52.7016 181.318 48.7016C181.985 47.6349 182.352 46.8349 182.418 46.3016C182.552 47.5016 182.218 48.8349 181.418 50.3016L181.518 50.2016C182.985 48.3349 184.085 46.4016 184.818 44.4016C185.152 43.4016 185.318 42.6016 185.318 42.0016C185.318 40.8016 184.585 40.3016 183.118 40.5016C181.852 40.7016 180.118 42.0349 177.918 44.5016V44.7016C173.185 50.7016 170.052 56.1016 168.518 60.9016C168.452 60.5682 168.418 60.3349 168.418 60.2016C168.418 60.0016 168.418 59.8349 168.418 59.7016C168.485 58.3682 169.052 56.4016 170.118 53.8016L169.118 55.0016C166.585 57.9349 165.018 59.4016 164.418 59.4016C163.552 59.4016 162.718 58.9016 161.918 57.9016C163.385 57.2349 165.652 54.8016 168.718 50.6016C171.718 46.5349 174.518 42.5349 177.118 38.6016C179.785 34.6016 182.285 30.6349 184.618 26.7016C185.352 25.4349 185.952 24.3349 186.418 23.4016C186.885 22.4682 187.252 21.6349 187.518 20.9016C188.785 21.7016 189.418 22.8016 189.418 24.2016ZM360.2 75.1016C360.334 75.6349 360.3 75.9016 360.1 75.9016C360.234 75.9016 360.034 75.3349 359.5 74.2016L358.6 72.2016C355 66.2682 347.034 63.3682 334.7 63.5016C331.034 63.5682 326.867 63.9016 322.2 64.5016C317.6 65.1016 312.467 66.0349 306.8 67.3016L287.7 71.4016C279.1 73.0016 272.634 73.5349 268.3 73.0016C264.7 72.5349 261.534 71.4349 258.8 69.7016C255.6 67.5682 253.8 64.9016 253.4 61.7016C253 58.6349 253.534 55.3682 255 51.9016C256.867 47.5016 257.834 44.6682 257.9 43.4016C258.034 42.0016 257.5 40.5682 256.3 39.1016H256.2L255.9 38.8016C254.367 38.4016 252.934 37.8016 251.6 37.0016L248.2 41.6016C246.667 43.7349 245.134 45.8016 243.6 47.8016C242.134 49.7349 240.634 51.6349 239.1 53.5016C232.367 61.8349 226.4 65.7349 221.2 65.2016C221.267 65.2016 221.3 65.2349 221.3 65.3016C219.367 65.1682 217.4 64.7682 215.4 64.1016C218.867 64.5016 222.734 62.8349 227 59.1016C222.934 61.0349 219 62.0016 215.2 62.0016C211.8 62.0016 208.467 61.1682 205.2 59.5016C205.334 59.5016 205.434 59.5349 205.5 59.6016C201.1 56.7349 198.634 52.5016 198.1 46.9016C197.767 43.8349 198.167 40.7349 199.3 37.6016C201.567 30.9349 205.767 25.3349 211.9 20.8016C217.167 16.9349 222.167 15.0016 226.9 15.0016C229.5 15.0016 231.667 15.7016 233.4 17.1016L233 17.4016C231.667 16.4682 230 16.0016 228 16.0016C223.734 16.0016 218.734 18.1349 213 22.4016C204.4 28.6682 199.7 36.0016 198.9 44.4016C198.567 48.1349 199.334 51.5016 201.2 54.5016C203.134 57.9016 205.834 59.9349 209.3 60.6016C210.967 60.9349 212.367 61.1016 213.5 61.1016C220.434 61.1016 227.667 57.1349 235.2 49.2016C236.334 47.5349 237.267 46.1349 238 45.0016C238.8 43.8016 239.367 42.8682 239.7 42.2016C240.767 40.0682 241.4 37.4016 241.6 34.2016C242.134 35.4016 242.367 36.7016 242.3 38.1016L241.9 41.2016L244.4 37.7016C244.734 37.2349 245.167 36.6682 245.7 36.0016C246.234 35.3349 246.867 34.5349 247.6 33.6016C245.067 31.2016 243.8 28.2682 243.8 24.8016C243.8 22.4016 244.4 20.1349 245.6 18.0016C246.8 15.8682 248.434 14.3682 250.5 13.5016C248.034 15.4349 246.567 18.0016 246.1 21.2016C248.167 14.9349 252.034 11.8349 257.7 11.9016C260.967 12.0349 263.434 13.2349 265.1 15.5016C262.9 13.7682 260.534 12.9682 258 13.1016C255.2 13.1682 252.934 14.5016 251.2 17.1016C249.467 19.6349 248.6 22.3016 248.6 25.1016C248.6 27.1682 249.034 29.0349 249.9 30.7016C261.434 16.9682 270.867 10.4016 278.2 11.0016C279.534 11.1349 280.767 11.5016 281.9 12.1016C278.5 12.3682 275.834 12.9682 273.9 13.9016C271.834 14.7682 269.634 16.4349 267.3 18.9016L259.8 27.2016C258.534 28.5349 257.367 29.8349 256.3 31.1016C255.234 32.3682 254.234 33.5682 253.3 34.7016C253.434 34.8349 253.6 34.9682 253.8 35.1016C254 35.1682 254.167 35.2682 254.3 35.4016C256.967 36.6682 259.9 37.0682 263.1 36.6016C265.167 36.3349 267.267 35.6349 269.4 34.5016C266.134 36.6349 262.8 37.7682 259.4 37.9016C261.4 38.3682 263.534 38.4682 265.8 38.2016C270.067 37.5349 274.667 35.0349 279.6 30.7016C284.867 26.0349 287.5 21.6682 287.5 17.6016C287.5 15.1349 286.6 13.0349 284.8 11.3016C281.2 8.16823 275.5 6.63489 267.7 6.70156C263.034 6.76822 256 7.66822 246.6 9.40156C241.867 10.2682 237.734 10.9349 234.2 11.4016C230.667 11.8016 227.667 12.0016 225.2 12.0016C213.4 12.0016 205.2 8.13489 200.6 0.401562C206.134 5.3349 215.467 7.80156 228.6 7.80156C231.8 7.80156 235.334 7.66823 239.2 7.40156C243.134 7.06823 247.434 6.63489 252.1 6.10156L265.2 4.50156C269.934 3.96823 274.3 3.96823 278.3 4.50156C281.634 4.90156 284.467 5.80156 286.8 7.20156C289.8 9.00156 291.3 11.4016 291.3 14.4016C291.3 18.5349 288.5 23.5349 282.9 29.4016C278.167 34.3349 272.734 37.5016 266.6 38.9016C264.6 39.3682 262.667 39.5682 260.8 39.5016C259.934 39.5016 259.367 39.4682 259.1 39.4016C261.1 41.4016 262.234 43.4349 262.5 45.5016C262.7 46.9016 262.6 48.3016 262.2 49.7016C262 50.3682 261.534 51.6016 260.8 53.4016C259.134 57.2682 258.5 60.3016 258.9 62.5016C259.967 68.5682 265.067 71.6016 274.2 71.6016C277.134 71.6016 280.067 71.2016 283 70.4016C286.6 69.4016 289.1 67.9682 290.5 66.1016C291.234 65.0349 291.6 64.4682 291.6 64.4016C291.734 64.5349 291.7 64.8016 291.5 65.2016C290.7 67.2682 288.834 69.1016 285.9 70.7016C287.234 70.3682 289.467 69.8016 292.6 69.0016C295.734 68.1349 299.767 66.9682 304.7 65.5016C308.5 64.3682 312 63.4682 315.2 62.8016C318.4 62.0682 321.267 61.5349 323.8 61.2016C325.6 60.9349 327.367 60.7682 329.1 60.7016C330.834 60.5682 332.534 60.5016 334.2 60.5016C339.2 60.4349 343.934 61.2682 348.4 63.0016C353.534 65.0016 357.167 67.9682 359.3 71.9016C359.9 73.0349 360.2 74.1016 360.2 75.1016ZM283.79 43.7016C283.59 46.3016 282.19 49.2016 279.59 52.4016C276.99 55.6016 274.424 57.8016 271.89 59.0016C270.624 59.6682 269.257 59.9349 267.79 59.8016C265.59 59.6016 264.49 58.4349 264.49 56.3016C264.49 54.6349 265.057 52.7349 266.19 50.6016C267.324 48.4016 268.79 46.3349 270.59 44.4016C273.924 40.8682 277.024 39.2349 279.89 39.5016C281.024 39.5682 281.957 40.0016 282.69 40.8016C283.49 41.6016 283.857 42.5682 283.79 43.7016ZM281.19 42.3016C281.39 41.3682 281.157 40.9016 280.49 40.9016C280.024 40.9016 279.357 41.1016 278.49 41.5016C278.024 42.1016 277.29 43.2016 276.29 44.8016C274.49 47.9349 273.59 50.3682 273.59 52.1016C273.59 52.9682 273.824 53.5016 274.29 53.7016L275.69 52.2016C275.69 52.1349 275.657 52.0682 275.59 52.0016C275.59 52.0682 275.624 52.1349 275.69 52.2016C275.89 51.9349 276.09 51.7016 276.29 51.5016C276.49 51.3016 276.657 51.0682 276.79 50.8016C277.924 48.2682 278.324 46.4349 277.99 45.3016C278.457 46.0349 278.757 46.9349 278.89 48.0016C280.157 46.0016 280.924 44.1016 281.19 42.3016ZM274.19 53.8016C273.057 53.0682 272.49 51.8349 272.49 50.1016C272.49 48.9016 272.757 47.5682 273.29 46.1016C269.29 50.5682 267.49 54.2016 267.89 57.0016C268.024 57.7349 268.324 58.1016 268.79 58.1016C269.724 58.1016 271.524 56.6682 274.19 53.8016ZM299.908 42.8016C299.708 45.8682 296.741 48.2682 291.008 50.0016C295.008 47.1349 297.008 44.4016 297.008 41.8016C297.008 41.1349 296.408 40.8016 295.208 40.8016C293.541 41.3349 291.575 42.8682 289.308 45.4016C289.241 45.5349 289.075 45.7349 288.808 46.0016C287.075 49.6016 286.341 51.8016 286.608 52.6016C286.075 51.5349 285.908 50.5349 286.108 49.6016V49.4016C285.175 50.8682 284.508 52.1349 284.108 53.2016C283.308 55.5349 283.208 57.1682 283.808 58.1016C284.141 58.6349 284.875 58.9016 286.008 58.9016C289.075 58.4349 292.275 56.6349 295.608 53.5016C296.075 53.0349 297.108 52.3016 298.708 51.3016C298.041 53.3682 296.041 55.4016 292.708 57.4016C289.308 59.3349 286.541 60.1682 284.408 59.9016C284.208 59.9016 284.075 59.8682 284.008 59.8016C284.008 59.8682 283.975 59.9016 283.908 59.9016C281.241 59.7016 279.975 58.4349 280.108 56.1016C280.241 52.3682 282.275 48.3682 286.208 44.1016C289.408 40.6349 292.508 39.0349 295.508 39.3016C296.041 39.3016 296.541 39.4349 297.008 39.7016C299.008 40.2349 299.975 41.2682 299.908 42.8016ZM326.317 21.4016C323.583 23.0016 320.783 25.8349 317.917 29.9016C316.383 32.0349 314.183 35.5349 311.317 40.4016C312.317 39.8016 313.483 39.4349 314.817 39.3016C315.95 39.3016 317.05 39.7016 318.117 40.5016C319.25 41.3016 319.817 42.2682 319.817 43.4016C319.95 45.2016 318.95 47.2682 316.817 49.6016C314.283 52.4016 312.083 53.8016 310.217 53.8016C309.417 53.8016 308.783 53.6016 308.317 53.2016C308.383 53.5349 308.65 54.4349 309.117 55.9016C309.583 57.3016 310.25 59.2349 311.117 61.7016C312.317 65.1016 312.917 67.8682 312.917 70.0016C312.917 72.3349 312.15 74.4682 310.617 76.4016C311.083 75.7349 311.317 74.8016 311.317 73.6016C311.317 71.9349 310.25 68.3016 308.117 62.7016C306.317 58.2349 305.417 54.5016 305.417 51.5016C305.417 50.6349 305.45 50.0349 305.517 49.7016C302.983 53.4349 300.55 56.5349 298.217 59.0016C295.883 61.4016 293.683 63.2349 291.617 64.5016C290.15 65.3682 288.817 65.8682 287.617 66.0016C291.683 62.7349 296.25 57.2016 301.317 49.4016L299.917 50.4016L299.517 50.5016C299.05 50.6349 298.617 50.7682 298.217 50.9016C297.817 50.9682 297.417 50.9682 297.017 50.9016C296.817 50.9016 296.45 50.8349 295.917 50.7016C296.45 50.7016 297.05 50.5349 297.717 50.2016C299.917 49.0016 301.717 47.7016 303.117 46.3016L304.017 45.3016C306.15 41.9682 307.817 39.3682 309.017 37.5016C310.217 35.6349 310.983 34.4682 311.317 34.0016C315.517 28.2016 320.517 24.0016 326.317 21.4016ZM316.517 42.6016C316.65 41.6682 316.417 41.0349 315.817 40.7016C315.217 40.3016 314.25 40.3682 312.917 40.9016C311.85 41.3016 310.65 42.2682 309.317 43.8016L308.217 45.5016C309.083 44.9016 309.95 44.6349 310.817 44.7016C309.417 45.4349 308.683 46.8349 308.617 48.9016C308.55 49.4349 308.583 50.0349 308.717 50.7016C308.85 51.5016 309.217 51.8349 309.817 51.7016C311.15 51.5016 312.783 50.0349 314.717 47.3016C315.783 45.7016 316.383 44.1349 316.517 42.6016ZM338.82 24.7016C338.487 29.9016 336.053 34.8349 331.52 39.5016L330.92 40.3016C329.787 41.6349 328.587 43.1016 327.32 44.7016C326.053 46.2349 324.753 47.9016 323.42 49.7016C322.887 50.4349 322.487 51.2349 322.22 52.1016C322.087 50.9682 322.387 49.7349 323.12 48.4016C320.587 51.8682 319.32 54.5682 319.32 56.5016C319.32 57.7016 320.087 58.2016 321.62 58.0016C322.353 57.8682 323.087 57.5016 323.82 56.9016C326.353 54.8349 329.22 51.2349 332.42 46.1016C333.153 44.9016 333.82 43.6016 334.42 42.2016C335.087 40.8016 335.687 39.2682 336.22 37.6016V38.8016C336.22 39.4682 336.12 40.1349 335.92 40.8016C336.72 41.6016 337.12 42.5349 337.12 43.6016C337.12 44.6016 336.12 46.6349 334.12 49.7016C332.587 52.0349 330.987 54.4349 329.32 56.9016C327.72 59.3016 326.053 61.7682 324.32 64.3016C326.453 62.5682 328.753 61.4016 331.22 60.8016L330.12 61.2016C327.987 62.3349 324.853 65.7682 320.72 71.5016C316.453 77.5016 312.553 80.6682 309.02 81.0016C306.22 81.2016 304.32 80.3682 303.32 78.5016C302.52 76.9682 302.32 75.5349 302.72 74.2016C303.253 72.6016 304.22 71.1016 305.62 69.7016C305.687 69.5682 305.82 69.4349 306.02 69.3016C306.153 69.1682 306.353 68.9682 306.62 68.7016L302.52 69.6016C308.053 65.4682 313.353 62.9016 318.42 61.9016C319.687 61.6349 320.72 61.5349 321.52 61.6016C321.853 61.6016 322.12 61.6349 322.32 61.7016L325.82 56.6016C323.087 58.8016 320.687 59.7349 318.62 59.4016C317.087 59.0682 316.32 58.0682 316.32 56.4016C316.32 51.6682 320.22 45.7016 328.02 38.5016C331.82 34.9682 333.987 32.9016 334.52 32.3016C336.987 29.6349 338.42 27.1016 338.82 24.7016ZM322.22 62.0016C316.553 63.3349 311.787 65.7682 307.92 69.3016C304.787 72.2349 303.52 74.5349 304.12 76.2016C304.387 77.0682 305.02 77.6016 306.02 77.8016C306.953 78.0016 308.353 77.7349 310.22 77.0016C310.753 76.6682 311.287 76.2682 311.82 75.8016C312.287 75.4016 312.753 74.9349 313.22 74.4016C313.62 73.8682 314.387 72.8349 315.52 71.3016C316.587 69.7682 318.053 67.7349 319.92 65.2016L322.22 62.0016Z" fill="white"/>
</svg>
