<svg height="250" viewBox="0 0 286 250" fill="none" xmlns="http://www.w3.org/2000/svg">
<g opacity="0.5">
<path d="M223.767 70.5843L277.27 56.2477C280.282 55.4405 282.85 53.4697 284.41 50.7688C285.969 48.0679 286.391 44.8582 285.584 41.8458C284.777 38.8334 282.806 36.265 280.105 34.7057C277.404 33.1464 274.195 32.7239 271.182 33.5311L186.881 56.1184C185.389 56.5181 183.833 56.6201 182.302 56.4185C180.771 56.2169 179.295 55.7158 177.958 54.9436C176.62 54.1715 175.448 53.1435 174.508 51.9183C173.568 50.6932 172.879 49.2949 172.479 47.8032C171.672 44.791 172.095 41.5817 173.654 38.881C175.213 36.1804 177.781 34.2096 180.793 33.4023L219.166 23.1174C220.658 22.7179 222.056 22.0284 223.282 21.0884C224.507 20.1484 225.535 18.9762 226.307 17.6389C227.079 16.3015 227.581 14.8251 227.782 13.294C227.984 11.7629 227.882 10.2071 227.482 8.71542V8.71542C226.675 5.70301 224.704 3.13465 222.003 1.57535C219.302 0.0160468 216.093 -0.406466 213.08 0.400757L18.1431 52.6319C16.6515 53.0315 15.2532 53.721 14.028 54.661C12.8029 55.601 11.7749 56.7731 11.0027 58.1105C10.2306 59.4478 9.72942 60.9241 9.52784 62.4551C9.32626 63.9861 9.42823 65.5418 9.82791 67.0334V67.0334C10.2273 68.5253 10.9167 69.924 11.8568 71.1494C12.7968 72.3749 13.969 73.4032 15.3065 74.1755C16.644 74.9479 18.1206 75.4492 19.6518 75.6508C21.1831 75.8525 22.7391 75.7505 24.2309 75.3506L54.5833 67.2178C57.5958 66.4107 60.8055 66.8334 63.5064 68.3928C66.2072 69.9521 68.178 72.5205 68.9853 75.533V75.533C69.385 77.0246 69.4869 78.5803 69.2854 80.1113C69.0838 81.6423 68.5826 83.1186 67.8105 84.4559C67.0383 85.7932 66.0103 86.9653 64.7852 87.9053C63.56 88.8454 62.1617 89.5348 60.6701 89.9344L8.71579 103.855C5.70336 104.663 3.13496 106.633 1.57558 109.334C0.016192 112.035 -0.406456 115.245 0.400605 118.257V118.257C0.80025 119.749 1.48979 121.147 2.42985 122.372C3.3699 123.598 4.54207 124.626 5.87943 125.398C7.21678 126.17 8.69312 126.671 10.2242 126.873C11.7552 127.074 13.3109 126.972 14.8026 126.573L47.226 117.884C50.2385 117.077 53.4482 117.5 56.149 119.059C58.8499 120.619 60.8207 123.187 61.628 126.2C62.0276 127.691 62.1296 129.247 61.928 130.778C61.7264 132.309 61.2253 133.785 60.4531 135.123C59.681 136.46 58.653 137.632 57.4278 138.572C56.2027 139.512 54.8044 140.201 53.3128 140.601L51.0122 141.218C49.52 141.617 48.1212 142.307 46.8958 143.248C45.6703 144.189 44.6422 145.361 43.8702 146.7C43.0982 148.038 42.5974 149.515 42.3965 151.046C42.1955 152.578 42.2983 154.134 42.6991 155.626V155.626C43.0987 157.118 43.7882 158.516 44.7282 159.742C45.6682 160.967 46.8404 161.995 48.1777 162.767C49.5151 163.539 50.9915 164.04 52.5225 164.242C54.0536 164.444 55.6094 164.342 57.101 163.942L59.2827 163.358C60.7743 162.958 62.33 162.856 63.861 163.058C65.392 163.259 66.8683 163.76 68.2056 164.533C69.5429 165.305 70.715 166.333 71.6551 167.558C72.5951 168.783 73.2846 170.181 73.6841 171.673V171.673C74.0839 173.164 74.1859 174.72 73.9844 176.251C73.7829 177.782 73.2818 179.259 72.5097 180.596C71.7376 181.933 70.7097 183.106 69.4845 184.046C68.2594 184.986 66.8611 185.675 65.3695 186.075L33.0655 194.73C30.0531 195.538 27.4848 197.508 25.9255 200.209C24.3662 202.91 23.9437 206.12 24.7509 209.132V209.132C25.5581 212.145 27.529 214.713 30.2298 216.272C32.9307 217.832 36.1404 218.254 39.1529 217.447L98.1804 201.63C99.672 201.231 101.228 201.129 102.759 201.33C104.29 201.532 105.766 202.033 107.104 202.805C108.441 203.577 109.613 204.605 110.553 205.831C111.493 207.056 112.183 208.454 112.582 209.946C112.982 211.437 113.084 212.993 112.882 214.524C112.681 216.056 112.18 217.532 111.407 218.869C110.635 220.207 109.607 221.379 108.382 222.319C107.156 223.259 105.758 223.949 104.266 224.348L94.8061 226.883C91.7938 227.69 89.2255 229.661 87.6662 232.362C86.1069 235.062 85.6843 238.272 86.4914 241.284V241.284C86.8911 242.776 87.5806 244.174 88.5207 245.4C89.4607 246.625 90.6329 247.653 91.9703 248.425C93.3076 249.197 94.784 249.698 96.315 249.899C97.8461 250.101 99.4018 249.999 100.893 249.599L251.193 209.327C254.206 208.519 256.774 206.548 258.333 203.848C259.893 201.147 260.315 197.937 259.508 194.925V194.925C259.108 193.433 258.419 192.035 257.479 190.809C256.539 189.584 255.366 188.556 254.029 187.784C252.692 187.012 251.215 186.511 249.684 186.309C248.153 186.108 246.597 186.21 245.106 186.609L240.684 187.794C237.672 188.601 234.463 188.179 231.762 186.62C229.061 185.062 227.09 182.494 226.282 179.482V179.482C225.883 177.99 225.781 176.434 225.983 174.903C226.184 173.372 226.686 171.896 227.458 170.558C228.23 169.221 229.258 168.049 230.484 167.109C231.709 166.169 233.107 165.48 234.599 165.08L263.673 157.289C265.164 156.889 266.563 156.199 267.788 155.259C269.013 154.319 270.041 153.147 270.813 151.81C271.585 150.472 272.086 148.996 272.288 147.465C272.49 145.934 272.388 144.378 271.988 142.887V142.887C271.588 141.395 270.899 139.997 269.959 138.771C269.019 137.546 267.846 136.518 266.509 135.746C265.172 134.974 263.695 134.473 262.164 134.271C260.633 134.07 259.078 134.172 257.586 134.571L216.361 145.616C214.869 146.016 213.314 146.118 211.783 145.916C210.252 145.715 208.775 145.214 207.438 144.441C206.101 143.669 204.928 142.641 203.988 141.416C203.048 140.191 202.359 138.793 201.959 137.301V137.301C201.153 134.289 201.576 131.08 203.135 128.379C204.695 125.679 207.263 123.709 210.275 122.902L239.465 115.08C240.956 114.681 242.355 113.991 243.58 113.051C244.805 112.111 245.833 110.939 246.605 109.602C247.377 108.264 247.878 106.788 248.08 105.257C248.281 103.726 248.179 102.17 247.779 100.679V100.679C247.38 99.1864 246.691 97.7876 245.751 96.5618C244.812 95.3361 243.639 94.3076 242.302 93.535C240.965 92.7624 239.488 92.2608 237.957 92.059C236.425 91.8571 234.869 91.959 233.377 92.3587L229.855 93.3025C226.843 94.1097 223.633 93.6872 220.932 92.1279C218.231 90.5686 216.26 88.0002 215.453 84.9878V84.9878C215.053 83.4961 214.951 81.9403 215.152 80.4091C215.354 78.878 215.855 77.4015 216.627 76.064C217.399 74.7265 218.427 73.5541 219.652 72.6139C220.877 71.6737 222.276 70.984 223.767 70.5843V70.5843Z" fill="#2BDA80"/>
</g>
<g style="mix-blend-mode:multiply" opacity="0.33">
<path d="M214.569 97.4219H94.059C90.0427 97.4219 86.7869 100.678 86.7869 104.694V113.773C86.7869 117.789 90.0427 121.045 94.059 121.045H214.569C218.585 121.045 221.841 117.789 221.841 113.773V104.694C221.841 100.678 218.585 97.4219 214.569 97.4219Z" fill="#4E4E4E" stroke="black" stroke-linecap="round" stroke-linejoin="round"/>
<path d="M214.569 97.4219H94.059C90.0427 97.4219 86.7869 100.678 86.7869 104.694V113.773C86.7869 117.789 90.0427 121.045 94.059 121.045H214.569C218.585 121.045 221.841 117.789 221.841 113.773V104.694C221.841 100.678 218.585 97.4219 214.569 97.4219Z" fill="#4E4E4E"/>
<g style="mix-blend-mode:multiply" opacity="0.17">
<path d="M94.059 97.4219H214.569C216.498 97.4219 218.347 98.188 219.711 99.5518C221.075 100.916 221.841 102.765 221.841 104.694V115.31C221.841 116.488 221.373 117.618 220.54 118.45C219.708 119.283 218.578 119.751 217.4 119.751H91.2281C90.0504 119.751 88.9208 119.283 88.0881 118.45C87.2553 117.618 86.7874 116.488 86.7874 115.31V104.694C86.7874 102.765 87.5536 100.916 88.9174 99.5518C90.2812 98.188 92.1309 97.4219 94.0596 97.4219H94.059Z" fill="#4E4E4E"/>
</g>
<path d="M214.569 97.4219H94.059C90.0427 97.4219 86.7869 100.678 86.7869 104.694V113.773C86.7869 117.789 90.0427 121.045 94.059 121.045H214.569C218.585 121.045 221.841 117.789 221.841 113.773V104.694C221.841 100.678 218.585 97.4219 214.569 97.4219Z" fill="#4E4E4E" stroke="#46505C" stroke-width="4" stroke-linecap="round" stroke-linejoin="round"/>
<path d="M212.491 118.236V100.086L96.1368 100.086V118.236H212.491Z" fill="#4E4E4E"/>
<path d="M212.491 118.236V100.086L96.1368 100.086V118.236H212.491Z" fill="#4E4E4E" stroke="#46505C" stroke-linecap="round" stroke-linejoin="round"/>
<path d="M214.569 121.039H94.0596C90.0433 121.039 86.7874 124.295 86.7874 128.311V203.11C86.7874 207.127 90.0433 210.383 94.0596 210.383H214.569C218.586 210.383 221.842 207.127 221.842 203.11V128.311C221.842 124.295 218.586 121.039 214.569 121.039Z" fill="#4E4E4E"/>
<path d="M219.764 203.123V128.323C219.764 125.455 217.438 123.129 214.569 123.129L94.0595 123.129C91.1907 123.129 88.8651 125.455 88.8651 128.323V203.123C88.8651 205.991 91.1907 208.317 94.0595 208.317H214.569C217.438 208.317 219.764 205.991 219.764 203.123Z" fill="#4E4E4E" stroke="#E6F3FF" stroke-width="2" stroke-miterlimit="10"/>
<path d="M145.977 206.328H162.651C163.202 206.328 163.73 206.547 164.12 206.937C164.51 207.326 164.729 207.855 164.729 208.406V210.39H143.899V208.406C143.899 207.855 144.118 207.326 144.508 206.937C144.897 206.547 145.426 206.328 145.977 206.328Z" fill="#4E4E4E"/>
<path d="M214.569 121.039H94.0596C90.0433 121.039 86.7874 124.295 86.7874 128.311V203.11C86.7874 207.127 90.0433 210.383 94.0596 210.383H214.569C218.586 210.383 221.842 207.127 221.842 203.11V128.311C221.842 124.295 218.586 121.039 214.569 121.039Z" fill="#4E4E4E" stroke="#46505C" stroke-width="4" stroke-linecap="round" stroke-linejoin="round"/>
<path d="M212.491 128.016H96.1367C95.2761 128.016 94.5784 128.713 94.5784 129.574V174.246C94.5784 175.106 95.2761 175.804 96.1367 175.804H212.491C213.352 175.804 214.049 175.106 214.049 174.246V129.574C214.049 128.713 213.352 128.016 212.491 128.016Z" fill="#4E4E4E"/>
<path d="M117.478 164.113H111.245C110.958 164.113 110.725 164.346 110.725 164.633V170.866C110.725 171.153 110.958 171.385 111.245 171.385H117.478C117.765 171.385 117.997 171.153 117.997 170.866V164.633C117.997 164.346 117.765 164.113 117.478 164.113Z" fill="#4E4E4E" stroke="#626C84" stroke-linecap="round" stroke-linejoin="round"/>
<path d="M106.238 164.113H100.005C99.7177 164.113 99.4852 164.346 99.4852 164.633V170.866C99.4852 171.153 99.7177 171.385 100.005 171.385H106.238C106.525 171.385 106.757 171.153 106.757 170.866V164.633C106.757 164.346 106.525 164.113 106.238 164.113Z" fill="#4E4E4E" stroke="#626C84" stroke-linecap="round" stroke-linejoin="round"/>
<path d="M173.677 164.113H122.484C122.197 164.113 121.965 164.346 121.965 164.633V170.866C121.965 171.153 122.197 171.385 122.484 171.385H173.677C173.964 171.385 174.197 171.153 174.197 170.866V164.633C174.197 164.346 173.964 164.113 173.677 164.113Z" fill="#4E4E4E" stroke="#626C84" stroke-linecap="round" stroke-linejoin="round"/>
<path d="M184.917 164.113H178.684C178.397 164.113 178.164 164.346 178.164 164.633V170.866C178.164 171.153 178.397 171.385 178.684 171.385H184.917C185.204 171.385 185.437 171.153 185.437 170.866V164.633C185.437 164.346 185.204 164.113 184.917 164.113Z" fill="#4E4E4E" stroke="#626C84" stroke-linecap="round" stroke-linejoin="round"/>
<path d="M201.352 168.211H197.196C196.909 168.211 196.677 168.443 196.677 168.73V170.873C196.677 171.16 196.909 171.393 197.196 171.393H201.352C201.639 171.393 201.871 171.16 201.871 170.873V168.73C201.871 168.443 201.639 168.211 201.352 168.211Z" fill="#4E4E4E" stroke="#626C84" stroke-linecap="round" stroke-linejoin="round"/>
<path d="M201.352 164.113H197.196C196.909 164.113 196.677 164.346 196.677 164.633V166.775C196.677 167.062 196.909 167.295 197.196 167.295H201.352C201.639 167.295 201.871 167.062 201.871 166.775V164.633C201.871 164.346 201.639 164.113 201.352 164.113Z" fill="#4E4E4E" stroke="#626C84" stroke-linecap="round" stroke-linejoin="round"/>
<path d="M208.624 168.211H204.468C204.181 168.211 203.949 168.443 203.949 168.73V170.873C203.949 171.16 204.181 171.393 204.468 171.393H208.624C208.911 171.393 209.143 171.16 209.143 170.873V168.73C209.143 168.443 208.911 168.211 208.624 168.211Z" fill="#4E4E4E" stroke="#626C84" stroke-linecap="round" stroke-linejoin="round"/>
<path d="M194.08 168.211H189.924C189.637 168.211 189.405 168.443 189.405 168.73V170.873C189.405 171.16 189.637 171.393 189.924 171.393H194.08C194.366 171.393 194.599 171.16 194.599 170.873V168.73C194.599 168.443 194.366 168.211 194.08 168.211Z" fill="#4E4E4E" stroke="#626C84" stroke-linecap="round" stroke-linejoin="round"/>
<path d="M116.439 153.773H100.005C99.7177 153.773 99.4852 154.006 99.4852 154.293V160.526C99.4852 160.813 99.7177 161.046 100.005 161.046H116.439C116.726 161.046 116.959 160.813 116.959 160.526V154.293C116.959 154.006 116.726 153.773 116.439 153.773Z" fill="#4E4E4E" stroke="#626C84" stroke-linecap="round" stroke-linejoin="round"/>
<path d="M127.773 153.773H121.539C121.253 153.773 121.02 154.006 121.02 154.293V160.526C121.02 160.813 121.253 161.046 121.539 161.046H127.773C128.06 161.046 128.292 160.813 128.292 160.526V154.293C128.292 154.006 128.06 153.773 127.773 153.773Z" fill="#4E4E4E" stroke="#626C84" stroke-linecap="round" stroke-linejoin="round"/>
<path d="M139.013 153.773H132.78C132.493 153.773 132.26 154.006 132.26 154.293V160.526C132.26 160.813 132.493 161.046 132.78 161.046H139.013C139.3 161.046 139.532 160.813 139.532 160.526V154.293C139.532 154.006 139.3 153.773 139.013 153.773Z" fill="#4E4E4E" stroke="#626C84" stroke-linecap="round" stroke-linejoin="round"/>
<path d="M150.252 153.773H144.019C143.732 153.773 143.5 154.006 143.5 154.293V160.526C143.5 160.813 143.732 161.046 144.019 161.046H150.252C150.539 161.046 150.772 160.813 150.772 160.526V154.293C150.772 154.006 150.539 153.773 150.252 153.773Z" fill="#4E4E4E" stroke="#626C84" stroke-linecap="round" stroke-linejoin="round"/>
<path d="M161.493 153.773H155.259C154.973 153.773 154.74 154.006 154.74 154.293V160.526C154.74 160.813 154.973 161.046 155.259 161.046H161.493C161.78 161.046 162.012 160.813 162.012 160.526V154.293C162.012 154.006 161.78 153.773 161.493 153.773Z" fill="#4E4E4E" stroke="#626C84" stroke-linecap="round" stroke-linejoin="round"/>
<path d="M172.732 153.773H166.499C166.212 153.773 165.98 154.006 165.98 154.293V160.526C165.98 160.813 166.212 161.046 166.499 161.046H172.732C173.019 161.046 173.252 160.813 173.252 160.526V154.293C173.252 154.006 173.019 153.773 172.732 153.773Z" fill="#4E4E4E" stroke="#626C84" stroke-linecap="round" stroke-linejoin="round"/>
<path d="M183.972 153.773H177.739C177.452 153.773 177.22 154.006 177.22 154.293V160.526C177.22 160.813 177.452 161.046 177.739 161.046H183.972C184.259 161.046 184.492 160.813 184.492 160.526V154.293C184.492 154.006 184.259 153.773 183.972 153.773Z" fill="#4E4E4E" stroke="#626C84" stroke-linecap="round" stroke-linejoin="round"/>
<path d="M208.624 153.773H189.924C189.637 153.773 189.405 154.006 189.405 154.293V160.526C189.405 160.813 189.637 161.046 189.924 161.046H208.624C208.911 161.046 209.143 160.813 209.143 160.526V154.293C209.143 154.006 208.911 153.773 208.624 153.773Z" fill="#4E4E4E" stroke="#626C84" stroke-linecap="round" stroke-linejoin="round"/>
<path d="M123.711 143.133H117.478C117.191 143.133 116.958 143.365 116.958 143.652V149.886C116.958 150.172 117.191 150.405 117.478 150.405H123.711C123.998 150.405 124.231 150.172 124.231 149.886V143.652C124.231 143.365 123.998 143.133 123.711 143.133Z" fill="#4E4E4E" stroke="#626C84" stroke-linecap="round" stroke-linejoin="round"/>
<path d="M112.471 143.133H100.005C99.7177 143.133 99.4852 143.365 99.4852 143.652V149.886C99.4852 150.172 99.7177 150.405 100.005 150.405H112.471C112.758 150.405 112.991 150.172 112.991 149.886V143.652C112.991 143.365 112.758 143.133 112.471 143.133Z" fill="#4E4E4E" stroke="#626C84" stroke-linecap="round" stroke-linejoin="round"/>
<path d="M134.951 143.133H128.717C128.431 143.133 128.198 143.365 128.198 143.652V149.886C128.198 150.172 128.431 150.405 128.717 150.405H134.951C135.238 150.405 135.47 150.172 135.47 149.886V143.652C135.47 143.365 135.238 143.133 134.951 143.133Z" fill="#4E4E4E" stroke="#626C84" stroke-linecap="round" stroke-linejoin="round"/>
<path d="M146.191 143.133H139.958C139.671 143.133 139.438 143.365 139.438 143.652V149.886C139.438 150.172 139.671 150.405 139.958 150.405H146.191C146.478 150.405 146.711 150.172 146.711 149.886V143.652C146.711 143.365 146.478 143.133 146.191 143.133Z" fill="#4E4E4E" stroke="#626C84" stroke-linecap="round" stroke-linejoin="round"/>
<path d="M157.431 143.133H151.197C150.91 143.133 150.678 143.365 150.678 143.652V149.886C150.678 150.172 150.91 150.405 151.197 150.405H157.431C157.718 150.405 157.95 150.172 157.95 149.886V143.652C157.95 143.365 157.718 143.133 157.431 143.133Z" fill="#4E4E4E" stroke="#626C84" stroke-linecap="round" stroke-linejoin="round"/>
<path d="M168.671 143.133H162.437C162.151 143.133 161.918 143.365 161.918 143.652V149.886C161.918 150.172 162.151 150.405 162.437 150.405H168.671C168.958 150.405 169.19 150.172 169.19 149.886V143.652C169.19 143.365 168.958 143.133 168.671 143.133Z" fill="#4E4E4E" stroke="#626C84" stroke-linecap="round" stroke-linejoin="round"/>
<path d="M179.911 143.133H173.678C173.391 143.133 173.158 143.365 173.158 143.652V149.886C173.158 150.172 173.391 150.405 173.678 150.405H179.911C180.198 150.405 180.43 150.172 180.43 149.886V143.652C180.43 143.365 180.198 143.133 179.911 143.133Z" fill="#4E4E4E" stroke="#626C84" stroke-linecap="round" stroke-linejoin="round"/>
<path d="M191.151 143.133H184.917C184.63 143.133 184.398 143.365 184.398 143.652V149.886C184.398 150.172 184.63 150.405 184.917 150.405H191.151C191.437 150.405 191.67 150.172 191.67 149.886V143.652C191.67 143.365 191.437 143.133 191.151 143.133Z" fill="#4E4E4E" stroke="#626C84" stroke-linecap="round" stroke-linejoin="round"/>
<path d="M208.624 143.133H196.157C195.87 143.133 195.638 143.365 195.638 143.652V149.886C195.638 150.172 195.87 150.405 196.157 150.405H208.624C208.911 150.405 209.143 150.172 209.143 149.886V143.652C209.143 143.365 208.911 143.133 208.624 143.133Z" fill="#4E4E4E" stroke="#626C84" stroke-linecap="round" stroke-linejoin="round"/>
<path d="M117.614 132.949H111.381C111.094 132.949 110.861 133.182 110.861 133.469V139.702C110.861 139.989 111.094 140.221 111.381 140.221H117.614C117.901 140.221 118.133 139.989 118.133 139.702V133.469C118.133 133.182 117.901 132.949 117.614 132.949Z" fill="#4E4E4E" stroke="#626C84" stroke-linecap="round" stroke-linejoin="round"/>
<path d="M106.238 132.949H100.005C99.7177 132.949 99.4852 133.182 99.4852 133.469V139.702C99.4852 139.989 99.7177 140.221 100.005 140.221H106.238C106.525 140.221 106.757 139.989 106.757 139.702V133.469C106.757 133.182 106.525 132.949 106.238 132.949Z" fill="#4E4E4E" stroke="#626C84" stroke-linecap="round" stroke-linejoin="round"/>
<path d="M128.99 132.949H122.757C122.47 132.949 122.238 133.182 122.238 133.469V139.702C122.238 139.989 122.47 140.221 122.757 140.221H128.99C129.277 140.221 129.51 139.989 129.51 139.702V133.469C129.51 133.182 129.277 132.949 128.99 132.949Z" fill="#4E4E4E" stroke="#626C84" stroke-linecap="round" stroke-linejoin="round"/>
<path d="M140.366 132.949H134.133C133.846 132.949 133.614 133.182 133.614 133.469V139.702C133.614 139.989 133.846 140.221 134.133 140.221H140.366C140.653 140.221 140.886 139.989 140.886 139.702V133.469C140.886 133.182 140.653 132.949 140.366 132.949Z" fill="#4E4E4E" stroke="#626C84" stroke-linecap="round" stroke-linejoin="round"/>
<path d="M151.743 132.949H145.51C145.223 132.949 144.99 133.182 144.99 133.469V139.702C144.99 139.989 145.223 140.221 145.51 140.221H151.743C152.03 140.221 152.262 139.989 152.262 139.702V133.469C152.262 133.182 152.03 132.949 151.743 132.949Z" fill="#4E4E4E" stroke="#626C84" stroke-linecap="round" stroke-linejoin="round"/>
<path d="M163.119 132.949H156.886C156.599 132.949 156.366 133.182 156.366 133.469V139.702C156.366 139.989 156.599 140.221 156.886 140.221H163.119C163.406 140.221 163.638 139.989 163.638 139.702V133.469C163.638 133.182 163.406 132.949 163.119 132.949Z" fill="#4E4E4E" stroke="#626C84" stroke-linecap="round" stroke-linejoin="round"/>
<path d="M174.495 132.949H168.262C167.975 132.949 167.743 133.182 167.743 133.469V139.702C167.743 139.989 167.975 140.221 168.262 140.221H174.495C174.782 140.221 175.015 139.989 175.015 139.702V133.469C175.015 133.182 174.782 132.949 174.495 132.949Z" fill="#4E4E4E" stroke="#626C84" stroke-linecap="round" stroke-linejoin="round"/>
<path d="M185.871 132.949H179.638C179.351 132.949 179.119 133.182 179.119 133.469V139.702C179.119 139.989 179.351 140.221 179.638 140.221H185.871C186.158 140.221 186.391 139.989 186.391 139.702V133.469C186.391 133.182 186.158 132.949 185.871 132.949Z" fill="#4E4E4E" stroke="#626C84" stroke-linecap="round" stroke-linejoin="round"/>
<path d="M197.248 132.949H191.015C190.728 132.949 190.495 133.182 190.495 133.469V139.702C190.495 139.989 190.728 140.221 191.015 140.221H197.248C197.535 140.221 197.767 139.989 197.767 139.702V133.469C197.767 133.182 197.535 132.949 197.248 132.949Z" fill="#4E4E4E" stroke="#626C84" stroke-linecap="round" stroke-linejoin="round"/>
<path d="M208.624 132.949H202.391C202.104 132.949 201.871 133.182 201.871 133.469V139.702C201.871 139.989 202.104 140.221 202.391 140.221H208.624C208.911 140.221 209.143 139.989 209.143 139.702V133.469C209.143 133.182 208.911 132.949 208.624 132.949Z" fill="#4E4E4E" stroke="#626C84" stroke-linecap="round" stroke-linejoin="round"/>
<path d="M117.478 164.113H111.245C110.958 164.113 110.725 164.346 110.725 164.633V170.866C110.725 171.153 110.958 171.385 111.245 171.385H117.478C117.765 171.385 117.997 171.153 117.997 170.866V164.633C117.997 164.346 117.765 164.113 117.478 164.113Z" fill="#4E4E4E"/>
<path d="M106.238 164.113H100.005C99.7177 164.113 99.4852 164.346 99.4852 164.633V170.866C99.4852 171.153 99.7177 171.385 100.005 171.385H106.238C106.525 171.385 106.757 171.153 106.757 170.866V164.633C106.757 164.346 106.525 164.113 106.238 164.113Z" fill="#4E4E4E"/>
<path d="M173.677 164.113H122.484C122.197 164.113 121.965 164.346 121.965 164.633V170.866C121.965 171.153 122.197 171.385 122.484 171.385H173.677C173.964 171.385 174.197 171.153 174.197 170.866V164.633C174.197 164.346 173.964 164.113 173.677 164.113Z" fill="#4E4E4E"/>
<path d="M184.917 164.113H178.684C178.397 164.113 178.164 164.346 178.164 164.633V170.866C178.164 171.153 178.397 171.385 178.684 171.385H184.917C185.204 171.385 185.437 171.153 185.437 170.866V164.633C185.437 164.346 185.204 164.113 184.917 164.113Z" fill="#4E4E4E"/>
<path d="M201.352 168.211H197.196C196.909 168.211 196.677 168.443 196.677 168.73V170.873C196.677 171.16 196.909 171.393 197.196 171.393H201.352C201.639 171.393 201.871 171.16 201.871 170.873V168.73C201.871 168.443 201.639 168.211 201.352 168.211Z" fill="#4E4E4E"/>
<path d="M201.352 164.113H197.196C196.909 164.113 196.677 164.346 196.677 164.633V166.775C196.677 167.062 196.909 167.295 197.196 167.295H201.352C201.639 167.295 201.871 167.062 201.871 166.775V164.633C201.871 164.346 201.639 164.113 201.352 164.113Z" fill="#4E4E4E"/>
<path d="M208.624 168.211H204.468C204.181 168.211 203.949 168.443 203.949 168.73V170.873C203.949 171.16 204.181 171.393 204.468 171.393H208.624C208.911 171.393 209.143 171.16 209.143 170.873V168.73C209.143 168.443 208.911 168.211 208.624 168.211Z" fill="#4E4E4E"/>
<path d="M194.08 168.211H189.924C189.637 168.211 189.405 168.443 189.405 168.73V170.873C189.405 171.16 189.637 171.393 189.924 171.393H194.08C194.366 171.393 194.599 171.16 194.599 170.873V168.73C194.599 168.443 194.366 168.211 194.08 168.211Z" fill="#4E4E4E"/>
<path d="M116.439 153.773H100.005C99.7177 153.773 99.4852 154.006 99.4852 154.293V160.526C99.4852 160.813 99.7177 161.046 100.005 161.046H116.439C116.726 161.046 116.959 160.813 116.959 160.526V154.293C116.959 154.006 116.726 153.773 116.439 153.773Z" fill="#4E4E4E"/>
<path d="M127.773 153.773H121.539C121.253 153.773 121.02 154.006 121.02 154.293V160.526C121.02 160.813 121.253 161.046 121.539 161.046H127.773C128.06 161.046 128.292 160.813 128.292 160.526V154.293C128.292 154.006 128.06 153.773 127.773 153.773Z" fill="#4E4E4E"/>
<path d="M139.013 153.773H132.78C132.493 153.773 132.26 154.006 132.26 154.293V160.526C132.26 160.813 132.493 161.046 132.78 161.046H139.013C139.3 161.046 139.532 160.813 139.532 160.526V154.293C139.532 154.006 139.3 153.773 139.013 153.773Z" fill="#4E4E4E"/>
<path d="M150.252 153.773H144.019C143.732 153.773 143.5 154.006 143.5 154.293V160.526C143.5 160.813 143.732 161.046 144.019 161.046H150.252C150.539 161.046 150.772 160.813 150.772 160.526V154.293C150.772 154.006 150.539 153.773 150.252 153.773Z" fill="#4E4E4E"/>
<path d="M161.493 153.773H155.259C154.973 153.773 154.74 154.006 154.74 154.293V160.526C154.74 160.813 154.973 161.046 155.259 161.046H161.493C161.78 161.046 162.012 160.813 162.012 160.526V154.293C162.012 154.006 161.78 153.773 161.493 153.773Z" fill="#4E4E4E"/>
<path d="M172.732 153.773H166.499C166.212 153.773 165.98 154.006 165.98 154.293V160.526C165.98 160.813 166.212 161.046 166.499 161.046H172.732C173.019 161.046 173.252 160.813 173.252 160.526V154.293C173.252 154.006 173.019 153.773 172.732 153.773Z" fill="#4E4E4E"/>
<path d="M183.972 153.773H177.739C177.452 153.773 177.22 154.006 177.22 154.293V160.526C177.22 160.813 177.452 161.046 177.739 161.046H183.972C184.259 161.046 184.492 160.813 184.492 160.526V154.293C184.492 154.006 184.259 153.773 183.972 153.773Z" fill="#4E4E4E"/>
<path d="M208.624 153.773H189.924C189.637 153.773 189.405 154.006 189.405 154.293V160.526C189.405 160.813 189.637 161.046 189.924 161.046H208.624C208.911 161.046 209.143 160.813 209.143 160.526V154.293C209.143 154.006 208.911 153.773 208.624 153.773Z" fill="#4E4E4E"/>
<path d="M123.711 143.133H117.478C117.191 143.133 116.958 143.365 116.958 143.652V149.886C116.958 150.172 117.191 150.405 117.478 150.405H123.711C123.998 150.405 124.231 150.172 124.231 149.886V143.652C124.231 143.365 123.998 143.133 123.711 143.133Z" fill="#4E4E4E"/>
<path d="M112.471 143.133H100.005C99.7177 143.133 99.4852 143.365 99.4852 143.652V149.886C99.4852 150.172 99.7177 150.405 100.005 150.405H112.471C112.758 150.405 112.991 150.172 112.991 149.886V143.652C112.991 143.365 112.758 143.133 112.471 143.133Z" fill="#4E4E4E"/>
<path d="M134.951 143.133H128.717C128.431 143.133 128.198 143.365 128.198 143.652V149.886C128.198 150.172 128.431 150.405 128.717 150.405H134.951C135.238 150.405 135.47 150.172 135.47 149.886V143.652C135.47 143.365 135.238 143.133 134.951 143.133Z" fill="#4E4E4E"/>
<path d="M146.191 143.133H139.958C139.671 143.133 139.438 143.365 139.438 143.652V149.886C139.438 150.172 139.671 150.405 139.958 150.405H146.191C146.478 150.405 146.711 150.172 146.711 149.886V143.652C146.711 143.365 146.478 143.133 146.191 143.133Z" fill="#4E4E4E"/>
<path d="M157.431 143.133H151.197C150.91 143.133 150.678 143.365 150.678 143.652V149.886C150.678 150.172 150.91 150.405 151.197 150.405H157.431C157.718 150.405 157.95 150.172 157.95 149.886V143.652C157.95 143.365 157.718 143.133 157.431 143.133Z" fill="#4E4E4E"/>
<path d="M168.671 143.133H162.437C162.151 143.133 161.918 143.365 161.918 143.652V149.886C161.918 150.172 162.151 150.405 162.437 150.405H168.671C168.958 150.405 169.19 150.172 169.19 149.886V143.652C169.19 143.365 168.958 143.133 168.671 143.133Z" fill="#4E4E4E"/>
<path d="M179.911 143.133H173.678C173.391 143.133 173.158 143.365 173.158 143.652V149.886C173.158 150.172 173.391 150.405 173.678 150.405H179.911C180.198 150.405 180.43 150.172 180.43 149.886V143.652C180.43 143.365 180.198 143.133 179.911 143.133Z" fill="#4E4E4E"/>
<path d="M191.151 143.133H184.917C184.63 143.133 184.398 143.365 184.398 143.652V149.886C184.398 150.172 184.63 150.405 184.917 150.405H191.151C191.437 150.405 191.67 150.172 191.67 149.886V143.652C191.67 143.365 191.437 143.133 191.151 143.133Z" fill="#4E4E4E"/>
<path d="M208.624 143.133H196.157C195.87 143.133 195.638 143.365 195.638 143.652V149.886C195.638 150.172 195.87 150.405 196.157 150.405H208.624C208.911 150.405 209.143 150.172 209.143 149.886V143.652C209.143 143.365 208.911 143.133 208.624 143.133Z" fill="#4E4E4E"/>
<path d="M117.614 132.949H111.381C111.094 132.949 110.861 133.182 110.861 133.469V139.702C110.861 139.989 111.094 140.221 111.381 140.221H117.614C117.901 140.221 118.133 139.989 118.133 139.702V133.469C118.133 133.182 117.901 132.949 117.614 132.949Z" fill="#4E4E4E"/>
<path d="M106.238 132.949H100.005C99.7177 132.949 99.4852 133.182 99.4852 133.469V139.702C99.4852 139.989 99.7177 140.221 100.005 140.221H106.238C106.525 140.221 106.757 139.989 106.757 139.702V133.469C106.757 133.182 106.525 132.949 106.238 132.949Z" fill="#4E4E4E"/>
<path d="M128.99 132.949H122.757C122.47 132.949 122.238 133.182 122.238 133.469V139.702C122.238 139.989 122.47 140.221 122.757 140.221H128.99C129.277 140.221 129.51 139.989 129.51 139.702V133.469C129.51 133.182 129.277 132.949 128.99 132.949Z" fill="#4E4E4E"/>
<path d="M140.366 132.949H134.133C133.846 132.949 133.614 133.182 133.614 133.469V139.702C133.614 139.989 133.846 140.221 134.133 140.221H140.366C140.653 140.221 140.886 139.989 140.886 139.702V133.469C140.886 133.182 140.653 132.949 140.366 132.949Z" fill="#4E4E4E"/>
<path d="M151.743 132.949H145.51C145.223 132.949 144.99 133.182 144.99 133.469V139.702C144.99 139.989 145.223 140.221 145.51 140.221H151.743C152.03 140.221 152.262 139.989 152.262 139.702V133.469C152.262 133.182 152.03 132.949 151.743 132.949Z" fill="#4E4E4E"/>
<path d="M163.119 132.949H156.886C156.599 132.949 156.366 133.182 156.366 133.469V139.702C156.366 139.989 156.599 140.221 156.886 140.221H163.119C163.406 140.221 163.638 139.989 163.638 139.702V133.469C163.638 133.182 163.406 132.949 163.119 132.949Z" fill="#4E4E4E"/>
<path d="M174.495 132.949H168.262C167.975 132.949 167.743 133.182 167.743 133.469V139.702C167.743 139.989 167.975 140.221 168.262 140.221H174.495C174.782 140.221 175.015 139.989 175.015 139.702V133.469C175.015 133.182 174.782 132.949 174.495 132.949Z" fill="#4E4E4E"/>
<path d="M185.871 132.949H179.638C179.351 132.949 179.119 133.182 179.119 133.469V139.702C179.119 139.989 179.351 140.221 179.638 140.221H185.871C186.158 140.221 186.391 139.989 186.391 139.702V133.469C186.391 133.182 186.158 132.949 185.871 132.949Z" fill="#4E4E4E"/>
<path d="M197.248 132.949H191.015C190.728 132.949 190.495 133.182 190.495 133.469V139.702C190.495 139.989 190.728 140.221 191.015 140.221H197.248C197.535 140.221 197.767 139.989 197.767 139.702V133.469C197.767 133.182 197.535 132.949 197.248 132.949Z" fill="#4E4E4E"/>
<path d="M208.624 132.949H202.391C202.104 132.949 201.871 133.182 201.871 133.469V139.702C201.871 139.989 202.104 140.221 202.391 140.221H208.624C208.911 140.221 209.143 139.989 209.143 139.702V133.469C209.143 133.182 208.911 132.949 208.624 132.949Z" fill="#4E4E4E"/>
<path d="M110.162 116.379H198.466V123.363C198.466 123.914 198.247 124.443 197.858 124.832C197.468 125.222 196.94 125.441 196.389 125.441H112.239C111.688 125.441 111.16 125.222 110.77 124.832C110.381 124.443 110.162 123.914 110.162 123.363V116.379Z" fill="#4E4E4E"/>
<g style="mix-blend-mode:multiply" opacity="0.25">
<path d="M196.389 123.363H112.239C111.688 123.363 111.16 123.144 110.77 122.754C110.381 122.365 110.162 121.836 110.162 121.285V123.363C110.162 123.914 110.381 124.442 110.77 124.832C111.16 125.222 111.688 125.441 112.239 125.441H196.389C196.94 125.441 197.468 125.222 197.858 124.832C198.247 124.442 198.466 123.914 198.466 123.363V121.285C198.466 121.836 198.247 122.365 197.858 122.754C197.468 123.144 196.94 123.363 196.389 123.363Z" fill="#4E4E4E"/>
</g>
<path d="M110.162 116.379H198.466V123.363C198.466 123.914 198.247 124.443 197.858 124.832C197.468 125.222 196.94 125.441 196.389 125.441H112.239C111.688 125.441 111.16 125.222 110.77 124.832C110.381 124.443 110.162 123.914 110.162 123.363V116.379Z" fill="#4E4E4E" stroke="#46505C" stroke-width="2" stroke-linecap="round" stroke-linejoin="round"/>
<path d="M172.495 178.398H136.134C135.56 178.398 135.095 178.864 135.095 179.437V203.851C135.095 204.425 135.56 204.89 136.134 204.89H172.495C173.069 204.89 173.534 204.425 173.534 203.851V179.437C173.534 178.864 173.069 178.398 172.495 178.398Z" fill="#4E4E4E"/>
<path d="M172.495 178.398H136.134C135.56 178.398 135.095 178.864 135.095 179.437V203.851C135.095 204.425 135.56 204.89 136.134 204.89H172.495C173.069 204.89 173.534 204.425 173.534 203.851V179.437C173.534 178.864 173.069 178.398 172.495 178.398Z" fill="#4E4E4E" stroke="#626C84" stroke-linecap="round" stroke-linejoin="round"/>
</g>
<g style="mix-blend-mode:multiply" opacity="0.33">
<path d="M39.7805 172.974L43.7885 167.246C43.8431 167.168 43.9265 167.114 44.0204 167.098C44.1142 167.081 44.2108 167.103 44.2888 167.157L48.3797 170.019C48.4578 170.074 48.5109 170.157 48.5275 170.251C48.5441 170.345 48.5227 170.442 48.4681 170.52L44.4601 176.248C44.0654 176.813 43.4628 177.197 42.7848 177.317C42.1068 177.437 41.409 177.282 40.8448 176.887L40.4194 176.59C39.8553 176.195 39.471 175.592 39.3512 174.914C39.2314 174.236 39.3858 173.539 39.7805 172.974V172.974Z" fill="#4E4E4E" stroke="#46505C" stroke-width="3.99818" stroke-linecap="round" stroke-linejoin="round"/>
<path d="M39.7805 172.974L43.7885 167.246C43.8431 167.168 43.9265 167.114 44.0204 167.098C44.1142 167.081 44.2108 167.103 44.2888 167.157L48.3797 170.019C48.4578 170.074 48.5109 170.157 48.5275 170.251C48.5441 170.345 48.5227 170.442 48.4681 170.52L44.4601 176.248C44.0654 176.813 43.4628 177.197 42.7848 177.317C42.1068 177.437 41.409 177.282 40.8448 176.887L40.4194 176.59C39.8553 176.195 39.471 175.592 39.3512 174.914C39.2314 174.236 39.3858 173.539 39.7805 172.974V172.974Z" fill="#4E4E4E" stroke="#46505C" stroke-width="3.99818" stroke-linecap="round" stroke-linejoin="round"/>
<path d="M55.1708 173.073C64.5162 173.073 72.0921 165.497 72.0921 156.152C72.0921 146.806 64.5162 139.23 55.1708 139.23C45.8255 139.23 38.2496 146.806 38.2496 156.152C38.2496 165.497 45.8255 173.073 55.1708 173.073Z" fill="#4E4E4E" stroke="#46505C" stroke-width="4" stroke-linecap="round" stroke-linejoin="round"/>
<path d="M55.1708 173.073C64.5162 173.073 72.0921 165.497 72.0921 156.152C72.0921 146.806 64.5162 139.23 55.1708 139.23C45.8255 139.23 38.2496 146.806 38.2496 156.152C38.2496 165.497 45.8255 173.073 55.1708 173.073Z" fill="#4E4E4E" stroke="#46505C" stroke-width="4" stroke-linecap="round" stroke-linejoin="round"/>
<path d="M55.1708 169.321C62.4446 169.321 68.3411 163.425 68.3411 156.151C68.3411 148.877 62.4446 142.98 55.1708 142.98C47.8969 142.98 42.0004 148.877 42.0004 156.151C42.0004 163.425 47.8969 169.321 55.1708 169.321Z" fill="#4E4E4E" stroke="#46505C" stroke-width="4" stroke-linecap="round" stroke-linejoin="round"/>
<path d="M55.1708 169.321C62.4446 169.321 68.3411 163.425 68.3411 156.151C68.3411 148.877 62.4446 142.98 55.1708 142.98C47.8969 142.98 42.0004 148.877 42.0004 156.151C42.0004 163.425 47.8969 169.321 55.1708 169.321Z" fill="#4E4E4E" stroke="#46505C" stroke-width="4" stroke-linecap="round" stroke-linejoin="round"/>
<g style="mix-blend-mode:multiply" opacity="0.33">
<path d="M46.5611 153.417C46.7372 153.021 46.9278 152.632 47.1221 152.251C48.0051 150.52 49.0612 148.726 50.7467 147.666C52.1778 146.765 54.1792 146.412 55.7302 147.209C57.0756 147.9 57.8864 149.321 59.1139 150.205C59.9411 150.712 60.8008 151.164 61.6872 151.558C62.582 151.961 63.2901 152.689 63.6678 153.595C64.0833 154.864 63.3982 156.219 63.3915 157.555C63.3891 158.292 63.5938 159.015 63.9821 159.641C64.2273 159.934 64.3848 160.291 64.4366 160.669C64.3992 160.912 64.2966 161.139 64.1397 161.328C63.9827 161.517 63.7774 161.659 63.5457 161.739C62.1817 162.384 60.5886 162.151 59.0884 161.989C57.5883 161.827 55.9271 161.793 54.7412 162.726C54.2558 163.173 53.8061 163.658 53.3964 164.176C53.2234 164.436 52.9951 164.654 52.728 164.814C52.4608 164.975 52.1614 165.075 51.8511 165.107C51.5409 165.138 51.2275 165.101 50.9334 164.997C50.6393 164.894 50.3717 164.726 50.1499 164.507C49.0748 163.606 48.142 162.549 47.3834 161.369C46.5859 160.371 46.0227 159.207 45.7352 157.963C45.4656 156.418 45.9149 154.871 46.5611 153.417Z" fill="#4E4E4E"/>
<path d="M46.5611 153.417C46.7372 153.021 46.9278 152.632 47.1221 152.251C48.0051 150.52 49.0612 148.726 50.7467 147.666C52.1778 146.765 54.1792 146.412 55.7302 147.209C57.0756 147.9 57.8864 149.321 59.1139 150.205C59.9411 150.712 60.8008 151.164 61.6872 151.558C62.582 151.961 63.2901 152.689 63.6678 153.595C64.0833 154.864 63.3982 156.219 63.3915 157.555C63.3891 158.292 63.5938 159.015 63.9821 159.641C64.2273 159.934 64.3848 160.291 64.4366 160.669C64.3992 160.912 64.2966 161.139 64.1397 161.328C63.9827 161.517 63.7774 161.659 63.5457 161.739C62.1817 162.384 60.5886 162.151 59.0884 161.989C57.5883 161.827 55.9271 161.793 54.7412 162.726C54.2558 163.173 53.8061 163.658 53.3964 164.176C53.2234 164.436 52.9951 164.654 52.728 164.814C52.4608 164.975 52.1614 165.075 51.8511 165.107C51.5409 165.138 51.2275 165.101 50.9334 164.997C50.6393 164.894 50.3717 164.726 50.1499 164.507C49.0748 163.606 48.142 162.549 47.3834 161.369C46.5859 160.371 46.0227 159.207 45.7352 157.963C45.4656 156.418 45.9149 154.871 46.5611 153.417Z" stroke="#46505C" stroke-width="4" stroke-linecap="round" stroke-linejoin="round"/>
</g>
<g style="mix-blend-mode:multiply" opacity="0.33">
<path d="M57.8344 166.116C58.286 166.116 58.652 165.75 58.652 165.298C58.652 164.847 58.286 164.48 57.8344 164.48C57.3829 164.48 57.0168 164.847 57.0168 165.298C57.0168 165.75 57.3829 166.116 57.8344 166.116Z" fill="#4E4E4E"/>
<path d="M57.8344 166.116C58.286 166.116 58.652 165.75 58.652 165.298C58.652 164.847 58.286 164.48 57.8344 164.48C57.3829 164.48 57.0168 164.847 57.0168 165.298C57.0168 165.75 57.3829 166.116 57.8344 166.116Z" stroke="#46505C" stroke-width="4" stroke-linecap="round" stroke-linejoin="round"/>
</g>
<g style="mix-blend-mode:multiply" opacity="0.33">
<path d="M55.7064 166.171C56.0191 166.171 56.2726 165.918 56.2726 165.605C56.2726 165.293 56.0191 165.039 55.7064 165.039C55.3937 165.039 55.1402 165.293 55.1402 165.605C55.1402 165.918 55.3937 166.171 55.7064 166.171Z" fill="#4E4E4E"/>
<path d="M55.7064 166.171C56.0191 166.171 56.2726 165.918 56.2726 165.605C56.2726 165.293 56.0191 165.039 55.7064 165.039C55.3937 165.039 55.1402 165.293 55.1402 165.605C55.1402 165.918 55.3937 166.171 55.7064 166.171Z" stroke="#46505C" stroke-width="4" stroke-linecap="round" stroke-linejoin="round"/>
</g>
<g style="mix-blend-mode:multiply" opacity="0.33">
<path d="M59.7663 165.054C60.0497 165.054 60.2795 164.824 60.2795 164.541C60.2795 164.257 60.0497 164.027 59.7663 164.027C59.4828 164.027 59.2531 164.257 59.2531 164.541C59.2531 164.824 59.4828 165.054 59.7663 165.054Z" fill="#4E4E4E"/>
<path d="M59.7663 165.054C60.0497 165.054 60.2795 164.824 60.2795 164.541C60.2795 164.257 60.0497 164.027 59.7663 164.027C59.4828 164.027 59.2531 164.257 59.2531 164.541C59.2531 164.824 59.4828 165.054 59.7663 165.054Z" stroke="#46505C" stroke-width="4" stroke-linecap="round" stroke-linejoin="round"/>
</g>
<g style="mix-blend-mode:multiply" opacity="0.33">
<path d="M53.9153 166.181C54.1184 166.181 54.2831 166.016 54.2831 165.813C54.2831 165.61 54.1184 165.445 53.9153 165.445C53.7122 165.445 53.5475 165.61 53.5475 165.813C53.5475 166.016 53.7122 166.181 53.9153 166.181Z" fill="#4E4E4E"/>
<path d="M53.9153 166.181C54.1184 166.181 54.2831 166.016 54.2831 165.813C54.2831 165.61 54.1184 165.445 53.9153 165.445C53.7122 165.445 53.5475 165.61 53.5475 165.813C53.5475 166.016 53.7122 166.181 53.9153 166.181Z" stroke="#46505C" stroke-width="4" stroke-linecap="round" stroke-linejoin="round"/>
</g>
<g style="mix-blend-mode:multiply" opacity="0.33">
<path d="M61.3875 164.226C61.5114 164.226 61.6119 164.126 61.6119 164.002C61.6119 163.878 61.5114 163.777 61.3875 163.777C61.2636 163.777 61.1631 163.878 61.1631 164.002C61.1631 164.126 61.2636 164.226 61.3875 164.226Z" fill="#4E4E4E"/>
<path d="M61.3875 164.226C61.5114 164.226 61.6119 164.126 61.6119 164.002C61.6119 163.878 61.5114 163.777 61.3875 163.777C61.2636 163.777 61.1631 163.878 61.1631 164.002C61.1631 164.126 61.2636 164.226 61.3875 164.226Z" stroke="#46505C" stroke-width="4" stroke-linecap="round" stroke-linejoin="round"/>
</g>
<g style="mix-blend-mode:multiply" opacity="0.33">
<path d="M44.9508 153.565C45.2417 153.565 45.4775 153.329 45.4775 153.038C45.4775 152.748 45.2417 152.512 44.9508 152.512C44.6599 152.512 44.4241 152.748 44.4241 153.038C44.4241 153.329 44.6599 153.565 44.9508 153.565Z" fill="#4E4E4E"/>
<path d="M44.9508 153.565C45.2417 153.565 45.4775 153.329 45.4775 153.038C45.4775 152.748 45.2417 152.512 44.9508 152.512C44.6599 152.512 44.4241 152.748 44.4241 153.038C44.4241 153.329 44.6599 153.565 44.9508 153.565Z" stroke="#46505C" stroke-width="4" stroke-linecap="round" stroke-linejoin="round"/>
</g>
<g style="mix-blend-mode:multiply" opacity="0.33">
<path d="M59.29 147.405C59.5637 147.405 59.7855 147.183 59.7855 146.91C59.7855 146.636 59.5637 146.414 59.29 146.414C59.0163 146.414 58.7944 146.636 58.7944 146.91C58.7944 147.183 59.0163 147.405 59.29 147.405Z" fill="#4E4E4E"/>
<path d="M59.29 147.405C59.5637 147.405 59.7855 147.183 59.7855 146.91C59.7855 146.636 59.5637 146.414 59.29 146.414C59.0163 146.414 58.7944 146.636 58.7944 146.91C58.7944 147.183 59.0163 147.405 59.29 147.405Z" stroke="#46505C" stroke-width="4" stroke-linecap="round" stroke-linejoin="round"/>
</g>
<g style="mix-blend-mode:multiply" opacity="0.33">
<path d="M62.5111 149.804C62.7589 149.804 62.9598 149.603 62.9598 149.355C62.9598 149.107 62.7589 148.906 62.5111 148.906C62.2632 148.906 62.0623 149.107 62.0623 149.355C62.0623 149.603 62.2632 149.804 62.5111 149.804Z" fill="#4E4E4E"/>
<path d="M62.5111 149.804C62.7589 149.804 62.9598 149.603 62.9598 149.355C62.9598 149.107 62.7589 148.906 62.5111 148.906C62.2632 148.906 62.0623 149.107 62.0623 149.355C62.0623 149.603 62.2632 149.804 62.5111 149.804Z" stroke="#46505C" stroke-width="4" stroke-linecap="round" stroke-linejoin="round"/>
</g>
<g style="mix-blend-mode:multiply" opacity="0.33">
<path d="M62.8793 150.822C62.9878 150.822 63.0757 150.734 63.0757 150.626C63.0757 150.518 62.9878 150.43 62.8793 150.43C62.7709 150.43 62.683 150.518 62.683 150.626C62.683 150.734 62.7709 150.822 62.8793 150.822Z" fill="#4E4E4E"/>
<path d="M62.8793 150.822C62.9878 150.822 63.0757 150.734 63.0757 150.626C63.0757 150.518 62.9878 150.43 62.8793 150.43C62.7709 150.43 62.683 150.518 62.683 150.626C62.683 150.734 62.7709 150.822 62.8793 150.822Z" stroke="#46505C" stroke-width="4" stroke-linecap="round" stroke-linejoin="round"/>
</g>
</g>
<path d="M36.1031 168.81L40.1137 163.08C40.1684 163.001 40.2518 162.948 40.3457 162.932C40.4396 162.915 40.5362 162.937 40.6143 162.991L44.7064 165.855C44.7845 165.91 44.8377 165.994 44.8543 166.087C44.8709 166.181 44.8495 166.278 44.7948 166.356L40.7842 172.086C40.3892 172.65 39.7862 173.035 39.1079 173.155C38.4295 173.274 37.7314 173.12 37.1671 172.725L36.7416 172.427C36.1772 172.032 35.7929 171.429 35.6732 170.75C35.5534 170.072 35.7081 169.374 36.1031 168.81V168.81Z" fill="white" stroke="#E6F3FF" stroke-width="2" stroke-miterlimit="10"/>
<path opacity="0.18" d="M40.614 162.994C40.5359 162.94 40.4394 162.919 40.3456 162.935C40.2518 162.952 40.1684 163.005 40.1138 163.083L38.3077 165.663C39.0002 166.323 39.7415 166.929 40.5252 167.478C41.3088 168.026 42.1321 168.514 42.9884 168.94L44.7945 166.359C44.8216 166.321 44.8409 166.277 44.8511 166.231C44.8614 166.185 44.8625 166.137 44.8543 166.091C44.8461 166.044 44.8287 166 44.8033 165.96C44.7779 165.92 44.7449 165.886 44.7062 165.859L40.614 162.994Z" fill="#4E4E4E" stroke="#46505C" stroke-width="4" stroke-linecap="round" stroke-linejoin="round"/>
<path d="M36.1031 168.81L40.1137 163.08C40.1684 163.001 40.2518 162.948 40.3457 162.932C40.4396 162.915 40.5362 162.937 40.6143 162.991L44.7064 165.855C44.7845 165.91 44.8377 165.994 44.8543 166.087C44.8709 166.181 44.8495 166.278 44.7948 166.356L40.7842 172.086C40.3892 172.65 39.7862 173.035 39.1079 173.155C38.4295 173.274 37.7314 173.12 37.1671 172.725L36.7416 172.427C36.1772 172.032 35.7929 171.429 35.6732 170.75C35.5534 170.072 35.7081 169.374 36.1031 168.81Z" stroke="#46505C" stroke-width="2" stroke-linecap="round" stroke-linejoin="round"/>
<path d="M51.4195 168.835C60.7649 168.835 68.3408 161.259 68.3408 151.913C68.3408 142.568 60.7649 134.992 51.4195 134.992C42.0742 134.992 34.4983 142.568 34.4983 151.913C34.4983 161.259 42.0742 168.835 51.4195 168.835Z" fill="white" stroke="#E6F3FF" stroke-width="2" stroke-miterlimit="10"/>
<path d="M51.4195 168.835C60.7649 168.835 68.3408 161.259 68.3408 151.913C68.3408 142.568 60.7649 134.992 51.4195 134.992C42.0742 134.992 34.4983 142.568 34.4983 151.913C34.4983 161.259 42.0742 168.835 51.4195 168.835Z" stroke="#46505C" stroke-width="2" stroke-linecap="round" stroke-linejoin="round"/>
<path d="M51.4195 165.079C58.6933 165.079 64.5898 159.182 64.5898 151.909C64.5898 144.635 58.6933 138.738 51.4195 138.738C44.1457 138.738 38.2491 144.635 38.2491 151.909C38.2491 159.182 44.1457 165.079 51.4195 165.079Z" fill="#845B5B"/>
<path d="M51.4195 165.079C58.6933 165.079 64.5898 159.182 64.5898 151.909C64.5898 144.635 58.6933 138.738 51.4195 138.738C44.1457 138.738 38.2491 144.635 38.2491 151.909C38.2491 159.182 44.1457 165.079 51.4195 165.079Z" stroke="#46505C" stroke-linecap="round" stroke-linejoin="round"/>
<g style="mix-blend-mode:multiply" opacity="0.33">
<path d="M42.8098 149.179C42.9859 148.783 43.1765 148.393 43.3708 148.012C44.2538 146.282 45.3104 144.488 46.9954 143.427C48.427 142.526 50.4279 142.174 51.9789 142.971C53.3243 143.661 54.1351 145.083 55.3626 145.966C56.1901 146.472 57.0499 146.923 57.9364 147.317C58.8307 147.72 59.5387 148.447 59.917 149.352C60.3326 150.622 59.6474 151.977 59.6402 153.312C59.6378 154.049 59.8425 154.772 60.2308 155.399C60.4761 155.692 60.6338 156.048 60.6858 156.427C60.6486 156.669 60.546 156.897 60.389 157.086C60.2321 157.274 60.0267 157.417 59.7949 157.497C58.4304 158.141 56.8373 157.909 55.3371 157.747C53.837 157.584 52.1763 157.551 50.9899 158.483C50.5046 158.931 50.0549 159.416 49.6451 159.933C49.4721 160.193 49.2438 160.411 48.9767 160.572C48.7095 160.733 48.4102 160.832 48.0999 160.864C47.7897 160.896 47.4763 160.858 47.1822 160.755C46.8881 160.651 46.6205 160.484 46.3986 160.265C45.3236 159.364 44.3909 158.306 43.6321 157.126C42.8353 156.129 42.2726 154.966 41.9854 153.723C41.7117 152.179 42.1641 150.633 42.8098 149.179Z" fill="#845B5B"/>
</g>
<g style="mix-blend-mode:multiply" opacity="0.33">
<path d="M54.083 161.885C54.5346 161.885 54.9006 161.519 54.9006 161.068C54.9006 160.616 54.5346 160.25 54.083 160.25C53.6315 160.25 53.2654 160.616 53.2654 161.068C53.2654 161.519 53.6315 161.885 54.083 161.885Z" fill="#845B5B"/>
</g>
<g style="mix-blend-mode:multiply" opacity="0.33">
<path d="M51.9549 161.937C52.2676 161.937 52.5211 161.684 52.5211 161.371C52.5211 161.058 52.2676 160.805 51.9549 160.805C51.6422 160.805 51.3887 161.058 51.3887 161.371C51.3887 161.684 51.6422 161.937 51.9549 161.937Z" fill="#845B5B"/>
</g>
<g style="mix-blend-mode:multiply" opacity="0.33">
<path d="M56.0148 160.819C56.2982 160.819 56.528 160.59 56.528 160.306C56.528 160.023 56.2982 159.793 56.0148 159.793C55.7314 159.793 55.5016 160.023 55.5016 160.306C55.5016 160.59 55.7314 160.819 56.0148 160.819Z" fill="#845B5B"/>
</g>
<g style="mix-blend-mode:multiply" opacity="0.33">
<path d="M50.164 161.946C50.3671 161.946 50.5317 161.782 50.5317 161.579C50.5317 161.376 50.3671 161.211 50.164 161.211C49.9609 161.211 49.7962 161.376 49.7962 161.579C49.7962 161.782 49.9609 161.946 50.164 161.946Z" fill="#845B5B"/>
</g>
<g style="mix-blend-mode:multiply" opacity="0.33">
<path d="M57.636 159.988C57.7599 159.988 57.8604 159.887 57.8604 159.763C57.8604 159.64 57.7599 159.539 57.636 159.539C57.5121 159.539 57.4116 159.64 57.4116 159.763C57.4116 159.887 57.5121 159.988 57.636 159.988Z" fill="#845B5B"/>
</g>
<g style="mix-blend-mode:multiply" opacity="0.33">
<path d="M41.1995 149.331C41.4904 149.331 41.7262 149.095 41.7262 148.804C41.7262 148.513 41.4904 148.277 41.1995 148.277C40.9086 148.277 40.6728 148.513 40.6728 148.804C40.6728 149.095 40.9086 149.331 41.1995 149.331Z" fill="#845B5B"/>
</g>
<g style="mix-blend-mode:multiply" opacity="0.33">
<path d="M55.5386 143.167C55.8123 143.167 56.0341 142.945 56.0341 142.671C56.0341 142.398 55.8123 142.176 55.5386 142.176C55.2649 142.176 55.043 142.398 55.043 142.671C55.043 142.945 55.2649 143.167 55.5386 143.167Z" fill="#845B5B"/>
</g>
<g style="mix-blend-mode:multiply" opacity="0.33">
<path d="M58.7596 145.562C59.0075 145.562 59.2084 145.361 59.2084 145.113C59.2084 144.865 59.0075 144.664 58.7596 144.664C58.5118 144.664 58.3109 144.865 58.3109 145.113C58.3109 145.361 58.5118 145.562 58.7596 145.562Z" fill="#845B5B"/>
</g>
<g style="mix-blend-mode:multiply" opacity="0.33">
<path d="M59.1278 146.576C59.2362 146.576 59.3242 146.488 59.3242 146.38C59.3242 146.271 59.2362 146.184 59.1278 146.184C59.0194 146.184 58.9315 146.271 58.9315 146.38C58.9315 146.488 59.0194 146.576 59.1278 146.576Z" fill="#845B5B"/>
</g>
<path d="M52.5736 154.043C53.1474 154.043 53.6125 153.577 53.6125 153.004C53.6125 152.43 53.1474 151.965 52.5736 151.965C51.9999 151.965 51.5347 152.43 51.5347 153.004C51.5347 153.577 51.9999 154.043 52.5736 154.043Z" fill="#845B5B"/>
<path d="M49.19 150.824C50.1941 150.824 51.0081 150.01 51.0081 149.006C51.0081 148.001 50.1941 147.188 49.19 147.188C48.186 147.188 47.372 148.001 47.372 149.006C47.372 150.01 48.186 150.824 49.19 150.824Z" fill="#845B5B"/>
<path d="M210.439 30.9609H89.9296C85.9133 30.9609 82.6574 34.2168 82.6574 38.2331V108.877C82.6574 112.893 85.9133 116.149 89.9296 116.149H210.439C214.456 116.149 217.712 112.893 217.712 108.877V38.2331C217.712 34.2168 214.456 30.9609 210.439 30.9609Z" stroke="black" stroke-linecap="round" stroke-linejoin="round"/>
<path d="M210.439 30.9609H89.9296C85.9133 30.9609 82.6574 34.2168 82.6574 38.2331V108.877C82.6574 112.893 85.9133 116.149 89.9296 116.149H210.439C214.456 116.149 217.712 112.893 217.712 108.877V38.2331C217.712 34.2168 214.456 30.9609 210.439 30.9609Z" fill="#626C84"/>
<path d="M210.439 30.9609H89.9296C85.9133 30.9609 82.6574 34.2168 82.6574 38.2331V108.877C82.6574 112.893 85.9133 116.149 89.9296 116.149H210.439C214.456 116.149 217.712 112.893 217.712 108.877V38.2331C217.712 34.2168 214.456 30.9609 210.439 30.9609Z" fill="#626C84"/>
<g style="mix-blend-mode:multiply" opacity="0.17">
<path d="M210.439 30.9609H89.9296C85.9133 30.9609 82.6574 34.2168 82.6574 38.2331V104.21C82.6574 108.226 85.9133 111.482 89.9296 111.482H210.439C214.456 111.482 217.712 108.226 217.712 104.21V38.2331C217.712 34.2168 214.456 30.9609 210.439 30.9609Z" fill="#626C84"/>
</g>
<path opacity="0.1" d="M89.9296 33.0387H210.439C212.368 33.0387 214.218 33.8049 215.582 35.1687C216.945 36.5325 217.712 38.3822 217.712 40.3108V108.877V38.2331C217.712 36.3044 216.945 34.4547 215.582 33.0909C214.218 31.7271 212.368 30.9609 210.439 30.9609H89.9296C88.0009 30.9609 86.1512 31.7271 84.7874 33.0909C83.4236 34.4547 82.6574 36.3044 82.6574 38.2331V40.3108C82.6574 38.3822 83.4236 36.5325 84.7874 35.1687C86.1512 33.8049 88.0009 33.0387 89.9296 33.0387V33.0387Z" fill="white"/>
<g opacity="0.1">
<path d="M123.811 116.153H132.158L194.051 30.9648H185.704L123.811 116.153Z" fill="white"/>
<path d="M136.973 116.153H139.541L201.435 30.9648H198.866L136.973 116.153Z" fill="white"/>
</g>
<path d="M210.439 30.9609H89.9296C85.9133 30.9609 82.6574 34.2168 82.6574 38.2331V108.877C82.6574 112.893 85.9133 116.149 89.9296 116.149H210.439C214.456 116.149 217.712 112.893 217.712 108.877V38.2331C217.712 34.2168 214.456 30.9609 210.439 30.9609Z" stroke="#46505C" stroke-width="2" stroke-linecap="round" stroke-linejoin="round"/>
<path d="M208.362 106.012V40.5625L92.0073 40.5625V106.012L208.362 106.012Z" fill="#55FFF1"/>
<g opacity="0.06">
<path d="M131.697 106.02H140.044L187.596 40.5703H179.249L131.697 106.02Z" fill="white"/>
<path d="M144.859 106.02H147.428L194.979 40.5703H192.411L144.859 106.02Z" fill="white"/>
</g>
<path d="M208.362 106.012V40.5625L92.0073 40.5625V106.012L208.362 106.012Z" stroke="#46505C" stroke-width="0.5" stroke-linecap="round" stroke-linejoin="round"/>
<path d="M210.439 116.152H89.9296C85.9133 116.152 82.6574 119.408 82.6574 123.424V198.224C82.6574 202.24 85.9133 205.496 89.9296 205.496H210.439C214.456 205.496 217.712 202.24 217.712 198.224V123.424C217.712 119.408 214.456 116.152 210.439 116.152Z" fill="#E6F3FF"/>
<path d="M215.634 198.22V123.421C215.634 120.552 213.308 118.227 210.439 118.227L89.9295 118.227C87.0607 118.227 84.7351 120.552 84.7351 123.421V198.22C84.7351 201.089 87.0607 203.415 89.9295 203.415H210.439C213.308 203.415 215.634 201.089 215.634 198.22Z" fill="white" stroke="#E6F3FF" stroke-width="2" stroke-miterlimit="10"/>
<path d="M141.847 201.434H158.521C159.072 201.434 159.601 201.652 159.99 202.042C160.38 202.432 160.599 202.96 160.599 203.511V205.496H139.769V203.511C139.769 202.96 139.988 202.432 140.378 202.042C140.768 201.652 141.296 201.434 141.847 201.434Z" fill="#E6F3FF"/>
<path d="M210.439 116.152H89.9296C85.9133 116.152 82.6574 119.408 82.6574 123.424V198.224C82.6574 202.24 85.9133 205.496 89.9296 205.496H210.439C214.456 205.496 217.712 202.24 217.712 198.224V123.424C217.712 119.408 214.456 116.152 210.439 116.152Z" stroke="#46505C" stroke-width="2" stroke-linecap="round" stroke-linejoin="round"/>
<path d="M208.362 123.121H92.0073C91.1467 123.121 90.449 123.819 90.449 124.679V169.351C90.449 170.212 91.1467 170.91 92.0073 170.91H208.362C209.222 170.91 209.92 170.212 209.92 169.351V124.679C209.92 123.819 209.222 123.121 208.362 123.121Z" fill="#E6F3FF"/>
<path d="M113.348 159.227H107.115C106.828 159.227 106.595 159.459 106.595 159.746V165.979C106.595 166.266 106.828 166.499 107.115 166.499H113.348C113.635 166.499 113.867 166.266 113.867 165.979V159.746C113.867 159.459 113.635 159.227 113.348 159.227Z" stroke="#626C84" stroke-linecap="round" stroke-linejoin="round"/>
<path d="M102.108 159.227H95.8751C95.5882 159.227 95.3557 159.459 95.3557 159.746V165.979C95.3557 166.266 95.5882 166.499 95.8751 166.499H102.108C102.395 166.499 102.628 166.266 102.628 165.979V159.746C102.628 159.459 102.395 159.227 102.108 159.227Z" stroke="#626C84" stroke-linecap="round" stroke-linejoin="round"/>
<path d="M169.548 159.227H118.355C118.068 159.227 117.835 159.459 117.835 159.746V165.979C117.835 166.266 118.068 166.499 118.355 166.499H169.548C169.835 166.499 170.067 166.266 170.067 165.979V159.746C170.067 159.459 169.835 159.227 169.548 159.227Z" stroke="#626C84" stroke-linecap="round" stroke-linejoin="round"/>
<path d="M180.788 159.227H174.555C174.268 159.227 174.035 159.459 174.035 159.746V165.979C174.035 166.266 174.268 166.499 174.555 166.499H180.788C181.075 166.499 181.307 166.266 181.307 165.979V159.746C181.307 159.459 181.075 159.227 180.788 159.227Z" stroke="#626C84" stroke-linecap="round" stroke-linejoin="round"/>
<path d="M197.222 163.316H193.066C192.779 163.316 192.547 163.549 192.547 163.836V165.979C192.547 166.265 192.779 166.498 193.066 166.498H197.222C197.509 166.498 197.741 166.265 197.741 165.979V163.836C197.741 163.549 197.509 163.316 197.222 163.316Z" stroke="#626C84" stroke-linecap="round" stroke-linejoin="round"/>
<path d="M197.222 159.227H193.066C192.779 159.227 192.547 159.459 192.547 159.746V161.889C192.547 162.176 192.779 162.408 193.066 162.408H197.222C197.509 162.408 197.741 162.176 197.741 161.889V159.746C197.741 159.459 197.509 159.227 197.222 159.227Z" stroke="#626C84" stroke-linecap="round" stroke-linejoin="round"/>
<path d="M204.494 163.316H200.338C200.052 163.316 199.819 163.549 199.819 163.836V165.979C199.819 166.265 200.052 166.498 200.338 166.498H204.494C204.781 166.498 205.013 166.265 205.013 165.979V163.836C205.013 163.549 204.781 163.316 204.494 163.316Z" stroke="#626C84" stroke-linecap="round" stroke-linejoin="round"/>
<path d="M189.95 163.316H185.794C185.507 163.316 185.275 163.549 185.275 163.836V165.979C185.275 166.265 185.507 166.498 185.794 166.498H189.95C190.236 166.498 190.469 166.265 190.469 165.979V163.836C190.469 163.549 190.236 163.316 189.95 163.316Z" stroke="#626C84" stroke-linecap="round" stroke-linejoin="round"/>
<path d="M112.31 148.871H95.8751C95.5882 148.871 95.3557 149.104 95.3557 149.391V155.624C95.3557 155.911 95.5882 156.143 95.8751 156.143H112.31C112.597 156.143 112.829 155.911 112.829 155.624V149.391C112.829 149.104 112.597 148.871 112.31 148.871Z" stroke="#626C84" stroke-linecap="round" stroke-linejoin="round"/>
<path d="M123.643 148.871H117.41C117.123 148.871 116.891 149.104 116.891 149.391V155.624C116.891 155.911 117.123 156.143 117.41 156.143H123.643C123.93 156.143 124.163 155.911 124.163 155.624V149.391C124.163 149.104 123.93 148.871 123.643 148.871Z" stroke="#626C84" stroke-linecap="round" stroke-linejoin="round"/>
<path d="M134.883 148.871H128.65C128.363 148.871 128.13 149.104 128.13 149.391V155.624C128.13 155.911 128.363 156.143 128.65 156.143H134.883C135.17 156.143 135.402 155.911 135.402 155.624V149.391C135.402 149.104 135.17 148.871 134.883 148.871Z" stroke="#626C84" stroke-linecap="round" stroke-linejoin="round"/>
<path d="M146.123 148.871H139.89C139.603 148.871 139.37 149.104 139.37 149.391V155.624C139.37 155.911 139.603 156.143 139.89 156.143H146.123C146.41 156.143 146.643 155.911 146.643 155.624V149.391C146.643 149.104 146.41 148.871 146.123 148.871Z" stroke="#626C84" stroke-linecap="round" stroke-linejoin="round"/>
<path d="M157.363 148.871H151.129C150.842 148.871 150.61 149.104 150.61 149.391V155.624C150.61 155.911 150.842 156.143 151.129 156.143H157.363C157.65 156.143 157.882 155.911 157.882 155.624V149.391C157.882 149.104 157.65 148.871 157.363 148.871Z" stroke="#626C84" stroke-linecap="round" stroke-linejoin="round"/>
<path d="M168.603 148.871H162.369C162.083 148.871 161.85 149.104 161.85 149.391V155.624C161.85 155.911 162.083 156.143 162.369 156.143H168.603C168.89 156.143 169.122 155.911 169.122 155.624V149.391C169.122 149.104 168.89 148.871 168.603 148.871Z" stroke="#626C84" stroke-linecap="round" stroke-linejoin="round"/>
<path d="M179.842 148.871H173.609C173.322 148.871 173.09 149.104 173.09 149.391V155.624C173.09 155.911 173.322 156.143 173.609 156.143H179.842C180.129 156.143 180.362 155.911 180.362 155.624V149.391C180.362 149.104 180.129 148.871 179.842 148.871Z" stroke="#626C84" stroke-linecap="round" stroke-linejoin="round"/>
<path d="M204.494 148.871H185.794C185.507 148.871 185.275 149.104 185.275 149.391V155.624C185.275 155.911 185.507 156.143 185.794 156.143H204.494C204.781 156.143 205.013 155.911 205.013 155.624V149.391C205.013 149.104 204.781 148.871 204.494 148.871Z" stroke="#626C84" stroke-linecap="round" stroke-linejoin="round"/>
<path d="M119.581 138.234H113.348C113.061 138.234 112.829 138.467 112.829 138.754V144.987C112.829 145.274 113.061 145.507 113.348 145.507H119.581C119.868 145.507 120.101 145.274 120.101 144.987V138.754C120.101 138.467 119.868 138.234 119.581 138.234Z" stroke="#626C84" stroke-linecap="round" stroke-linejoin="round"/>
<path d="M108.342 138.234H95.8751C95.5882 138.234 95.3557 138.467 95.3557 138.754V144.987C95.3557 145.274 95.5882 145.507 95.8751 145.507H108.342C108.629 145.507 108.861 145.274 108.861 144.987V138.754C108.861 138.467 108.629 138.234 108.342 138.234Z" stroke="#626C84" stroke-linecap="round" stroke-linejoin="round"/>
<path d="M130.821 138.234H124.588C124.301 138.234 124.069 138.467 124.069 138.754V144.987C124.069 145.274 124.301 145.507 124.588 145.507H130.821C131.108 145.507 131.341 145.274 131.341 144.987V138.754C131.341 138.467 131.108 138.234 130.821 138.234Z" stroke="#626C84" stroke-linecap="round" stroke-linejoin="round"/>
<path d="M142.061 138.234H135.828C135.541 138.234 135.308 138.467 135.308 138.754V144.987C135.308 145.274 135.541 145.507 135.828 145.507H142.061C142.348 145.507 142.58 145.274 142.58 144.987V138.754C142.58 138.467 142.348 138.234 142.061 138.234Z" stroke="#626C84" stroke-linecap="round" stroke-linejoin="round"/>
<path d="M153.301 138.234H147.068C146.781 138.234 146.548 138.467 146.548 138.754V144.987C146.548 145.274 146.781 145.507 147.068 145.507H153.301C153.588 145.507 153.821 145.274 153.821 144.987V138.754C153.821 138.467 153.588 138.234 153.301 138.234Z" stroke="#626C84" stroke-linecap="round" stroke-linejoin="round"/>
<path d="M164.541 138.234H158.308C158.021 138.234 157.789 138.467 157.789 138.754V144.987C157.789 145.274 158.021 145.507 158.308 145.507H164.541C164.828 145.507 165.061 145.274 165.061 144.987V138.754C165.061 138.467 164.828 138.234 164.541 138.234Z" stroke="#626C84" stroke-linecap="round" stroke-linejoin="round"/>
<path d="M175.781 138.234H169.548C169.261 138.234 169.028 138.467 169.028 138.754V144.987C169.028 145.274 169.261 145.507 169.548 145.507H175.781C176.068 145.507 176.3 145.274 176.3 144.987V138.754C176.3 138.467 176.068 138.234 175.781 138.234Z" stroke="#626C84" stroke-linecap="round" stroke-linejoin="round"/>
<path d="M187.021 138.234H180.788C180.501 138.234 180.268 138.467 180.268 138.754V144.987C180.268 145.274 180.501 145.507 180.788 145.507H187.021C187.308 145.507 187.54 145.274 187.54 144.987V138.754C187.54 138.467 187.308 138.234 187.021 138.234Z" stroke="#626C84" stroke-linecap="round" stroke-linejoin="round"/>
<path d="M204.494 138.234H192.027C191.741 138.234 191.508 138.467 191.508 138.754V144.987C191.508 145.274 191.741 145.507 192.027 145.507H204.494C204.781 145.507 205.013 145.274 205.013 144.987V138.754C205.013 138.467 204.781 138.234 204.494 138.234Z" stroke="#626C84" stroke-linecap="round" stroke-linejoin="round"/>
<path d="M113.485 128.055H107.251C106.964 128.055 106.732 128.287 106.732 128.574V134.807C106.732 135.094 106.964 135.327 107.251 135.327H113.485C113.771 135.327 114.004 135.094 114.004 134.807V128.574C114.004 128.287 113.771 128.055 113.485 128.055Z" stroke="#626C84" stroke-linecap="round" stroke-linejoin="round"/>
<path d="M102.108 128.055H95.8751C95.5882 128.055 95.3557 128.287 95.3557 128.574V134.807C95.3557 135.094 95.5882 135.327 95.8751 135.327H102.108C102.395 135.327 102.628 135.094 102.628 134.807V128.574C102.628 128.287 102.395 128.055 102.108 128.055Z" stroke="#626C84" stroke-linecap="round" stroke-linejoin="round"/>
<path d="M124.861 128.055H118.628C118.341 128.055 118.108 128.287 118.108 128.574V134.807C118.108 135.094 118.341 135.327 118.628 135.327H124.861C125.148 135.327 125.38 135.094 125.38 134.807V128.574C125.38 128.287 125.148 128.055 124.861 128.055Z" stroke="#626C84" stroke-linecap="round" stroke-linejoin="round"/>
<path d="M136.237 128.055H130.004C129.717 128.055 129.484 128.287 129.484 128.574V134.807C129.484 135.094 129.717 135.327 130.004 135.327H136.237C136.524 135.327 136.757 135.094 136.757 134.807V128.574C136.757 128.287 136.524 128.055 136.237 128.055Z" stroke="#626C84" stroke-linecap="round" stroke-linejoin="round"/>
<path d="M147.613 128.055H141.38C141.093 128.055 140.861 128.287 140.861 128.574V134.807C140.861 135.094 141.093 135.327 141.38 135.327H147.613C147.9 135.327 148.133 135.094 148.133 134.807V128.574C148.133 128.287 147.9 128.055 147.613 128.055Z" stroke="#626C84" stroke-linecap="round" stroke-linejoin="round"/>
<path d="M158.989 128.055H152.756C152.469 128.055 152.236 128.287 152.236 128.574V134.807C152.236 135.094 152.469 135.327 152.756 135.327H158.989C159.276 135.327 159.508 135.094 159.508 134.807V128.574C159.508 128.287 159.276 128.055 158.989 128.055Z" stroke="#626C84" stroke-linecap="round" stroke-linejoin="round"/>
<path d="M170.365 128.055H164.132C163.845 128.055 163.613 128.287 163.613 128.574V134.807C163.613 135.094 163.845 135.327 164.132 135.327H170.365C170.652 135.327 170.885 135.094 170.885 134.807V128.574C170.885 128.287 170.652 128.055 170.365 128.055Z" stroke="#626C84" stroke-linecap="round" stroke-linejoin="round"/>
<path d="M181.742 128.055H175.508C175.221 128.055 174.989 128.287 174.989 128.574V134.807C174.989 135.094 175.221 135.327 175.508 135.327H181.742C182.028 135.327 182.261 135.094 182.261 134.807V128.574C182.261 128.287 182.028 128.055 181.742 128.055Z" stroke="#626C84" stroke-linecap="round" stroke-linejoin="round"/>
<path d="M193.118 128.055H186.884C186.598 128.055 186.365 128.287 186.365 128.574V134.807C186.365 135.094 186.598 135.327 186.884 135.327H193.118C193.405 135.327 193.637 135.094 193.637 134.807V128.574C193.637 128.287 193.405 128.055 193.118 128.055Z" stroke="#626C84" stroke-linecap="round" stroke-linejoin="round"/>
<path d="M204.494 128.055H198.261C197.974 128.055 197.741 128.287 197.741 128.574V134.807C197.741 135.094 197.974 135.327 198.261 135.327H204.494C204.781 135.327 205.013 135.094 205.013 134.807V128.574C205.013 128.287 204.781 128.055 204.494 128.055Z" stroke="#626C84" stroke-linecap="round" stroke-linejoin="round"/>
<path d="M113.348 159.227H107.115C106.828 159.227 106.595 159.459 106.595 159.746V165.979C106.595 166.266 106.828 166.499 107.115 166.499H113.348C113.635 166.499 113.867 166.266 113.867 165.979V159.746C113.867 159.459 113.635 159.227 113.348 159.227Z" fill="#626C84"/>
<path d="M102.108 159.227H95.8751C95.5882 159.227 95.3557 159.459 95.3557 159.746V165.979C95.3557 166.266 95.5882 166.499 95.8751 166.499H102.108C102.395 166.499 102.628 166.266 102.628 165.979V159.746C102.628 159.459 102.395 159.227 102.108 159.227Z" fill="#626C84"/>
<path d="M169.548 159.227H118.355C118.068 159.227 117.835 159.459 117.835 159.746V165.979C117.835 166.266 118.068 166.499 118.355 166.499H169.548C169.835 166.499 170.067 166.266 170.067 165.979V159.746C170.067 159.459 169.835 159.227 169.548 159.227Z" fill="#626C84"/>
<path d="M180.788 159.227H174.555C174.268 159.227 174.035 159.459 174.035 159.746V165.979C174.035 166.266 174.268 166.499 174.555 166.499H180.788C181.075 166.499 181.307 166.266 181.307 165.979V159.746C181.307 159.459 181.075 159.227 180.788 159.227Z" fill="#626C84"/>
<path d="M197.222 163.316H193.066C192.779 163.316 192.547 163.549 192.547 163.836V165.979C192.547 166.265 192.779 166.498 193.066 166.498H197.222C197.509 166.498 197.741 166.265 197.741 165.979V163.836C197.741 163.549 197.509 163.316 197.222 163.316Z" fill="#626C84"/>
<path d="M197.222 159.227H193.066C192.779 159.227 192.547 159.459 192.547 159.746V161.889C192.547 162.176 192.779 162.408 193.066 162.408H197.222C197.509 162.408 197.741 162.176 197.741 161.889V159.746C197.741 159.459 197.509 159.227 197.222 159.227Z" fill="#626C84"/>
<path d="M204.494 163.316H200.338C200.052 163.316 199.819 163.549 199.819 163.836V165.979C199.819 166.265 200.052 166.498 200.338 166.498H204.494C204.781 166.498 205.013 166.265 205.013 165.979V163.836C205.013 163.549 204.781 163.316 204.494 163.316Z" fill="#626C84"/>
<path d="M189.95 163.316H185.794C185.507 163.316 185.275 163.549 185.275 163.836V165.979C185.275 166.265 185.507 166.498 185.794 166.498H189.95C190.236 166.498 190.469 166.265 190.469 165.979V163.836C190.469 163.549 190.236 163.316 189.95 163.316Z" fill="#626C84"/>
<path d="M112.31 148.871H95.8751C95.5882 148.871 95.3557 149.104 95.3557 149.391V155.624C95.3557 155.911 95.5882 156.143 95.8751 156.143H112.31C112.597 156.143 112.829 155.911 112.829 155.624V149.391C112.829 149.104 112.597 148.871 112.31 148.871Z" fill="#626C84"/>
<path d="M123.643 148.871H117.41C117.123 148.871 116.891 149.104 116.891 149.391V155.624C116.891 155.911 117.123 156.143 117.41 156.143H123.643C123.93 156.143 124.163 155.911 124.163 155.624V149.391C124.163 149.104 123.93 148.871 123.643 148.871Z" fill="#626C84"/>
<path d="M134.883 148.871H128.65C128.363 148.871 128.13 149.104 128.13 149.391V155.624C128.13 155.911 128.363 156.143 128.65 156.143H134.883C135.17 156.143 135.402 155.911 135.402 155.624V149.391C135.402 149.104 135.17 148.871 134.883 148.871Z" fill="#626C84"/>
<path d="M146.123 148.871H139.89C139.603 148.871 139.37 149.104 139.37 149.391V155.624C139.37 155.911 139.603 156.143 139.89 156.143H146.123C146.41 156.143 146.643 155.911 146.643 155.624V149.391C146.643 149.104 146.41 148.871 146.123 148.871Z" fill="#626C84"/>
<path d="M157.363 148.871H151.129C150.842 148.871 150.61 149.104 150.61 149.391V155.624C150.61 155.911 150.842 156.143 151.129 156.143H157.363C157.65 156.143 157.882 155.911 157.882 155.624V149.391C157.882 149.104 157.65 148.871 157.363 148.871Z" fill="#626C84"/>
<path d="M168.603 148.871H162.369C162.083 148.871 161.85 149.104 161.85 149.391V155.624C161.85 155.911 162.083 156.143 162.369 156.143H168.603C168.89 156.143 169.122 155.911 169.122 155.624V149.391C169.122 149.104 168.89 148.871 168.603 148.871Z" fill="#626C84"/>
<path d="M179.842 148.871H173.609C173.322 148.871 173.09 149.104 173.09 149.391V155.624C173.09 155.911 173.322 156.143 173.609 156.143H179.842C180.129 156.143 180.362 155.911 180.362 155.624V149.391C180.362 149.104 180.129 148.871 179.842 148.871Z" fill="#626C84"/>
<path d="M204.494 148.871H185.794C185.507 148.871 185.275 149.104 185.275 149.391V155.624C185.275 155.911 185.507 156.143 185.794 156.143H204.494C204.781 156.143 205.013 155.911 205.013 155.624V149.391C205.013 149.104 204.781 148.871 204.494 148.871Z" fill="#626C84"/>
<path d="M119.581 138.234H113.348C113.061 138.234 112.829 138.467 112.829 138.754V144.987C112.829 145.274 113.061 145.507 113.348 145.507H119.581C119.868 145.507 120.101 145.274 120.101 144.987V138.754C120.101 138.467 119.868 138.234 119.581 138.234Z" fill="#626C84"/>
<path d="M108.342 138.234H95.8751C95.5882 138.234 95.3557 138.467 95.3557 138.754V144.987C95.3557 145.274 95.5882 145.507 95.8751 145.507H108.342C108.629 145.507 108.861 145.274 108.861 144.987V138.754C108.861 138.467 108.629 138.234 108.342 138.234Z" fill="#626C84"/>
<path d="M130.821 138.234H124.588C124.301 138.234 124.069 138.467 124.069 138.754V144.987C124.069 145.274 124.301 145.507 124.588 145.507H130.821C131.108 145.507 131.341 145.274 131.341 144.987V138.754C131.341 138.467 131.108 138.234 130.821 138.234Z" fill="#626C84"/>
<path d="M142.061 138.234H135.828C135.541 138.234 135.308 138.467 135.308 138.754V144.987C135.308 145.274 135.541 145.507 135.828 145.507H142.061C142.348 145.507 142.58 145.274 142.58 144.987V138.754C142.58 138.467 142.348 138.234 142.061 138.234Z" fill="#626C84"/>
<path d="M153.301 138.234H147.068C146.781 138.234 146.548 138.467 146.548 138.754V144.987C146.548 145.274 146.781 145.507 147.068 145.507H153.301C153.588 145.507 153.821 145.274 153.821 144.987V138.754C153.821 138.467 153.588 138.234 153.301 138.234Z" fill="#626C84"/>
<path d="M164.541 138.234H158.308C158.021 138.234 157.789 138.467 157.789 138.754V144.987C157.789 145.274 158.021 145.507 158.308 145.507H164.541C164.828 145.507 165.061 145.274 165.061 144.987V138.754C165.061 138.467 164.828 138.234 164.541 138.234Z" fill="#626C84"/>
<path d="M175.781 138.234H169.548C169.261 138.234 169.028 138.467 169.028 138.754V144.987C169.028 145.274 169.261 145.507 169.548 145.507H175.781C176.068 145.507 176.3 145.274 176.3 144.987V138.754C176.3 138.467 176.068 138.234 175.781 138.234Z" fill="#626C84"/>
<path d="M187.021 138.234H180.788C180.501 138.234 180.268 138.467 180.268 138.754V144.987C180.268 145.274 180.501 145.507 180.788 145.507H187.021C187.308 145.507 187.54 145.274 187.54 144.987V138.754C187.54 138.467 187.308 138.234 187.021 138.234Z" fill="#626C84"/>
<path d="M204.494 138.234H192.027C191.741 138.234 191.508 138.467 191.508 138.754V144.987C191.508 145.274 191.741 145.507 192.027 145.507H204.494C204.781 145.507 205.013 145.274 205.013 144.987V138.754C205.013 138.467 204.781 138.234 204.494 138.234Z" fill="#626C84"/>
<path d="M113.485 128.055H107.251C106.964 128.055 106.732 128.287 106.732 128.574V134.807C106.732 135.094 106.964 135.327 107.251 135.327H113.485C113.771 135.327 114.004 135.094 114.004 134.807V128.574C114.004 128.287 113.771 128.055 113.485 128.055Z" fill="#626C84"/>
<path d="M102.108 128.055H95.8751C95.5882 128.055 95.3557 128.287 95.3557 128.574V134.807C95.3557 135.094 95.5882 135.327 95.8751 135.327H102.108C102.395 135.327 102.628 135.094 102.628 134.807V128.574C102.628 128.287 102.395 128.055 102.108 128.055Z" fill="#626C84"/>
<path d="M124.861 128.055H118.628C118.341 128.055 118.108 128.287 118.108 128.574V134.807C118.108 135.094 118.341 135.327 118.628 135.327H124.861C125.148 135.327 125.38 135.094 125.38 134.807V128.574C125.38 128.287 125.148 128.055 124.861 128.055Z" fill="#626C84"/>
<path d="M136.237 128.055H130.004C129.717 128.055 129.484 128.287 129.484 128.574V134.807C129.484 135.094 129.717 135.327 130.004 135.327H136.237C136.524 135.327 136.757 135.094 136.757 134.807V128.574C136.757 128.287 136.524 128.055 136.237 128.055Z" fill="#626C84"/>
<path d="M147.613 128.055H141.38C141.093 128.055 140.861 128.287 140.861 128.574V134.807C140.861 135.094 141.093 135.327 141.38 135.327H147.613C147.9 135.327 148.133 135.094 148.133 134.807V128.574C148.133 128.287 147.9 128.055 147.613 128.055Z" fill="#626C84"/>
<path d="M158.989 128.055H152.756C152.469 128.055 152.236 128.287 152.236 128.574V134.807C152.236 135.094 152.469 135.327 152.756 135.327H158.989C159.276 135.327 159.508 135.094 159.508 134.807V128.574C159.508 128.287 159.276 128.055 158.989 128.055Z" fill="#626C84"/>
<path d="M170.365 128.055H164.132C163.845 128.055 163.613 128.287 163.613 128.574V134.807C163.613 135.094 163.845 135.327 164.132 135.327H170.365C170.652 135.327 170.885 135.094 170.885 134.807V128.574C170.885 128.287 170.652 128.055 170.365 128.055Z" fill="#626C84"/>
<path d="M181.742 128.055H175.508C175.221 128.055 174.989 128.287 174.989 128.574V134.807C174.989 135.094 175.221 135.327 175.508 135.327H181.742C182.028 135.327 182.261 135.094 182.261 134.807V128.574C182.261 128.287 182.028 128.055 181.742 128.055Z" fill="#626C84"/>
<path d="M193.118 128.055H186.884C186.598 128.055 186.365 128.287 186.365 128.574V134.807C186.365 135.094 186.598 135.327 186.884 135.327H193.118C193.405 135.327 193.637 135.094 193.637 134.807V128.574C193.637 128.287 193.405 128.055 193.118 128.055Z" fill="#626C84"/>
<path d="M204.494 128.055H198.261C197.974 128.055 197.741 128.287 197.741 128.574V134.807C197.741 135.094 197.974 135.327 198.261 135.327H204.494C204.781 135.327 205.013 135.094 205.013 134.807V128.574C205.013 128.287 204.781 128.055 204.494 128.055Z" fill="#626C84"/>
<path d="M106.032 111.484H194.337V118.469C194.337 119.02 194.118 119.548 193.728 119.938C193.339 120.328 192.81 120.547 192.259 120.547H108.11C107.559 120.547 107.03 120.328 106.641 119.938C106.251 119.548 106.032 119.02 106.032 118.469V111.484Z" fill="#626C84"/>
<path opacity="0.12" d="M194.337 111.484H106.032V112.523H194.337V111.484Z" fill="white"/>
<g style="mix-blend-mode:multiply" opacity="0.25">
<path d="M192.259 118.476H108.11C107.559 118.476 107.03 118.257 106.641 117.868C106.251 117.478 106.032 116.949 106.032 116.398V118.476C106.032 119.027 106.251 119.556 106.641 119.945C107.03 120.335 107.559 120.554 108.11 120.554H192.259C192.81 120.554 193.339 120.335 193.728 119.945C194.118 119.556 194.337 119.027 194.337 118.476V116.398C194.337 116.949 194.118 117.478 193.728 117.868C193.339 118.257 192.81 118.476 192.259 118.476Z" fill="#626C84"/>
</g>
<path d="M106.032 111.484H194.337V118.469C194.337 119.02 194.118 119.548 193.728 119.938C193.339 120.328 192.81 120.547 192.259 120.547H108.11C107.559 120.547 107.03 120.328 106.641 119.938C106.251 119.548 106.032 119.02 106.032 118.469V111.484Z" stroke="#46505C" stroke-linecap="round" stroke-linejoin="round"/>
<path d="M168.365 173.512H132.004C131.43 173.512 130.965 173.977 130.965 174.551V198.964C130.965 199.538 131.43 200.003 132.004 200.003H168.365C168.939 200.003 169.404 199.538 169.404 198.964V174.551C169.404 173.977 168.939 173.512 168.365 173.512Z" fill="#E6F3FF"/>
<path d="M168.365 173.512H132.004C131.43 173.512 130.965 173.977 130.965 174.551V198.964C130.965 199.538 131.43 200.003 132.004 200.003H168.365C168.939 200.003 169.404 199.538 169.404 198.964V174.551C169.404 173.977 168.939 173.512 168.365 173.512Z" stroke="#626C84" stroke-linecap="round" stroke-linejoin="round"/>
<path opacity="0.52" d="M150.185 37.7924C151.045 37.7924 151.743 37.0947 151.743 36.2341C151.743 35.3735 151.045 34.6758 150.185 34.6758C149.324 34.6758 148.626 35.3735 148.626 36.2341C148.626 37.0947 149.324 37.7924 150.185 37.7924Z" fill="white"/>
<path d="M150.185 37.7924C151.045 37.7924 151.743 37.0947 151.743 36.2341C151.743 35.3735 151.045 34.6758 150.185 34.6758C149.324 34.6758 148.626 35.3735 148.626 36.2341C148.626 37.0947 149.324 37.7924 150.185 37.7924Z" stroke="#46505C" stroke-width="0.5" stroke-linecap="round" stroke-linejoin="round"/>
<path d="M182.577 47.1797H176.344C176.057 47.1797 175.824 47.4122 175.824 47.6991C175.824 47.986 176.057 48.2186 176.344 48.2186H182.577C182.864 48.2186 183.096 47.986 183.096 47.6991C183.096 47.4122 182.864 47.1797 182.577 47.1797Z" fill="white"/>
<path d="M196.069 47.1797H189.835C189.549 47.1797 189.316 47.4122 189.316 47.6991C189.316 47.986 189.549 48.2186 189.835 48.2186H196.069C196.356 48.2186 196.588 47.986 196.588 47.6991C196.588 47.4122 196.356 47.1797 196.069 47.1797Z" fill="white"/>
<path d="M169.085 47.1797H162.852C162.565 47.1797 162.333 47.4122 162.333 47.6991C162.333 47.986 162.565 48.2186 162.852 48.2186H169.085C169.372 48.2186 169.605 47.986 169.605 47.6991C169.605 47.4122 169.372 47.1797 169.085 47.1797Z" fill="white"/>
<path d="M101.998 50.486C103.385 50.486 104.51 49.3611 104.51 47.9735C104.51 46.5858 103.385 45.4609 101.998 45.4609C100.61 45.4609 99.4852 46.5858 99.4852 47.9735C99.4852 49.3611 100.61 50.486 101.998 50.486Z" fill="white"/>
<g opacity="0.72">
<path d="M176.446 75.4805H123.861V77.3738H176.446V75.4805Z" fill="white"/>
<path d="M169.796 69.1992H130.512V71.1201H169.796V69.1992Z" fill="white"/>
</g>
<path d="M159.225 90.2031H144.26C142.687 90.2031 141.413 91.4778 141.413 93.0502C141.413 94.6225 142.687 95.8972 144.26 95.8972H159.225C160.798 95.8972 162.072 94.6225 162.072 93.0502C162.072 91.4778 160.798 90.2031 159.225 90.2031Z" stroke="white" stroke-width="0.75" stroke-miterlimit="10"/>
</svg>
