<svg height="250" viewBox="0 0 417 250" fill="none" xmlns="http://www.w3.org/2000/svg">
<path opacity="0.47" d="M294.014 70.5843L351.426 56.2477C354.659 55.4405 357.415 53.4697 359.088 50.7688C360.761 48.0679 361.215 44.8582 360.348 41.8458C359.482 38.8334 357.367 36.265 354.469 34.7057C351.571 33.1464 348.126 32.7239 344.894 33.5311L254.431 56.1184C252.831 56.5181 251.161 56.6201 249.518 56.4185C247.875 56.2169 246.291 55.7158 244.856 54.9436C243.421 54.1715 242.163 53.1435 241.154 51.9183C240.146 50.6932 239.406 49.2949 238.977 47.8032C238.111 44.791 238.564 41.5817 240.237 38.881C241.911 36.1804 244.666 34.2096 247.899 33.4023L289.076 23.1174C290.677 22.7179 292.177 22.0284 293.492 21.0884C294.807 20.1484 295.91 18.9762 296.739 17.6389C297.568 16.3015 298.106 14.8251 298.322 13.294C298.538 11.7629 298.429 10.2071 298 8.71542C297.134 5.70301 295.019 3.13465 292.121 1.57535C289.222 0.0160468 285.778 -0.406466 282.546 0.400756L73.3613 52.6319C71.7607 53.0315 70.2602 53.721 68.9455 54.661C67.6308 55.601 66.5277 56.7731 65.6991 58.1105C64.8705 59.4478 64.3327 60.9241 64.1164 62.4551C63.9001 63.9861 64.0095 65.5418 64.4384 67.0334C64.867 68.5253 65.6068 69.924 66.6155 71.1494C67.6243 72.3749 68.8822 73.4032 70.3174 74.1755C71.7527 74.9479 73.3371 75.4492 74.9803 75.6508C76.6235 75.8525 78.2932 75.7505 79.8941 75.3506L112.465 67.2178C115.697 66.4107 119.142 66.8334 122.04 68.3928C124.938 69.9521 127.053 72.5205 127.919 75.533C128.348 77.0246 128.458 78.5803 128.241 80.1113C128.025 81.6423 127.487 83.1186 126.659 84.4559C125.83 85.7932 124.727 86.9653 123.412 87.9053C122.098 88.8454 120.597 89.5348 118.996 89.9344L63.245 103.855C60.0124 104.663 57.2563 106.633 55.5829 109.334C53.9096 112.035 53.4561 115.245 54.3221 118.257C54.7509 119.749 55.4909 121.147 56.4996 122.372C57.5084 123.598 58.7662 124.626 60.2013 125.398C61.6364 126.17 63.2207 126.671 64.8636 126.873C66.5065 127.074 68.176 126.972 69.7766 126.573L104.57 117.884C107.802 117.077 111.247 117.5 114.145 119.059C117.043 120.619 119.158 123.187 120.024 126.2C120.453 127.691 120.563 129.247 120.346 130.778C120.13 132.309 119.592 133.785 118.764 135.123C117.935 136.46 116.832 137.632 115.517 138.572C114.202 139.512 112.702 140.201 111.101 140.601L108.633 141.218C107.031 141.617 105.53 142.307 104.215 143.248C102.9 144.189 101.797 145.361 100.969 146.7C100.14 148.038 99.6029 149.515 99.3872 151.046C99.1716 152.578 99.2819 154.134 99.7119 155.626C100.141 157.118 100.881 158.516 101.889 159.742C102.898 160.967 104.156 161.995 105.591 162.767C107.026 163.539 108.61 164.04 110.253 164.242C111.896 164.444 113.566 164.342 115.166 163.942L117.508 163.358C119.108 162.958 120.778 162.856 122.42 163.058C124.063 163.259 125.648 163.76 127.083 164.533C128.518 165.305 129.775 166.333 130.784 167.558C131.793 168.783 132.533 170.181 132.962 171.673C133.391 173.164 133.5 174.72 133.284 176.251C133.068 177.782 132.53 179.259 131.701 180.596C130.873 181.933 129.77 183.106 128.455 184.046C127.14 184.986 125.64 185.675 124.039 186.075L89.3744 194.73C86.1418 195.538 83.3857 197.508 81.7125 200.209C80.0392 202.91 79.5858 206.12 80.452 209.132C81.3182 212.145 83.4331 214.713 86.3314 216.272C89.2297 217.832 92.674 218.254 95.9066 217.447L159.248 201.63C160.849 201.231 162.518 201.129 164.161 201.33C165.804 201.532 167.388 202.033 168.823 202.805C170.259 203.577 171.516 204.605 172.525 205.831C173.534 207.056 174.274 208.454 174.703 209.946C175.132 211.437 175.241 212.993 175.025 214.524C174.808 216.056 174.271 217.532 173.442 218.869C172.613 220.207 171.51 221.379 170.195 222.319C168.88 223.259 167.379 223.949 165.779 224.348L155.627 226.883C152.395 227.69 149.639 229.661 147.966 232.362C146.292 235.062 145.839 238.272 146.705 241.284C147.134 242.776 147.874 244.174 148.882 245.4C149.891 246.625 151.149 247.653 152.584 248.425C154.019 249.197 155.604 249.698 157.246 249.899C158.889 250.101 160.559 249.999 162.159 249.599L323.444 209.327C326.676 208.519 329.433 206.548 331.106 203.848C332.779 201.147 333.232 197.937 332.366 194.925C331.937 193.433 331.197 192.035 330.189 190.809C329.18 189.584 327.922 188.556 326.487 187.784C325.052 187.012 323.468 186.511 321.825 186.309C320.182 186.108 318.512 186.21 316.912 186.609L312.167 187.794C308.935 188.601 305.491 188.179 302.593 186.62C299.694 185.061 297.579 182.494 296.713 179.482C296.284 177.99 296.174 176.434 296.391 174.903C296.607 173.372 297.145 171.896 297.974 170.558C298.803 169.221 299.906 168.049 301.221 167.109C302.536 166.169 304.036 165.48 305.637 165.08L336.835 157.289C338.436 156.889 339.937 156.199 341.251 155.259C342.566 154.319 343.669 153.147 344.498 151.81C345.326 150.472 345.864 148.996 346.08 147.465C346.297 145.934 346.187 144.378 345.758 142.887C345.33 141.395 344.59 139.997 343.581 138.771C342.572 137.546 341.314 136.518 339.879 135.746C338.444 134.974 336.86 134.473 335.217 134.271C333.574 134.07 331.904 134.172 330.304 134.571L286.066 145.616C284.465 146.016 282.796 146.118 281.153 145.916C279.51 145.715 277.926 145.214 276.491 144.441C275.056 143.669 273.798 142.641 272.789 141.416C271.78 140.191 271.04 138.793 270.612 137.301C269.746 134.289 270.2 131.08 271.874 128.379C273.547 125.679 276.303 123.709 279.535 122.902L310.858 115.08C312.459 114.681 313.959 113.991 315.274 113.051C316.589 112.111 317.692 110.939 318.52 109.602C319.349 108.264 319.887 106.788 320.103 105.257C320.319 103.726 320.21 102.17 319.781 100.679C319.352 99.1864 318.613 97.7876 317.604 96.5618C316.596 95.3361 315.338 94.3076 313.903 93.535C312.468 92.7624 310.883 92.2608 309.24 92.059C307.597 91.8571 305.927 91.959 304.326 92.3586L300.546 93.3025C297.314 94.1097 293.869 93.6872 290.971 92.1279C288.073 90.5686 285.958 88.0002 285.092 84.9878C284.663 83.4961 284.553 81.9403 284.769 80.4091C284.985 78.878 285.523 77.4015 286.351 76.064C287.18 74.7265 288.283 73.5541 289.598 72.6139C290.912 71.6737 292.413 70.984 294.014 70.5843Z" fill="#2BDA80"/>
<path d="M426.423 197.845H4.66263C2.07228 197.845 0 195.773 0 193.182C0 190.592 2.07228 188.52 4.66263 188.52H426.475C429.065 188.52 431.138 190.592 431.138 193.182C431.086 195.773 429.014 197.845 426.423 197.845Z" fill="#444E59"/>
<path d="M237.587 183.906H164.643V188.258H237.587V183.906Z" fill="#444E59"/>
<path d="M288.254 155.466H116.151C112.732 155.466 109.934 152.668 109.934 149.249V33.9786C109.934 30.5593 112.732 27.7617 116.151 27.7617H288.254C291.673 27.7617 294.471 30.5593 294.471 33.9786V149.197C294.471 152.668 291.725 155.466 288.254 155.466Z" fill="#BBBFC2"/>
<path d="M283.533 133.59V39.457L121.585 39.457L121.585 133.59L283.533 133.59Z" fill="#38BEB3"/>
<path d="M288.772 155.466H116.358C112.939 155.466 110.142 152.668 110.142 149.249V33.9786C110.142 30.5593 112.939 27.7617 116.358 27.7617H288.772C292.191 27.7617 294.989 30.5593 294.989 33.9786V149.197C294.989 152.668 292.191 155.466 288.772 155.466Z" stroke="#444E59" stroke-width="2" stroke-miterlimit="10" stroke-linecap="round" stroke-linejoin="round"/>
<path d="M283.325 133.59V39.457L121.842 39.457L121.842 133.59L283.325 133.59Z" stroke="#444E59" stroke-width="2" stroke-miterlimit="10" stroke-linecap="round" stroke-linejoin="round"/>
<path opacity="0.32" d="M251.937 129.042H162.933C160.913 129.042 159.307 127.384 159.307 125.415V61.8999C159.307 59.8795 160.964 58.2734 162.933 58.2734H251.937C253.958 58.2734 255.564 59.9313 255.564 61.8999V125.363C255.564 127.384 253.958 129.042 251.937 129.042Z" fill="#848484"/>
<path d="M247.793 125.521H158.789C156.768 125.521 155.162 123.863 155.162 121.895V58.4312C155.162 56.4107 156.82 54.8047 158.789 54.8047H247.793C249.813 54.8047 251.419 56.4625 251.419 58.4312V121.895C251.471 123.915 249.813 125.521 247.793 125.521Z" fill="#AFB1B2"/>
<path d="M247.793 125.521H158.789C156.768 125.521 155.162 123.863 155.162 121.895V58.4312C155.162 56.4107 156.82 54.8047 158.789 54.8047H247.793C249.813 54.8047 251.419 56.4625 251.419 58.4312V121.895C251.471 123.915 249.813 125.521 247.793 125.521Z" stroke="#444E59" stroke-width="2" stroke-miterlimit="10" stroke-linecap="round" stroke-linejoin="round"/>
<path d="M224.272 183.903H180.858L186.246 155.461H218.884L224.272 183.903Z" fill="#AEAEAF"/>
<path opacity="0.32" d="M220.335 163.491L218.884 155.461H186.246L184.795 163.491H220.335Z" fill="#848484"/>
<path d="M224.272 183.903H180.858L186.246 155.461H218.884L224.272 183.903Z" stroke="#444E59" stroke-width="2" stroke-miterlimit="10" stroke-linecap="round" stroke-linejoin="round"/>
<path d="M237.587 183.906H164.643V188.258H237.587V183.906Z" stroke="#444E59" stroke-width="2" stroke-miterlimit="10" stroke-linecap="round" stroke-linejoin="round"/>
<path d="M202.306 145.623C204.08 145.623 205.518 144.185 205.518 142.411C205.518 140.637 204.08 139.199 202.306 139.199C200.532 139.199 199.094 140.637 199.094 142.411C199.094 144.185 200.532 145.623 202.306 145.623Z" fill="#444E59"/>
<path d="M240.488 118.991H151.484C149.463 118.991 147.857 117.333 147.857 115.365V51.8491C147.857 49.8287 149.515 48.2227 151.484 48.2227H240.488C242.508 48.2227 244.114 49.8805 244.114 51.8491V115.313C244.166 117.333 242.508 118.991 240.488 118.991Z" fill="white"/>
<path d="M240.488 118.991H151.484C149.463 118.991 147.857 117.333 147.857 115.365V51.8491C147.857 49.8287 149.515 48.2227 151.484 48.2227H240.488C242.508 48.2227 244.114 49.8805 244.114 51.8491V115.313C244.166 117.333 242.508 118.991 240.488 118.991Z" stroke="#444E59" stroke-width="2" stroke-miterlimit="10" stroke-linecap="round" stroke-linejoin="round"/>
<path d="M244.166 59.1511H147.857V52.0017C147.857 49.9294 149.567 48.168 151.691 48.168H240.592C242.56 48.168 244.166 49.774 244.166 51.7427V59.1511Z" fill="#BBBFC2"/>
<path d="M244.166 59.1511H147.857V52.0017C147.857 49.9294 149.567 48.168 151.691 48.168H240.592C242.56 48.168 244.166 49.774 244.166 51.7427V59.1511Z" stroke="#444E59" stroke-width="2" stroke-miterlimit="10" stroke-linecap="round" stroke-linejoin="round"/>
<path d="M157.131 55.4232C158.075 55.4232 158.84 54.6577 158.84 53.7135C158.84 52.7693 158.075 52.0039 157.131 52.0039C156.187 52.0039 155.421 52.7693 155.421 53.7135C155.421 54.6577 156.187 55.4232 157.131 55.4232Z" fill="#444E59"/>
<path d="M162.778 55.4232C163.722 55.4232 164.487 54.6577 164.487 53.7135C164.487 52.7693 163.722 52.0039 162.778 52.0039C161.833 52.0039 161.068 52.7693 161.068 53.7135C161.068 54.6577 161.833 55.4232 162.778 55.4232Z" fill="#444E59"/>
<path d="M168.373 55.4232C169.317 55.4232 170.082 54.6577 170.082 53.7135C170.082 52.7693 169.317 52.0039 168.373 52.0039C167.429 52.0039 166.663 52.7693 166.663 53.7135C166.663 54.6577 167.429 55.4232 168.373 55.4232Z" fill="#444E59"/>
<path d="M235.1 78.1189H156.198C155.628 78.1189 155.162 77.6526 155.162 77.0828V66.0479C155.162 65.478 155.628 65.0117 156.198 65.0117H235.1C235.67 65.0117 236.136 65.478 236.136 66.0479V77.0828C236.136 77.6526 235.67 78.1189 235.1 78.1189Z" fill="#2BDA80"/>
<path opacity="0.2" d="M178.889 91.9441H156.146C155.576 91.9441 155.11 91.4779 155.11 90.908V84.9502C155.11 84.3803 155.576 83.9141 156.146 83.9141H178.889C179.459 83.9141 179.926 84.3803 179.926 84.9502V90.908C179.926 91.4779 179.511 91.9441 178.889 91.9441Z" fill="#444E59"/>
<path opacity="0.2" d="M158.788 97.8008H177.025" stroke="#444E59" stroke-width="2" stroke-miterlimit="10" stroke-linecap="round" stroke-linejoin="round"/>
<path opacity="0.2" d="M158.788 103.648H177.025" stroke="#444E59" stroke-width="2" stroke-miterlimit="10" stroke-linecap="round" stroke-linejoin="round"/>
<path opacity="0.2" d="M207.383 91.9441H184.64C184.07 91.9441 183.604 91.4779 183.604 90.908V84.9502C183.604 84.3803 184.07 83.9141 184.64 83.9141H207.383C207.953 83.9141 208.419 84.3803 208.419 84.9502V90.908C208.419 91.4779 207.953 91.9441 207.383 91.9441Z" fill="#444E59"/>
<path opacity="0.2" d="M187.23 97.8008H204.741" stroke="#444E59" stroke-width="2" stroke-miterlimit="10" stroke-linecap="round" stroke-linejoin="round"/>
<path opacity="0.2" d="M187.23 103.648H204.741" stroke="#444E59" stroke-width="2" stroke-miterlimit="10" stroke-linecap="round" stroke-linejoin="round"/>
<g opacity="0.2">
<path d="M235.825 104.377H213.082C212.512 104.377 212.046 103.911 212.046 103.341V85.001C212.046 84.4311 212.512 83.9648 213.082 83.9648H235.825C236.395 83.9648 236.862 84.4311 236.862 85.001V103.341C236.862 103.911 236.395 104.377 235.825 104.377Z" fill="#444E59"/>
</g>
<g opacity="0.09">
<path d="M235.1 110.237H213.445C212.616 110.237 211.994 109.564 211.994 108.787C211.994 108.009 212.668 107.336 213.445 107.336H235.1C235.929 107.336 236.551 108.009 236.551 108.787C236.551 109.564 235.877 110.237 235.1 110.237Z" fill="#444E59"/>
</g>
<path d="M73.8253 170.422H32.0688C31.5508 170.422 31.0845 170.577 30.7218 170.94L20.6195 179.747C19.687 180.576 19.687 182.027 20.6195 182.804L30.7218 191.766C31.0845 192.077 31.5508 192.388 32.0688 192.388H73.8253C76.2084 192.388 78.177 190.212 78.177 187.829V174.618C78.1252 172.339 76.2084 170.422 73.8253 170.422ZM30.9291 183.84C29.5303 183.84 28.3387 182.7 28.3387 181.25C28.3387 179.799 29.4785 178.659 30.9291 178.659C32.3797 178.659 33.5194 179.799 33.5194 181.25C33.5194 182.7 32.3797 183.84 30.9291 183.84Z" fill="white"/>
<path d="M53.8278 170.422H41.6532V192.44H53.8278V170.422Z" fill="#2BDA80"/>
<path d="M66.0023 170.422H53.8276V192.44H66.0023V170.422Z" fill="#09A76E"/>
<path d="M72.7372 192.44H66.0023V170.422H72.9444C75.7938 170.422 78.1769 172.753 78.1769 175.654V187.052C78.1251 190.005 75.6902 192.44 72.7372 192.44Z" fill="#058F5D"/>
<path opacity="0.4" d="M74.965 171.509C74.7577 171.457 74.5505 171.457 74.3433 171.457H32.5869C32.0688 171.457 31.6025 171.612 31.2399 171.975L21.1375 180.782C20.205 181.611 20.205 183.062 21.1375 183.839L27.458 189.382L34.2965 191.092C34.6073 191.195 34.97 191.195 35.3326 191.195C36.0061 191.195 36.6278 191.04 37.2495 190.729L74.4469 171.768C74.6023 171.716 74.8095 171.612 74.965 171.509ZM31.4471 184.875C30.0483 184.875 28.8567 183.735 28.8567 182.285C28.8567 180.834 29.9965 179.694 31.4471 179.694C32.8977 179.694 34.0374 180.834 34.0374 182.285C34.0374 183.735 32.8977 184.875 31.4471 184.875Z" fill="#848484"/>
<path d="M73.8253 170.422H32.0688C31.5508 170.422 31.0845 170.577 30.7218 170.94L20.6195 179.747C19.687 180.576 19.687 182.027 20.6195 182.804L30.7218 191.766C31.0845 192.077 31.5508 192.388 32.0688 192.388H73.8253C76.2084 192.388 78.177 190.212 78.177 187.829V174.618C78.1252 172.339 76.2084 170.422 73.8253 170.422ZM30.9291 183.84C29.5303 183.84 28.3387 182.7 28.3387 181.25C28.3387 179.799 29.4785 178.659 30.9291 178.659C32.3797 178.659 33.5194 179.799 33.5194 181.25C33.5194 182.7 32.3797 183.84 30.9291 183.84Z" stroke="#444E59" stroke-width="2" stroke-miterlimit="10" stroke-linecap="round" stroke-linejoin="round"/>
<path d="M53.8278 170.422H41.6532V192.44H53.8278V170.422Z" stroke="#444E59" stroke-width="2" stroke-miterlimit="10" stroke-linecap="round" stroke-linejoin="round"/>
<path d="M66.0023 170.422H53.8276V192.44H66.0023V170.422Z" stroke="#444E59" stroke-width="2" stroke-miterlimit="10" stroke-linecap="round" stroke-linejoin="round"/>
<path d="M72.7372 192.44H66.0023V170.422H72.9444C75.7938 170.422 78.1769 172.753 78.1769 175.654V187.052C78.1251 190.005 75.6902 192.44 72.7372 192.44Z" stroke="#444E59" stroke-width="2" stroke-miterlimit="10" stroke-linecap="round" stroke-linejoin="round"/>
<path d="M63.0495 149.497L25.8521 168.458C25.3858 168.665 25.075 169.08 24.8678 169.546L19.8943 181.98C19.428 183.119 20.1015 184.414 21.2931 184.725L34.2966 188.041C34.7629 188.145 35.281 188.093 35.7472 187.886L72.9446 168.924C75.0687 167.836 75.8976 165.246 74.8097 163.174L68.8001 151.413C67.7121 149.238 65.1218 148.409 63.0495 149.497Z" fill="white"/>
<path d="M56.043 153.049L45.1978 158.582L55.0873 177.965L65.9324 172.432L56.043 153.049Z" fill="#73CD91"/>
<path d="M63.0495 149.497L25.8521 168.458C25.3858 168.665 25.075 169.08 24.8678 169.546L19.8943 181.98C19.428 183.119 20.1015 184.414 21.2931 184.725L34.2966 188.041C34.7629 188.145 35.281 188.093 35.7472 187.886L72.9446 168.924C75.0687 167.836 75.8976 165.246 74.8097 163.174L68.8001 151.413C67.7121 149.238 65.1218 148.409 63.0495 149.497Z" stroke="#444E59" stroke-width="2" stroke-miterlimit="10" stroke-linecap="round" stroke-linejoin="round"/>
<path d="M29.7894 181.666C31.4489 181.666 32.7942 180.321 32.7942 178.661C32.7942 177.002 31.4489 175.656 29.7894 175.656C28.1299 175.656 26.7846 177.002 26.7846 178.661C26.7846 180.321 28.1299 181.666 29.7894 181.666Z" fill="#444E59"/>
<path d="M45.1745 158.607L34.3293 164.141L44.2187 183.523L55.0639 177.99L45.1745 158.607Z" fill="#D9F1DD" stroke="#444E59" stroke-width="2" stroke-miterlimit="10" stroke-linecap="round" stroke-linejoin="round"/>
<path d="M45.1745 158.607L34.3293 164.141L44.2187 183.523L55.0639 177.99L45.1745 158.607Z" stroke="#444E59" stroke-width="2" stroke-miterlimit="10" stroke-linecap="round" stroke-linejoin="round"/>
<path d="M56.043 153.049L45.1978 158.582L55.0873 177.965L65.9324 172.432L56.043 153.049Z" stroke="#444E59" stroke-width="2" stroke-miterlimit="10" stroke-linecap="round" stroke-linejoin="round"/>
<path d="M72.1156 169.284L65.8988 172.444L56.0036 153.069L62.2205 149.908C64.759 148.613 67.8674 149.597 69.2144 152.188L74.3951 162.342C75.6903 164.88 74.6541 167.989 72.1156 169.284Z" fill="#2BDA80"/>
<path d="M72.1156 169.284L65.8988 172.444L56.0036 153.069L62.2205 149.908C64.759 148.613 67.8674 149.597 69.2144 152.188L74.3951 162.342C75.6903 164.88 74.6541 167.989 72.1156 169.284Z" stroke="#444E59" stroke-width="2" stroke-miterlimit="10" stroke-linecap="round" stroke-linejoin="round"/>
<path d="M124.492 192.608H89.6263C86.777 192.608 84.4456 190.277 84.4456 187.428V117.54C84.4456 114.691 86.777 112.359 89.6263 112.359H124.492C127.342 112.359 129.673 114.691 129.673 117.54V187.428C129.673 190.329 127.342 192.608 124.492 192.608Z" fill="white"/>
<path d="M130.398 136.45H84.4456V117.436C84.4456 114.639 86.7251 112.359 89.5227 112.359H125.011C127.964 112.359 130.347 114.794 130.347 117.696V136.45H130.398Z" fill="#2BDA80"/>
<path d="M124.492 192.608H89.6263C86.777 192.608 84.4456 190.277 84.4456 187.428V117.54C84.4456 114.691 86.777 112.359 89.6263 112.359H124.492C127.342 112.359 129.673 114.691 129.673 117.54V187.428C129.673 190.329 127.342 192.608 124.492 192.608Z" stroke="#444E59" stroke-width="2" stroke-miterlimit="10" stroke-linecap="round" stroke-linejoin="round"/>
<path d="M124.544 192.608H89.7816C86.8286 192.608 84.3937 190.173 84.3937 187.22V177.273H129.673V187.479C129.673 190.329 127.342 192.608 124.544 192.608Z" fill="#BBBFC2"/>
<path d="M124.648 192.608H89.7816C86.8286 192.608 84.3937 190.173 84.3937 187.22V177.273H129.673V187.583C129.673 190.381 127.394 192.608 124.648 192.608Z" stroke="#444E59" stroke-width="2" stroke-miterlimit="10" stroke-linecap="round" stroke-linejoin="round"/>
<path d="M107.396 187.22C108.827 187.22 109.986 186.06 109.986 184.629C109.986 183.199 108.827 182.039 107.396 182.039C105.965 182.039 104.806 183.199 104.806 184.629C104.806 186.06 105.965 187.22 107.396 187.22Z" fill="#444E59"/>
<path opacity="0.3" d="M94.6516 144.48H120.192" stroke="#444E59" stroke-width="2" stroke-miterlimit="10" stroke-linecap="round" stroke-linejoin="round"/>
<path opacity="0.3" d="M99.7286 152.504H115.789" stroke="#444E59" stroke-width="2" stroke-miterlimit="10" stroke-linecap="round" stroke-linejoin="round"/>
<path opacity="0.3" d="M94.6516 159.812H120.192" stroke="#444E59" stroke-width="2" stroke-miterlimit="10" stroke-linecap="round" stroke-linejoin="round"/>
<path opacity="0.62" d="M107.396 132.046C110.601 132.046 113.198 129.448 113.198 126.244C113.198 123.039 110.601 120.441 107.396 120.441C104.191 120.441 101.594 123.039 101.594 126.244C101.594 129.448 104.191 132.046 107.396 132.046Z" fill="white"/>
<path d="M115.789 167.844C115.789 169.45 114.494 170.745 112.888 170.745H101.956C100.35 170.745 99.0551 169.45 99.0551 167.844C99.0551 166.238 100.35 164.943 101.956 164.943H112.888C114.494 164.891 115.789 166.186 115.789 167.844Z" fill="#058F5D"/>
<path d="M394.51 183.124H268.982V107.693C268.982 105.466 270.795 103.652 273.023 103.652H390.521C392.697 103.652 394.458 105.414 394.458 107.59V183.124H394.51Z" fill="#BBBFC2"/>
<path d="M394.821 183.279H269.345V107.641C269.345 105.361 271.21 103.496 273.489 103.496H390.677C392.956 103.496 394.821 105.361 394.821 107.641V183.279Z" stroke="#444E59" stroke-width="2" stroke-miterlimit="10" stroke-linecap="round" stroke-linejoin="round"/>
<path opacity="0.71" d="M387.945 176.608V110.191L276.301 110.191V176.608H387.945Z" fill="#5D5D5D"/>
<path opacity="0.32" d="M303.589 163.96H293.953C293.383 163.96 292.917 163.494 292.917 162.924V129.923C292.917 129.353 293.383 128.887 293.953 128.887H303.589C304.159 128.887 304.625 129.353 304.625 129.923V162.976C304.625 163.494 304.159 163.96 303.589 163.96Z" fill="#848484"/>
<path opacity="0.32" d="M373.166 170.635H317.525C316.385 170.635 315.453 169.703 315.453 168.563V126.029C315.453 124.89 316.385 123.957 317.525 123.957H373.166C374.306 123.957 375.238 124.89 375.238 126.029V168.563C375.238 169.703 374.357 170.635 373.166 170.635Z" fill="#848484"/>
<path d="M387.847 176.296V110.449L276.306 110.449V176.296H387.847Z" stroke="#444E59" stroke-width="2" stroke-miterlimit="10" stroke-linecap="round" stroke-linejoin="round"/>
<path d="M408.498 183.281H255.616V188.151C255.616 190.431 257.481 192.296 259.76 192.296H404.354C406.633 192.296 408.498 190.431 408.498 188.151V183.281Z" fill="white"/>
<path opacity="0.8" d="M261.47 192.605H402.696C405.545 192.605 407.876 190.43 408.395 187.477H255.719C256.237 190.43 258.621 192.605 261.47 192.605Z" fill="#BBBFC2"/>
<path d="M408.498 183.281H255.616V188.151C255.616 190.431 257.481 192.296 259.76 192.296H404.354C406.633 192.296 408.498 190.431 408.498 188.151V183.281Z" stroke="#444E59" stroke-width="2" stroke-miterlimit="10" stroke-linecap="round" stroke-linejoin="round"/>
<path d="M301.828 126.238H290.171V137.895H301.828V126.238Z" fill="#D9F1DD"/>
<path d="M302.035 126.344H290.378V138H302.035V126.344Z" stroke="#444E59" stroke-width="2" stroke-miterlimit="10" stroke-linecap="round" stroke-linejoin="round"/>
<path d="M302.035 126.344H290.378V138H302.035V126.344Z" stroke="#444E59" stroke-width="2" stroke-miterlimit="10" stroke-linecap="round" stroke-linejoin="round"/>
<path d="M301.828 137.891H290.171V149.547H301.828V137.891Z" fill="#73CD91"/>
<path d="M302.035 138.055H290.378V149.711H302.035V138.055Z" stroke="#444E59" stroke-width="2" stroke-miterlimit="10" stroke-linecap="round" stroke-linejoin="round"/>
<path d="M301.828 149.551H290.171V161.207H301.828V149.551Z" fill="#2BDA80"/>
<path d="M302.035 149.703H290.378V161.36H302.035V149.703Z" stroke="#444E59" stroke-width="2" stroke-miterlimit="10" stroke-linecap="round" stroke-linejoin="round"/>
<path d="M369.798 167.061H314.106C312.966 167.061 312.034 166.128 312.034 164.989V122.455C312.034 121.315 312.966 120.383 314.106 120.383H369.798C370.938 120.383 371.871 121.315 371.871 122.455V164.989C371.871 166.18 370.938 167.061 369.798 167.061Z" fill="white"/>
<path d="M369.798 167.061H314.106C312.966 167.061 312.034 166.128 312.034 164.989V122.455C312.034 121.315 312.966 120.383 314.106 120.383H369.798C370.938 120.383 371.871 121.315 371.871 122.455V164.989C371.871 166.18 370.938 167.061 369.798 167.061Z" stroke="#444E59" stroke-width="2" stroke-miterlimit="10" stroke-linecap="round" stroke-linejoin="round"/>
<g opacity="0.3">
<path d="M354.36 154.793V155.57H353.583" stroke="#444E59" stroke-width="2" stroke-linejoin="round"/>
<path d="M352.598 155.57H330.891" stroke="#444E59" stroke-width="2" stroke-linejoin="round" stroke-dasharray="2.86 2.86"/>
<path d="M330.373 155.57H329.596V154.793" stroke="#444E59" stroke-width="2" stroke-linejoin="round"/>
<path d="M329.596 153.701V133.496" stroke="#444E59" stroke-width="2" stroke-linejoin="round" stroke-dasharray="3 3"/>
<path d="M329.596 132.98V132.203H330.373" stroke="#444E59" stroke-width="2" stroke-linejoin="round"/>
<path d="M331.357 132.203H353.065" stroke="#444E59" stroke-width="2" stroke-linejoin="round" stroke-dasharray="2.86 2.86"/>
<path d="M353.583 132.203H354.36V132.98" stroke="#444E59" stroke-width="2" stroke-linejoin="round"/>
<path d="M354.36 134.023V154.28" stroke="#444E59" stroke-width="2" stroke-linejoin="round" stroke-dasharray="3 3"/>
</g>
<path d="M331.565 130.383H327.887V134.061H331.565V130.383Z" fill="white"/>
<path d="M331.358 130.227H327.731V133.853H331.358V130.227Z" stroke="#444E59" stroke-width="2" stroke-miterlimit="10" stroke-linejoin="round"/>
<path d="M331.565 153.684H327.887V157.362H331.565V153.684Z" fill="white"/>
<path d="M331.358 153.586H327.731V157.212H331.358V153.586Z" stroke="#444E59" stroke-width="2" stroke-miterlimit="10" stroke-linejoin="round"/>
<path d="M356.225 130.383H352.547V134.061H356.225V130.383Z" fill="white"/>
<path d="M356.173 130.227H352.547V133.853H356.173V130.227Z" stroke="#444E59" stroke-width="2" stroke-miterlimit="10" stroke-linejoin="round"/>
<path d="M356.225 153.684H352.547V157.362H356.225V153.684Z" fill="white"/>
<path d="M356.173 153.586H352.547V157.212H356.173V153.586Z" stroke="#444E59" stroke-width="2" stroke-miterlimit="10" stroke-linejoin="round"/>
<path d="M296.232 144.055L299.911 151.929L303.485 153.794L305.972 151.308L304.159 147.681L296.232 144.055Z" fill="white"/>
<path d="M296.232 144.055L299.911 151.929L303.485 153.794L305.972 151.308L304.159 147.681L296.232 144.055Z" stroke="#444E59" stroke-width="2" stroke-miterlimit="10" stroke-linejoin="round"/>
<path d="M300.895 149.496C301.439 149.496 301.879 149.055 301.879 148.512C301.879 147.968 301.439 147.527 300.895 147.527C300.351 147.527 299.911 147.968 299.911 148.512C299.911 149.055 300.351 149.496 300.895 149.496Z" fill="#444E59"/>
<path d="M296.232 144.055L300.325 148.147" stroke="#444E59" stroke-width="2" stroke-miterlimit="10" stroke-linecap="round" stroke-linejoin="round"/>
<path d="M305.988 151.271L303.496 153.762L305.292 155.557L307.783 153.066L305.988 151.271Z" fill="white"/>
<path d="M305.988 151.271L303.496 153.762L305.292 155.557L307.783 153.066L305.988 151.271Z" stroke="#444E59" stroke-width="2" stroke-miterlimit="10" stroke-linejoin="round"/>
</svg>
